<?xml version="1.0" encoding="utf-8"?>
<!-- Generator: Adobe Illustrator 25.2.1, SVG Export Plug-In . SVG Version: 6.00 Build 0)  -->
<svg version="1.1" xmlns="http://www.w3.org/2000/svg" xmlns:xlink="http://www.w3.org/1999/xlink" x="0px" y="0px"
	 viewBox="0 0 576 252" style="enable-background:new 0 0 576 252;" xml:space="preserve">
<style type="text/css">
	.st0{fill:none;}
	.st1{opacity:0.51;}
	.st2{fill:#282828;}
	.st3{fill:url(#SVGID_1_);}
	.st4{fill:url(#SVGID_2_);}
	.st5{fill:url(#SVGID_3_);}
</style>
<g id="BG">
	<rect x="0.3" y="3.7" class="st0" width="575.3" height="244.7"/>
</g>
<g id="LOGO">
	<path class="st1" d="M431.5,37.9c-2.4-19.7-54.2,1-58.5,1.7c-4.3,0.7-5.5-2.8-14.9-3.1c-9.4-0.2-23.6,3-32.8,3.4
		c-8.1,0.3-15.1-2.7-20.6-2.6c-5.7,0.2-9.6,0.8-14.9-4.7c-2.6-2.7-5.7-11.6-10.9-13.4l-0.7,9.7c-1.8-5.7-7.6-7.6-7.6-7.6
		c0.7,4.8,1.4,11.2,0.8,11.5c-2.1,1-3.5,1.5-5.4,3.4c-2.4,2.4-2.3,5.5-3.4,7.6c-1.2,2.1-3.4,2.8-3.4,2.8c0.9,3.3,4,7.6,8.9,8
		c4.9,0.4,17.7-6.5,25.9,14.1c-4.6,10.7-14.8,29.3-20.2,29.5c-5.4,0.1-5.2,4.6-1.9,5.3c3.3,0.7,4.7-0.1,4.7-0.1
		c13.5-4.5,27.2-26,27.2-26c7.5,8.1,7,23.4,7,23.4c-5.9,0.3-6.8,5.6-1.8,5.6c0,0,1.4,0.1,3.5,0.1c6.7,0,5.5-31,5.5-31
		c10.6,2,29.3,0,29.3,0c2.7,6.9,12.6,11.8,15.6,14.2c3.1,2.5,1,4.3-0.1,5.5c-1.1,1.2-7.5,7.6-10.6,7.5c-9.1-0.3-4.4,5.2-2.1,5.2l6,0
		c2.9-0.1,16.7-10.7,19.3-12.9c2.6-2.1,2.5-4.2,1.5-5.8c-1-1.6-7.9-10.5-5.4-9.6c2.5,0.9,9.2,3.5,16.1,6.1
		c6.9,2.6,11.7,15.4,10.9,15.4c-2.5,0-6.6,5.2-0.5,5.5l3.8,0c2.4,0,4.9-5.1,2.9-9.2c-7.2-14.5-5.2-19-9.2-21.6
		c-16.1-10.4-19.7-22-16.8-27.7c3-5.9,39.8-14.7,46.1-9.8c3.1,2.3-6.7,12-1.5,10.6C426.3,47.9,432.1,42.3,431.5,37.9z M267.6,43.2
		c-0.2-3,1.1-3.3,1.1-3.3c2.3,1.3,3.2,2.4,3.2,2.4C270.3,42.4,267.6,43.2,267.6,43.2z"/>
	<path d="M297.2,37.1c1.8,1,0.8,6.2-2.1,11.8c-3,5.7-6.7,9.4-8.6,8.4l-3.4-2.2c1.8,1,5.5-2.5,8.4-8.1c3-5.7,4-10,2.2-11.1
		L297.2,37.1z"/>
	<path class="st2" d="M227.8,189.3c-3.7,6.3-9.9,9.2-17.7,9.2c-3.7,0-8.3-1-11-3.1c-3.9-2.8-4.9-7-4.9-12.6v-56.5H186v-5
		c1.6-3.9,8.5-3.3,10-8.5c3.1-10.9,4.9-17.6,8.6-19.2l4.9-1v25.9h14.4v7.8h-14.4v61.2c0,1.2,1.3,3.3,4.9,3.3c3.6,0,6.3-2.1,8.6-6
		L227.8,189.3z"/>
	<path class="st2" d="M186.7,189.3c-3.7,6.3-9.9,9.2-17.7,9.2c-3.7,0-8.3-1-11-3.1c-3.9-2.8-4.9-7-4.9-12.6v-56.5h-8.3v-5
		c1.6-3.9,8.5-3.3,10-8.5c3.1-10.9,4.9-17.6,8.6-19.2l4.9-1v25.9h14.4v7.8h-14.4v61.2c0,1.2,1.3,3.3,4.9,3.3c3.6,0,6.3-2.1,8.6-6
		L186.7,189.3z"/>
	<path class="st2" d="M251.4,118.5v66.1c0,6.8,6.8,3.7,6.8,8.3v3.4h-28.9v-3.4c0-4.5,6.8-1.5,6.8-8.3v-54.5c0-6.8-6.8-3.7-6.8-8.3
		v-3.4H251.4z"/>
	<path class="st2" d="M283.7,118.5v6.3c4.1-4.1,10.2-8.6,19.9-8.6c8.4,0,14.9,4.9,18.3,10.2c6-6.2,14.1-10.2,23.3-9.9
		c11.5,0.3,19.4,7.5,19.4,21.7v46.4c0,6.8,6.8,3.7,6.8,8.3v3.4h-28.8v-3.4c0-4.5,6.8-1.5,6.8-8.3v-48c0-6.5-3.4-11-10.4-11
		c-7.6,0-12.3,5.5-14.9,8.9v50.1c0,6.8,6.8,3.7,6.8,8.3v3.4h-28.8v-3.4c0-4.5,6.8-1.5,6.8-8.3v-48c0-6.5-3.4-11-10.4-11
		c-7.6,0-12.3,5.5-14.9,8.9v50.1c0,6.8,6.8,3.7,6.8,8.3v3.4h-28.8v-3.4c0-4.5,6.8-1.5,6.8-8.3v-54.5c0-6.8-6.8-3.7-6.8-8.3v-3.4
		H283.7z"/>
	<path class="st2" d="M387,155.1c0,29,7.3,35.7,18.2,35.7c11.7,0,16.2-7.9,20.1-17.3l6.3,4.2c-4.9,13.6-13.5,20.9-27.4,20.9
		c-21.2,0-34-13.6-34-41.2c0-24.6,11.7-41.2,30.8-41.2c20.1,0,29.8,15.6,29.8,36.1v2.8H387z M413.9,147.3c0-16.2-3.6-23.3-13-23.3
		c-7.8,0-13.9,7.1-13.9,23.3H413.9z"/>
	<path class="st2" d="M252.6,97c0,5.5-4.4,9.9-9.9,9.9c-5.5,0-9.9-4.4-9.9-9.9c0-5.5,4.4-9.9,9.9-9.9
		C248.1,87.1,252.6,91.6,252.6,97"/>
	<path class="st2" d="M442.7,192c0,2.9-2.2,4.9-4.9,4.9c-2.7,0-4.9-2-4.9-4.9c0-2.9,2.2-4.9,4.9-4.9
		C440.6,187.1,442.7,189.1,442.7,192"/>
	<path class="st2" d="M473.1,188.7c-2.5,6.2-5.4,8.7-11.3,8.7c-8.1,0-14.8-5.6-14.8-19.1c0-11.4,6.1-20.5,15.4-20.5
		c6.4,0,10.7,3.8,10.7,8.5c0,2.5-1.2,4.8-4.1,4.8c-2.3,0-4-1.6-4-3.8c0-1.7,1.1-3.1,1.1-4c0-1.1-1.2-1.8-3.2-1.8
		c-4.4,0-7.8,4.4-7.8,16.2c0,11.2,3,15.9,7.7,15.9c4.1,0,5.8-3.3,7.3-6.6L473.1,188.7z"/>
	<path class="st2" d="M505.1,177.6c0,14.2-7.2,19.8-14.8,19.8c-7.6,0-14.8-5.6-14.8-19.8c0-14.2,7.2-19.8,14.8-19.8
		C497.9,157.9,505.1,163.5,505.1,177.6 M497,177.6c0-12-2.1-16.5-6.7-16.5c-4.6,0-6.7,4.5-6.7,16.5c0,12,2.1,16.5,6.7,16.5
		C494.9,194.1,497,189.6,497,177.6"/>
	<path class="st2" d="M516.6,158.9v3c1.9-1.9,4.9-4.1,9.6-4.1c4,0,7.2,2.3,8.8,4.9c2.9-3,6.8-4.9,11.2-4.8c5.5,0.2,9.3,3.6,9.3,10.4
		v22.3c0,3.3,3.3,1.8,3.3,4v1.6h-13.8v-1.6c0-2.2,3.3-0.7,3.3-4v-23c0-3.1-1.6-5.3-5-5.3c-3.7,0-5.9,2.6-7.2,4.3v24
		c0,3.3,3.3,1.8,3.3,4v1.6h-13.8v-1.6c0-2.2,3.3-0.7,3.3-4v-23c0-3.1-1.6-5.3-5-5.3c-3.7,0-5.9,2.6-7.2,4.3v24c0,3.3,3.3,1.8,3.3,4
		v1.6H506v-1.6c0-2.2,3.3-0.7,3.3-4v-26.1c0-3.3-3.3-1.8-3.3-4v-1.6H516.6z"/>
	<path class="st2" d="M80.6,180.2c-2.6,6.5-5.6,11.1-9.2,13.9c-3.5,2.8-8.3,4.2-14.3,4.2c-4.2,0-8.2-0.8-11.9-2.3
		c-3.7-1.5-7-3.9-9.8-7c-2.8-3.2-5-7.3-6.6-12.3c-1.6-5-2.4-11-2.4-18.1c0-5.9,0.8-11.5,2.3-16.7c1.5-5.2,3.7-9.7,6.5-13.5
		c2.8-3.8,6.2-6.9,10.1-9.1c3.9-2.2,8.3-3.3,13.2-3.3c3.3,0,6.4,0.5,9.1,1.4c2.7,0.9,5,2.2,7,3.8c1.9,1.6,3.5,3.5,4.5,5.7
		c1.1,2.2,1.6,4.4,1.6,6.8c0,2.6-0.7,4.9-2,7c-1.4,2.1-3.5,3.1-6.6,3.1c-2.5,0-4.5-0.7-6-2.2c-1.5-1.5-2.3-3.4-2.3-5.8
		c0-1.8,0.4-3.5,1.1-4.9c0.8-1.4,1.1-2.5,1.1-3.4c0-2.5-2.2-3.7-6.6-3.7c-2.3,0-4.4,0.6-6.4,1.8c-2,1.2-3.7,3.1-5.2,5.8
		c-1.5,2.7-2.6,6.2-3.4,10.4c-0.8,4.3-1.2,9.5-1.2,15.6c0,11.7,1.4,20.1,4.3,25.3c2.9,5.2,6.8,7.8,11.7,7.8c2.2,0,4-0.4,5.6-1.1
		c1.6-0.8,2.9-1.8,4.1-3.1c1.1-1.3,2.1-2.8,3-4.5c0.9-1.7,1.7-3.4,2.6-5.1L80.6,180.2z"/>
	<path class="st2" d="M150.5,191.1c-0.9,1.8-2.3,3.5-4.4,5c-2.1,1.5-4.9,2.3-8.4,2.3c-2.8,0-5.2-0.7-7.1-2c-1.9-1.4-3.8-3.4-5.5-6.2
		c-1.8,2.2-4.4,4.1-7.6,5.8c-3.2,1.7-7.3,2.5-12.2,2.5c-3.7,0-6.9-0.5-9.8-1.6c-2.9-1.1-5.3-2.6-7.3-4.5c-2-1.9-3.5-4.2-4.5-6.7
		c-1-2.5-1.5-5.3-1.5-8.2c0-3.9,0.8-7.3,2.3-10.4c1.5-3,3.5-5.6,6-7.9c2.5-2.2,5.3-4.1,8.3-5.6c3.1-1.5,6.1-2.8,9.2-3.7
		c3-1,5.9-1.8,8.8-2.4c2.8-0.6,5.1-1.1,7-1.4v-8.8c0-1.6-0.3-3.3-0.8-5c-0.5-1.7-1.3-3.3-2.3-4.7c-1-1.4-2.3-2.5-3.8-3.4
		c-1.5-0.9-3.2-1.3-5-1.3c-3.5,0-5.2,1.4-5.2,4.2c0,0.9,0.1,1.8,0.3,2.8c0.2,1,0.3,2.1,0.3,3.2c0,2.2-0.7,4-2.2,5.4
		c-1.5,1.5-3.6,2.2-6.4,2.2c-3.1,0-5.5-0.8-7.1-2.5c-1.6-1.7-2.4-3.8-2.4-6.2c0-2.3,0.6-4.3,1.8-6.2c1.2-1.9,2.8-3.6,4.9-5
		c2-1.5,4.5-2.6,7.2-3.4c2.8-0.8,5.7-1.2,8.8-1.2c8.3,0,14.9,2.6,19.9,7.8c4.9,5.2,7.4,12.5,7.4,22V182c0,2.4,0.5,4,1.5,4.8
		c1,0.8,2.5,1.2,4.5,1.2c0.9,0,1.6-0.1,2.2-0.3c0.6-0.2,1.2-0.4,1.7-0.6L150.5,191.1z M123.6,153c-2.9,0.6-5.8,1.6-8.6,3
		c-2.8,1.4-5.3,3.1-7.5,5.1c-2.2,2.1-4,4.4-5.3,7c-1.3,2.6-1.9,5.6-1.9,9c0,3.7,0.8,6.8,2.4,9.5c1.6,2.7,4.2,4,7.8,4
		c4.2,0,7.5-1.8,9.7-5.3c2.3-3.6,3.4-8,3.4-13.3V153z"/>
	<path class="st2" d="M439.4,116.9c4.5,0,8.2,3.5,8.2,8.1c0,4.7-3.7,8.2-8.2,8.2c-4.5,0-8.2-3.5-8.2-8.2
		C431.2,120.4,435,116.9,439.4,116.9 M439.4,132.1c3.8,0,6.7-3,6.7-7c0-3.9-2.9-6.9-6.7-6.9c-3.8,0-6.8,3-6.8,6.9
		C432.7,129.1,435.6,132.1,439.4,132.1 M436.3,120.3h3.7c2.3,0,3.3,0.9,3.3,2.7c0,1.7-1.1,2.4-2.5,2.6l2.7,4.2h-1.6l-2.6-4.1h-1.6
		v4.1h-1.5V120.3z M437.7,124.6h1.6c1.3,0,2.5-0.1,2.5-1.6c0-1.3-1.1-1.5-2.1-1.5h-2V124.6z"/>
	<g>
		<linearGradient id="SVGID_1_" gradientUnits="userSpaceOnUse" x1="270.5249" y1="26.9837" x2="278.4167" y2="26.9837">
			<stop  offset="0" style="stop-color:#000000;stop-opacity:0"/>
			<stop  offset="1" style="stop-color:#000000;stop-opacity:0.48"/>
		</linearGradient>
		<path class="st3" d="M270.5,21.3c0,0,0.9,5.9,1,9.1c0,0,0.1,2.2-0.2,2.4c0,0,1.8-1.1,6.6-1.8c0,0,0.3,0,0.5,0c0,0-0.1-1.5-0.4-2.4
			c-0.4-0.9-1.4-3.8-4.8-5.9C273.2,22.6,271.3,21.4,270.5,21.3z"/>
		<linearGradient id="SVGID_2_" gradientUnits="userSpaceOnUse" x1="288.7887" y1="81.8481" x2="303.7513" y2="81.8481">
			<stop  offset="0" style="stop-color:#000000;stop-opacity:0"/>
			<stop  offset="1" style="stop-color:#000000;stop-opacity:0.48"/>
		</linearGradient>
		<path class="st4" d="M293.9,68.5c0,0,0.6,1.3,7.2,6.4c0,0,2.3,1.9,2.6,2.3c0,0-3.4,5-5.4,7.4s-2.5,3-3.3,4
			c-3.7,4.3-6.3,6.5-6.3,6.5l1-17.9C289.8,77.3,292.9,71.2,293.9,68.5z"/>
		<linearGradient id="SVGID_3_" gradientUnits="userSpaceOnUse" x1="361.0136" y1="91.4411" x2="362.91" y2="75.9962">
			<stop  offset="0" style="stop-color:#000000;stop-opacity:0"/>
			<stop  offset="1" style="stop-color:#000000;stop-opacity:0.48"/>
		</linearGradient>
		<path class="st5" d="M347.3,75.3c0,0,8.5-2.4,24.9,4.4c0,0-1.6-0.7-1.2,0.2c0.4,0.9,1,2.2,2.7,4.6s3.3,4.6,3.3,4.6l-12.4,2.8
			c0,0-0.1-1.2-1.7-2.5C359.5,86.9,349.2,81.4,347.3,75.3z"/>
	</g>
</g>
</svg>
