<?xml version="1.0" encoding="utf-8"?>
<!-- Generator: Adobe Illustrator 25.2.1, SVG Export Plug-In . SVG Version: 6.00 Build 0)  -->
<svg version="1.1" id="_x30_7_-_MOBILE_SPECS" xmlns="http://www.w3.org/2000/svg" xmlns:xlink="http://www.w3.org/1999/xlink"
	 x="0px" y="0px" viewBox="0 0 314.8 104.5" style="enable-background:new 0 0 314.8 104.5;" xml:space="preserve">
<style type="text/css">
	.st0{fill:#282828;}
</style>
<g>
	<g>
		<path class="st0" d="M60.9,36.7c-0.6-0.7-1.4-1.3-2.4-1.8c-1.3-0.6-3.1-0.8-5.5-0.5c-0.7,0.1-1.4,0.3-2.1,0.6
			c-0.7,0.3-1.4,0.7-2.1,1.3c-0.7,0.5-1.3,1.3-1.8,2.2c-0.5,0.9-1,2-1.4,3.3c-0.4,1.3-0.6,2.8-0.7,4.6l-0.8,12.2
			c-0.1,1.8-0.1,3.3,0.1,4.6c0.2,1.3,0.5,2.4,0.9,3.3c0.4,0.9,0.9,1.7,1.5,2.2c0.6,0.6,1.2,1,1.9,1.3c0.7,0.3,1.3,0.5,2,0.6
			c0.6,0.1,1.3,0.1,1.8,0.1h0h0c2.5,0,4.6-0.8,6.1-2.2c1.5-1.4,2.3-3.7,2.5-6.6l0.3-3.9h-6.1l-0.3,4c0,0.6-0.1,1.2-0.3,1.6
			c-0.1,0.4-0.3,0.8-0.5,1c-0.2,0.2-0.4,0.4-0.6,0.5c-0.6,0.3-1.3,0.2-1.7,0c-0.2-0.1-0.4-0.3-0.6-0.6c-0.2-0.4-0.3-0.9-0.3-1.5
			c-0.1-0.7,0-1.5,0-2.6l1.1-15.7c0.1-1.1,0.2-2,0.4-2.6c0.2-0.7,0.4-1.2,0.6-1.6c0.2-0.3,0.4-0.6,0.7-0.7c0.3-0.1,0.6-0.2,1-0.2
			c0.3,0,0.8,0.1,1.1,1c0.3,0.9,0.4,2.2,0.3,4l-0.2,2.4h5.5l0.1-0.5c0.2-0.8,0.4-1.5,0.5-2.1c0.1-0.6,0.2-1.4,0.3-2.1
			c0.1-1,0-2.1-0.2-3C61.8,38.4,61.4,37.5,60.9,36.7z"/>
		<path class="st0" d="M82.3,38.4c-0.4-0.9-1-1.6-1.6-2.2c-0.6-0.5-1.3-0.9-1.9-1.2c-0.7-0.3-1.3-0.4-2-0.5c-1.3-0.2-2.3-0.2-3.6,0
			c-0.7,0.1-1.4,0.3-2.1,0.6c-0.7,0.3-1.4,0.7-2.1,1.3c-0.7,0.5-1.3,1.3-1.9,2.2c-0.5,0.9-1,2-1.4,3.3c-0.4,1.3-0.6,2.8-0.7,4.6
			l-0.8,12.2c-0.1,1.8-0.1,3.3,0.1,4.6c0.2,1.3,0.5,2.4,0.9,3.3c0.4,0.9,0.9,1.7,1.5,2.2c0.6,0.6,1.2,1,1.9,1.3
			c0.7,0.3,1.4,0.5,2.1,0.6c0.7,0.1,1.3,0.1,1.9,0.1c0.5,0,1.1-0.1,1.8-0.1c0.7-0.1,1.4-0.3,2.1-0.6c0.7-0.3,1.4-0.8,2.1-1.3
			c0.7-0.6,1.3-1.3,1.9-2.2c0.5-0.9,1-2,1.4-3.3c0.4-1.3,0.6-2.8,0.8-4.6l0.8-12.2c0.1-1.8,0.1-3.4-0.1-4.7
			C83,40.4,82.7,39.3,82.3,38.4z M76.6,44.9l-1.1,15.7c-0.1,1-0.2,1.9-0.4,2.6c-0.2,0.6-0.4,1.1-0.6,1.5c-0.2,0.3-0.4,0.5-0.7,0.6
			c-0.6,0.3-1.6,0.3-2.2,0c-0.3-0.1-0.5-0.3-0.6-0.6c-0.2-0.4-0.3-0.9-0.4-1.5c-0.1-0.7-0.1-1.5,0-2.5l1.1-15.7
			c0.1-1.1,0.2-2,0.4-2.6c0.2-0.7,0.4-1.2,0.6-1.6c0.2-0.3,0.4-0.6,0.7-0.7c0.3-0.1,0.7-0.2,1.1-0.2c0.4,0,0.8,0.1,1,0.2
			c0.2,0.1,0.4,0.3,0.6,0.7c0.2,0.4,0.3,0.9,0.4,1.6C76.7,43,76.7,43.9,76.6,44.9z"/>
		<path class="st0" d="M99.9,48.5c-0.5,1.5-0.8,2.9-1.1,4.3c-0.1-1.4-0.3-2.8-0.5-4.3l-2.5-13.8h-8l-2.4,35.8h6.2l0.8-12.1
			c0.1-1.8,0.2-3.4,0.3-5.1c0.1-1.6,0.1-3.1,0.2-4.5c0-0.1,0-0.2,0-0.3L95.7,66h4.4l5.2-17.4c0,0.1,0,0.1,0,0.2
			c-0.1,1.4-0.3,2.8-0.4,4.5c-0.1,1.6-0.3,3.3-0.4,5.1l-0.8,12.1h6.2l2.4-35.8h-7.9L99.9,48.5z"/>
		<polygon class="st0" points="113.5,70.5 120.1,70.5 122.5,34.7 116,34.7 		"/>
		<path class="st0" d="M137.6,47.9c-0.1,1.3-0.2,2.5-0.2,3.6c0,0.8,0,1.6-0.1,2.3l-5.6-19.2h-5.4l-2.4,35.8h6l0.7-10.8
			c0.1-1.8,0.2-3.3,0.3-4.5c0-1.3,0.1-2.4,0.1-3.4c0-0.1,0-0.1,0-0.2l5.7,18.9h5.4l2.4-35.8h-6L137.6,47.9z"/>
		<path class="st0" d="M159,47.1h5.4l0.1-0.5c0.2-0.8,0.4-1.5,0.5-2.1c0.1-0.7,0.2-1.4,0.3-2.1c0.1-1.1,0-2.1-0.2-3
			c-0.2-1-0.6-1.9-1.3-2.6c-0.6-0.7-1.4-1.3-2.5-1.7c-1.4-0.6-3.2-0.8-5.6-0.5c-0.7,0.1-1.4,0.3-2.2,0.6c-0.7,0.3-1.5,0.7-2.2,1.2
			c-0.7,0.5-1.4,1.3-1.9,2.2c-0.6,0.9-1,2-1.4,3.3c-0.4,1.3-0.6,2.8-0.8,4.6l-0.8,12.2c-0.1,1.8-0.1,3.3,0.1,4.6
			c0.2,1.3,0.5,2.4,0.9,3.3c0.4,0.9,0.9,1.7,1.5,2.2c0.6,0.6,1.1,1,1.8,1.3c0.6,0.3,1.2,0.5,1.8,0.6c0.6,0.1,1.1,0.1,1.5,0.1
			c1.3,0,2.5-0.3,3.5-0.9c0.6-0.4,1.1-0.8,1.6-1.5l0.2,2.1h4.7l1.3-18.8h-9.1l-0.3,4.8h2.7l-0.3,3.8c-0.1,0.8-0.2,1.5-0.3,2.2
			c-0.2,0.6-0.4,1.2-0.6,1.7c-0.3,0.4-0.5,0.8-0.9,1c-0.6,0.4-1.7,0.4-2.2,0.1c-0.3-0.1-0.5-0.3-0.6-0.7c-0.2-0.4-0.3-0.9-0.4-1.5
			c-0.1-0.7-0.1-1.5,0-2.6l1.1-15.6c0.1-1.1,0.2-1.9,0.4-2.6c0.2-0.7,0.4-1.2,0.6-1.6c0.2-0.3,0.5-0.6,0.8-0.7
			c0.3-0.1,0.7-0.2,1.2-0.2c0.6,0,2.4,0,2,5L159,47.1z"/>
		<path class="st0" d="M184.9,36.9c-0.6-0.8-1.5-1.4-2.5-1.9c-1.1-0.5-2.4-0.7-4-0.7c-1.3,0-2.6,0.2-3.6,0.6c-1.1,0.4-2.1,1-2.9,1.8
			c-0.8,0.8-1.4,1.7-1.9,2.7c-0.5,1-0.7,2.2-0.8,3.4c-0.1,1.5,0.1,2.9,0.5,4.3c0.5,1.3,1.2,2.6,2.1,3.9l5,6.5c0.4,0.6,0.8,1.1,1,1.6
			c0.3,0.5,0.5,0.9,0.6,1.3c0.1,0.4,0.2,0.8,0.3,1.2c0,0.4,0,0.9,0,1.4c-0.1,0.9-0.3,1.5-0.7,1.9c-0.4,0.4-1,0.6-1.8,0.6
			c-0.5,0-0.9-0.1-1.2-0.3c-0.3-0.2-0.6-0.5-0.7-0.8c-0.2-0.4-0.3-1-0.4-1.6c-0.1-0.7-0.1-1.5,0-2.4l0.2-2.3h-5.3l-0.2,0.5
			c-0.2,0.7-0.4,1.4-0.5,2.1c-0.1,0.6-0.2,1.4-0.3,2.1c-0.1,1,0,1.9,0.2,2.9c0.2,1,0.6,1.8,1.3,2.6c0.6,0.8,1.5,1.4,2.6,1.8
			c1.1,0.4,2.5,0.7,4.1,0.7c1.3,0,2.6-0.2,3.7-0.6c1.1-0.4,2.1-1,2.9-1.7c0.8-0.8,1.5-1.7,2-2.7c0.5-1.1,0.8-2.2,0.9-3.6
			c0.1-1.6-0.1-3.1-0.6-4.5c-0.5-1.4-1.3-2.8-2.3-4.3l-5.6-7.3c-0.2-0.3-0.4-0.6-0.6-0.9c-0.2-0.3-0.3-0.6-0.4-0.9
			c-0.1-0.3-0.2-0.6-0.2-0.9c0-0.3,0-0.7,0-1.2c0.1-0.8,0.3-1.3,0.7-1.7c0.4-0.4,0.9-0.6,1.7-0.6c0.9,0,1.5,0.4,1.9,1.1
			c0.4,0.9,0.6,2.2,0.4,3.9l-0.2,2.3h5.3l0.1-0.5c0.2-0.8,0.4-1.4,0.5-2.1c0.2-0.7,0.3-1.4,0.3-2.2c0.1-0.9,0-1.9-0.2-2.8
			C185.9,38.6,185.5,37.7,184.9,36.9z"/>
		<path class="st0" d="M206.5,38.4c-0.4-0.9-1-1.6-1.6-2.2c-0.6-0.5-1.3-0.9-1.9-1.2c-0.7-0.3-1.3-0.4-2-0.5c-1.3-0.2-2.3-0.2-3.6,0
			c-0.7,0.1-1.4,0.3-2.1,0.6c-0.7,0.3-1.4,0.7-2.1,1.3c-0.7,0.5-1.3,1.3-1.9,2.2c-0.5,0.9-1,2-1.4,3.3c-0.4,1.3-0.6,2.8-0.7,4.6
			l-0.8,12.2c-0.1,1.8-0.1,3.3,0.1,4.6c0.2,1.3,0.5,2.4,0.9,3.3c0.4,0.9,0.9,1.7,1.5,2.2c0.6,0.6,1.2,1,1.9,1.3
			c0.7,0.3,1.4,0.5,2.1,0.6c0.7,0.1,1.3,0.1,1.9,0.1c0.5,0,1.1-0.1,1.8-0.1c0.7-0.1,1.4-0.3,2.1-0.6c0.7-0.3,1.4-0.8,2.1-1.3
			c0.7-0.6,1.3-1.3,1.9-2.2c0.5-0.9,1-2,1.4-3.3c0.4-1.3,0.6-2.8,0.8-4.6l0.8-12.2c0.1-1.8,0.1-3.4-0.1-4.7
			C207.2,40.4,206.9,39.3,206.5,38.4z M200.8,44.9l-1.1,15.7c-0.1,1-0.2,1.9-0.4,2.6c-0.2,0.6-0.4,1.1-0.6,1.5
			c-0.2,0.3-0.4,0.5-0.7,0.6c-0.6,0.3-1.6,0.3-2.2,0c-0.3-0.1-0.5-0.3-0.6-0.6c-0.2-0.4-0.3-0.9-0.4-1.5c-0.1-0.7-0.1-1.5,0-2.5
			l1.1-15.7c0.1-1.1,0.2-2,0.4-2.6c0.2-0.7,0.4-1.2,0.6-1.6c0.2-0.3,0.4-0.6,0.7-0.7c0.3-0.1,0.7-0.2,1.1-0.2c0.4,0,0.8,0.1,1,0.2
			c0.2,0.1,0.4,0.3,0.6,0.7c0.2,0.4,0.3,0.9,0.4,1.6C200.9,43,200.9,43.9,200.8,44.9z"/>
		<path class="st0" d="M228.4,38.4c-0.4-0.9-1-1.6-1.6-2.2c-0.6-0.5-1.3-0.9-1.9-1.2c-0.7-0.3-1.3-0.4-2-0.5c-1.3-0.2-2.3-0.2-3.6,0
			c-0.7,0.1-1.4,0.3-2.1,0.6c-0.7,0.3-1.4,0.7-2.1,1.3c-0.7,0.5-1.3,1.3-1.9,2.2c-0.5,0.9-1,2-1.4,3.3c-0.4,1.3-0.6,2.8-0.7,4.6
			l-0.8,12.2c-0.1,1.8-0.1,3.3,0.1,4.6c0.2,1.3,0.5,2.4,0.9,3.3c0.4,0.9,0.9,1.7,1.5,2.2c0.6,0.6,1.2,1,1.9,1.3
			c0.7,0.3,1.4,0.5,2.1,0.6c0.7,0.1,1.3,0.1,1.9,0.1c0.5,0,1.1-0.1,1.8-0.1c0.7-0.1,1.4-0.3,2.1-0.6c0.7-0.3,1.4-0.8,2.1-1.3
			c0.7-0.6,1.3-1.3,1.9-2.2c0.5-0.9,1-2,1.4-3.3c0.4-1.3,0.6-2.8,0.8-4.6l0.8-12.2c0.1-1.8,0.1-3.4-0.1-4.7
			C229.2,40.4,228.9,39.3,228.4,38.4z M222.8,44.9l-1.1,15.7c-0.1,1-0.2,1.9-0.4,2.6c-0.2,0.6-0.4,1.1-0.6,1.5
			c-0.2,0.3-0.4,0.5-0.7,0.6c-0.6,0.3-1.6,0.3-2.2,0c-0.3-0.1-0.5-0.3-0.6-0.6c-0.2-0.4-0.3-0.9-0.4-1.5c-0.1-0.7-0.1-1.5,0-2.5
			l1.1-15.7c0.1-1.1,0.2-2,0.4-2.6c0.2-0.7,0.4-1.2,0.6-1.6c0.2-0.3,0.4-0.6,0.7-0.7c0.3-0.1,0.7-0.2,1.1-0.2c0.4,0,0.8,0.1,1,0.2
			c0.2,0.1,0.4,0.3,0.6,0.7c0.2,0.4,0.3,0.9,0.4,1.6C222.8,43,222.8,43.9,222.8,44.9z"/>
		<path class="st0" d="M246,34.7l-0.9,13.2c-0.1,1.3-0.2,2.5-0.2,3.6c0,0.8,0,1.6-0.1,2.3l-5.6-19.2h-5.4l-2.4,35.8h6l0.7-10.8
			c0.1-1.8,0.2-3.3,0.3-4.5c0-1.3,0.1-2.4,0.1-3.4c0-0.1,0-0.1,0-0.2l5.7,18.9h5.4l2.4-35.8H246z"/>
		<path class="st0" d="M255.8,48.1c-0.5,0-1,0.2-1.3,0.5c-0.3,0.4-0.5,0.9-0.6,1.7c0,0.7,0.1,1.2,0.4,1.6c0.3,0.4,0.7,0.6,1.3,0.6
			c0.6,0,1-0.2,1.4-0.6c0.3-0.4,0.5-0.9,0.6-1.6c0-0.7-0.1-1.3-0.4-1.6C256.8,48.3,256.4,48.1,255.8,48.1z"/>
		<path class="st0" d="M267.2,41.2c0,0.7-0.1,1.3-0.1,1.8c0,0.5,0,1,0,1.5c0,0.3,0,0.6,0,0.8L264,34.7h-2.5l-1.2,17.8h2.7l0.4-5.3
			c0.1-0.9,0.1-1.7,0.1-2.3c0-0.6,0-1.2,0-1.7c0-0.4,0-0.8,0-1.2l3.2,10.5h2.5l1.2-17.8h-2.8L267.2,41.2z"/>
		<polygon class="st0" points="270.7,52.5 277.7,52.5 277.9,50 273.9,50 274.3,44.5 277.3,44.5 277.4,42 274.5,42 274.8,37.1 
			278.6,37.1 278.8,34.7 271.9,34.7 		"/>
		<polygon class="st0" points="280,34.7 279.8,37.1 282.6,37.1 281.6,52.5 284.6,52.5 285.6,37.1 288.4,37.1 288.6,34.7 		"/>
		<g>
			<path class="st0" d="M39.5,24.9c2.2-1.5,4.5-2.7,7-3.7l-1.4-4.2c-2.9,1.1-5.6,2.5-8.2,4.3L39.5,24.9z"/>
			<path class="st0" d="M45.4,86.9l1.4-4.1c-2.6-1-5.1-2.3-7.4-3.8l-2.7,3.5C39.4,84.3,42.3,85.8,45.4,86.9z"/>
			<path class="st0" d="M31.3,70.8c-1.4-2.1-2.7-4.3-3.6-6.7l-4.2,1.4c1.1,2.8,2.5,5.4,4.2,7.8L31.3,70.8z"/>
			<path class="st0" d="M26.9,62c-0.8-2.6-1.3-5.4-1.5-8.2H21c0.2,3.3,0.7,6.6,1.7,9.6L26.9,62z"/>
			<path class="st0" d="M23.1,39.6l4.1,1.4c1-2.8,2.3-5.4,3.9-7.7l-3.5-2.7C25.7,33.4,24.2,36.4,23.1,39.6z"/>
			<path class="st0" d="M71.4,17.2L70,21.3c2.8,1.1,5.3,2.5,7.7,4.2l2.7-3.5C77.7,20,74.7,18.4,71.4,17.2z"/>
			<path class="st0" d="M48.6,20.5c2.7-0.8,5.6-1.3,8.5-1.4v-4.4c-3.4,0.1-6.8,0.6-9.9,1.6L48.6,20.5z"/>
			<path class="st0" d="M59.3,19.1c3,0.1,5.9,0.6,8.7,1.4l1.4-4.1c-3.2-1-6.6-1.6-10.1-1.7V19.1z"/>
			<path class="st0" d="M25.3,51.6c0-2.9,0.5-5.8,1.2-8.5l-4.2-1.4c-0.9,3.2-1.4,6.5-1.4,9.9H25.3z"/>
			<path class="st0" d="M57.1,84.8c-2.8-0.1-5.6-0.5-8.2-1.3l-1.4,4.2c3.1,0.9,6.3,1.4,9.6,1.5V84.8z"/>
			<path class="st0" d="M32.5,31.5c1.6-2,3.3-3.8,5.3-5.3l-2.6-3.6c-2.3,1.8-4.4,3.9-6.2,6.2L32.5,31.5z"/>
			<path class="st0" d="M83.2,73.3c-1.6,1.8-3.3,3.5-5.3,4.9l2.6,3.6c2.3-1.7,4.4-3.6,6.2-5.8L83.2,73.3z"/>
			<path class="st0" d="M37.7,77.6c-1.9-1.5-3.6-3.2-5.1-5.1L29,75.1c1.8,2.2,3.8,4.2,6,6L37.7,77.6z"/>
			<path class="st0" d="M79.4,26.9c1.9,1.6,3.6,3.5,5.1,5.5l3.6-2.6c-1.7-2.4-3.7-4.5-6-6.4L79.4,26.9z"/>
			<path class="st0" d="M76.1,79.5c-2.1,1.4-4.3,2.5-6.7,3.3l1.4,4.2c2.8-1,5.4-2.3,7.9-3.9L76.1,79.5z"/>
			<path class="st0" d="M67.3,83.5c-2.6,0.7-5.3,1.2-8.1,1.3v4.4c3.3-0.1,6.4-0.6,9.4-1.5L67.3,83.5z"/>
		</g>
	</g>
</g>
</svg>
