<?xml version="1.0" encoding="utf-8"?>
<!-- Generator: Adobe Illustrator 25.2.1, SVG Export Plug-In . SVG Version: 6.00 Build 0)  -->
<svg version="1.1" id="_x30_7_-_MOBILE_SPECS" xmlns="http://www.w3.org/2000/svg" xmlns:xlink="http://www.w3.org/1999/xlink"
	 x="0px" y="0px" viewBox="0 0 265.9 74.5" style="enable-background:new 0 0 265.9 74.5;" xml:space="preserve">
<style type="text/css">
	.st0{fill:#020101;}
	.st1{fill:#E3E317;}
</style>
<g>
	<g>
		<path class="st0" d="M38.2,22c-0.6-0.7-1.4-1.3-2.4-1.8c-1.3-0.6-3.1-0.8-5.5-0.5c-0.7,0.1-1.4,0.3-2.1,0.6
			c-0.7,0.3-1.4,0.7-2.1,1.3c-0.7,0.5-1.3,1.3-1.8,2.2s-1,2-1.4,3.3s-0.6,2.8-0.7,4.6l-0.8,12.2c-0.1,1.8-0.1,3.3,0.1,4.6
			c0.2,1.3,0.5,2.4,0.9,3.3s0.9,1.7,1.5,2.2c0.6,0.6,1.2,1,1.9,1.3s1.3,0.5,2,0.6c0.6,0.1,1.3,0.1,1.8,0.1l0,0l0,0
			c2.5,0,4.6-0.8,6.1-2.2c1.5-1.4,2.3-3.7,2.5-6.6l0.3-3.9h-6.1l-0.3,4c0,0.6-0.1,1.2-0.3,1.6c-0.1,0.4-0.3,0.8-0.5,1
			s-0.4,0.4-0.6,0.5c-0.6,0.3-1.3,0.2-1.7,0c-0.2-0.1-0.4-0.3-0.6-0.6c-0.2-0.4-0.3-0.9-0.3-1.5c-0.1-0.7,0-1.5,0-2.6L29.2,30
			c0.1-1.1,0.2-2,0.4-2.6c0.2-0.7,0.4-1.2,0.6-1.6c0.2-0.3,0.4-0.6,0.7-0.7c0.3-0.1,0.6-0.2,1-0.2c0.3,0,0.8,0.1,1.1,1
			s0.4,2.2,0.3,4l-0.2,2.4h5.5l0.1-0.5c0.2-0.8,0.4-1.5,0.5-2.1s0.2-1.4,0.3-2.1c0.1-1,0-2.1-0.2-3C39.1,23.7,38.7,22.8,38.2,22z"/>
		<path class="st0" d="M59.6,23.7c-0.4-0.9-1-1.6-1.6-2.2c-0.6-0.5-1.3-0.9-1.9-1.2c-0.7-0.3-1.3-0.4-2-0.5c-1.3-0.2-2.3-0.2-3.6,0
			c-0.7,0.1-1.4,0.3-2.1,0.6s-1.4,0.7-2.1,1.3c-0.7,0.5-1.3,1.3-1.9,2.2c-0.5,0.9-1,2-1.4,3.3s-0.6,2.8-0.7,4.6L41.5,44
			c-0.1,1.8-0.1,3.3,0.1,4.6c0.2,1.3,0.5,2.4,0.9,3.3s0.9,1.7,1.5,2.2c0.6,0.6,1.2,1,1.9,1.3c0.7,0.3,1.4,0.5,2.1,0.6
			s1.3,0.1,1.9,0.1c0.5,0,1.1-0.1,1.8-0.1c0.7-0.1,1.4-0.3,2.1-0.6c0.7-0.3,1.4-0.8,2.1-1.3c0.7-0.6,1.3-1.3,1.9-2.2
			c0.5-0.9,1-2,1.4-3.3s0.6-2.8,0.8-4.6l0.8-12.2c0.1-1.8,0.1-3.4-0.1-4.7C60.3,25.7,60,24.6,59.6,23.7z M53.9,30.2l-1.1,15.7
			c-0.1,1-0.2,1.9-0.4,2.6c-0.2,0.6-0.4,1.1-0.6,1.5c-0.2,0.3-0.4,0.5-0.7,0.6c-0.6,0.3-1.6,0.3-2.2,0c-0.3-0.1-0.5-0.3-0.6-0.6
			c-0.2-0.4-0.3-0.9-0.4-1.5c-0.1-0.7-0.1-1.5,0-2.5L49,30.3c0.1-1.1,0.2-2,0.4-2.6c0.2-0.7,0.4-1.2,0.6-1.6
			c0.2-0.3,0.4-0.6,0.7-0.7c0.3-0.1,0.7-0.2,1.1-0.2s0.8,0.1,1,0.2c0.2,0.1,0.4,0.3,0.6,0.7s0.3,0.9,0.4,1.6
			C54,28.3,54,29.2,53.9,30.2z"/>
		<path class="st0" d="M77.2,33.8c-0.5,1.5-0.8,2.9-1.1,4.3c-0.1-1.4-0.3-2.8-0.5-4.3L73.1,20h-8l-2.4,35.8h6.2l0.8-12.1
			c0.1-1.8,0.2-3.4,0.3-5.1c0.1-1.6,0.1-3.1,0.2-4.5c0-0.1,0-0.2,0-0.3L73,51.3h4.4l5.2-17.4c0,0.1,0,0.1,0,0.2
			c-0.1,1.4-0.3,2.8-0.4,4.5c-0.1,1.6-0.3,3.3-0.4,5.1L81,55.8h6.2L89.6,20h-7.9L77.2,33.8z"/>
		<polygon class="st0" points="90.8,55.8 97.4,55.8 99.8,20 93.3,20 		"/>
		<path class="st0" d="M114.9,33.2c-0.1,1.3-0.2,2.5-0.2,3.6c0,0.8,0,1.6-0.1,2.3L109,19.9h-5.4l-2.4,35.8h6l0.7-10.8
			c0.1-1.8,0.2-3.3,0.3-4.5c0-1.3,0.1-2.4,0.1-3.4c0-0.1,0-0.1,0-0.2l5.7,18.9h5.4l2.4-35.8h-6L114.9,33.2z"/>
		<path class="st0" d="M136.3,32.4h5.4l0.1-0.5c0.2-0.8,0.4-1.5,0.5-2.1c0.1-0.7,0.2-1.4,0.3-2.1c0.1-1.1,0-2.1-0.2-3
			c-0.2-1-0.6-1.9-1.3-2.6c-0.6-0.7-1.4-1.3-2.5-1.7c-1.4-0.6-3.2-0.8-5.6-0.5c-0.7,0.1-1.4,0.3-2.2,0.6c-0.7,0.3-1.5,0.7-2.2,1.2
			s-1.4,1.3-1.9,2.2c-0.6,0.9-1,2-1.4,3.3s-0.6,2.8-0.8,4.6L123.7,44c-0.1,1.8-0.1,3.3,0.1,4.6c0.2,1.3,0.5,2.4,0.9,3.3
			s0.9,1.7,1.5,2.2c0.6,0.6,1.1,1,1.8,1.3c0.6,0.3,1.2,0.5,1.8,0.6s1.1,0.1,1.5,0.1c1.3,0,2.5-0.3,3.5-0.9c0.6-0.4,1.1-0.8,1.6-1.5
			l0.2,2.1h4.7l1.3-18.8h-9.1l-0.3,4.8h2.7l-0.3,3.8c-0.1,0.8-0.2,1.5-0.3,2.2c-0.2,0.6-0.4,1.2-0.6,1.7c-0.3,0.4-0.5,0.8-0.9,1
			c-0.6,0.4-1.7,0.4-2.2,0.1c-0.3-0.1-0.5-0.3-0.6-0.7c-0.2-0.4-0.3-0.9-0.4-1.5c-0.1-0.7-0.1-1.5,0-2.6l1.1-15.6
			c0.1-1.1,0.2-1.9,0.4-2.6c0.2-0.7,0.4-1.2,0.6-1.6c0.2-0.3,0.5-0.6,0.8-0.7c0.3-0.1,0.7-0.2,1.2-0.2c0.6,0,2.4,0,2,5L136.3,32.4z"
			/>
		<path class="st0" d="M162.2,22.2c-0.6-0.8-1.5-1.4-2.5-1.9c-1.1-0.5-2.4-0.7-4-0.7c-1.3,0-2.6,0.2-3.6,0.6c-1.1,0.4-2.1,1-2.9,1.8
			c-0.8,0.8-1.4,1.7-1.9,2.7s-0.7,2.2-0.8,3.4c-0.1,1.5,0.1,2.9,0.5,4.3c0.5,1.3,1.2,2.6,2.1,3.9l5,6.5c0.4,0.6,0.8,1.1,1,1.6
			c0.3,0.5,0.5,0.9,0.6,1.3c0.1,0.4,0.2,0.8,0.3,1.2c0,0.4,0,0.9,0,1.4c-0.1,0.9-0.3,1.5-0.7,1.9s-1,0.6-1.8,0.6
			c-0.5,0-0.9-0.1-1.2-0.3c-0.3-0.2-0.6-0.5-0.7-0.8c-0.2-0.4-0.3-1-0.4-1.6c-0.1-0.7-0.1-1.5,0-2.4l0.2-2.3h-5.3l-0.2,0.5
			c-0.2,0.7-0.4,1.4-0.5,2.1c-0.1,0.6-0.2,1.4-0.3,2.1c-0.1,1,0,1.9,0.2,2.9s0.6,1.8,1.3,2.6c0.6,0.8,1.5,1.4,2.6,1.8
			s2.5,0.7,4.1,0.7c1.3,0,2.6-0.2,3.7-0.6c1.1-0.4,2.1-1,2.9-1.7c0.8-0.8,1.5-1.7,2-2.7c0.5-1.1,0.8-2.2,0.9-3.6
			c0.1-1.6-0.1-3.1-0.6-4.5s-1.3-2.8-2.3-4.3l-5.6-7.3c-0.2-0.3-0.4-0.6-0.6-0.9c-0.2-0.3-0.3-0.6-0.4-0.9c-0.1-0.3-0.2-0.6-0.2-0.9
			c0-0.3,0-0.7,0-1.2c0.1-0.8,0.3-1.3,0.7-1.7s0.9-0.6,1.7-0.6c0.9,0,1.5,0.4,1.9,1.1c0.4,0.9,0.6,2.2,0.4,3.9l-0.2,2.3h5.3L163,32
			c0.2-0.8,0.4-1.4,0.5-2.1c0.2-0.7,0.3-1.4,0.3-2.2c0.1-0.9,0-1.9-0.2-2.8C163.2,23.9,162.8,23,162.2,22.2z"/>
		<path class="st0" d="M183.8,23.7c-0.4-0.9-1-1.6-1.6-2.2c-0.6-0.5-1.3-0.9-1.9-1.2c-0.7-0.3-1.3-0.4-2-0.5c-1.3-0.2-2.3-0.2-3.6,0
			c-0.7,0.1-1.4,0.3-2.1,0.6c-0.7,0.3-1.4,0.7-2.1,1.3c-0.7,0.5-1.3,1.3-1.9,2.2c-0.5,0.9-1,2-1.4,3.3s-0.6,2.8-0.7,4.6L165.7,44
			c-0.1,1.8-0.1,3.3,0.1,4.6c0.2,1.3,0.5,2.4,0.9,3.3s0.9,1.7,1.5,2.2c0.6,0.6,1.2,1,1.9,1.3s1.4,0.5,2.1,0.6
			c0.7,0.1,1.3,0.1,1.9,0.1c0.5,0,1.1-0.1,1.8-0.1c0.7-0.1,1.4-0.3,2.1-0.6c0.7-0.3,1.4-0.8,2.1-1.3c0.7-0.6,1.3-1.3,1.9-2.2
			c0.5-0.9,1-2,1.4-3.3s0.6-2.8,0.8-4.6l0.8-12.2c0.1-1.8,0.1-3.4-0.1-4.7C184.5,25.7,184.2,24.6,183.8,23.7z M178.1,30.2L177,45.9
			c-0.1,1-0.2,1.9-0.4,2.6c-0.2,0.6-0.4,1.1-0.6,1.5c-0.2,0.3-0.4,0.5-0.7,0.6c-0.6,0.3-1.6,0.3-2.2,0c-0.3-0.1-0.5-0.3-0.6-0.6
			c-0.2-0.4-0.3-0.9-0.4-1.5c-0.1-0.7-0.1-1.5,0-2.5l1.1-15.7c0.1-1.1,0.2-2,0.4-2.6c0.2-0.7,0.4-1.2,0.6-1.6
			c0.2-0.3,0.4-0.6,0.7-0.7c0.3-0.1,0.7-0.2,1.1-0.2c0.4,0,0.8,0.1,1,0.2c0.2,0.1,0.4,0.3,0.6,0.7c0.2,0.4,0.3,0.9,0.4,1.6
			C178.2,28.3,178.2,29.2,178.1,30.2z"/>
		<path class="st0" d="M205.7,23.7c-0.4-0.9-1-1.6-1.6-2.2c-0.6-0.5-1.3-0.9-1.9-1.2c-0.7-0.3-1.3-0.4-2-0.5c-1.3-0.2-2.3-0.2-3.6,0
			c-0.7,0.1-1.4,0.3-2.1,0.6c-0.7,0.3-1.4,0.7-2.1,1.3c-0.7,0.5-1.3,1.3-1.9,2.2c-0.5,0.9-1,2-1.4,3.3s-0.6,2.8-0.7,4.6L187.6,44
			c-0.1,1.8-0.1,3.3,0.1,4.6c0.2,1.3,0.5,2.4,0.9,3.3s0.9,1.7,1.5,2.2c0.6,0.6,1.2,1,1.9,1.3s1.4,0.5,2.1,0.6
			c0.7,0.1,1.3,0.1,1.9,0.1c0.5,0,1.1-0.1,1.8-0.1c0.7-0.1,1.4-0.3,2.1-0.6c0.7-0.3,1.4-0.8,2.1-1.3c0.7-0.6,1.3-1.3,1.9-2.2
			c0.5-0.9,1-2,1.4-3.3s0.6-2.8,0.8-4.6l0.8-12.2c0.1-1.8,0.1-3.4-0.1-4.7C206.5,25.7,206.2,24.6,205.7,23.7z M200.1,30.2L199,45.9
			c-0.1,1-0.2,1.9-0.4,2.6c-0.2,0.6-0.4,1.1-0.6,1.5c-0.2,0.3-0.4,0.5-0.7,0.6c-0.6,0.3-1.6,0.3-2.2,0c-0.3-0.1-0.5-0.3-0.6-0.6
			c-0.2-0.4-0.3-0.9-0.4-1.5c-0.1-0.7-0.1-1.5,0-2.5l1.1-15.7c0.1-1.1,0.2-2,0.4-2.6c0.2-0.7,0.4-1.2,0.6-1.6
			c0.2-0.3,0.4-0.6,0.7-0.7c0.3-0.1,0.7-0.2,1.1-0.2c0.4,0,0.8,0.1,1,0.2c0.2,0.1,0.4,0.3,0.6,0.7c0.2,0.4,0.3,0.9,0.4,1.6
			C200.1,28.3,200.1,29.2,200.1,30.2z"/>
		<path class="st0" d="M223.3,20l-0.9,13.2c-0.1,1.3-0.2,2.5-0.2,3.6c0,0.8,0,1.6-0.1,2.3l-5.6-19.2h-5.4l-2.4,35.8h6l0.7-10.8
			c0.1-1.8,0.2-3.3,0.3-4.5c0-1.3,0.1-2.4,0.1-3.4c0-0.1,0-0.1,0-0.2l5.7,18.9h5.4l2.4-35.8h-6V20z"/>
		<path class="st0" d="M233.1,33.4c-0.5,0-1,0.2-1.3,0.5c-0.3,0.4-0.5,0.9-0.6,1.7c0,0.7,0.1,1.2,0.4,1.6c0.3,0.4,0.7,0.6,1.3,0.6
			c0.6,0,1-0.2,1.4-0.6c0.3-0.4,0.5-0.9,0.6-1.6c0-0.7-0.1-1.3-0.4-1.6C234.1,33.6,233.7,33.4,233.1,33.4z"/>
		<path class="st0" d="M244.5,26.5c0,0.7-0.1,1.3-0.1,1.8s0,1,0,1.5c0,0.3,0,0.6,0,0.8L241.3,20h-2.5l-1.2,17.8h2.7l0.4-5.3
			c0.1-0.9,0.1-1.7,0.1-2.3s0-1.2,0-1.7c0-0.4,0-0.8,0-1.2l3.2,10.5h2.5l1.2-17.8h-2.8L244.5,26.5z"/>
		<polygon class="st0" points="248,37.8 255,37.8 255.2,35.3 251.2,35.3 251.6,29.8 254.6,29.8 254.7,27.3 251.8,27.3 252.1,22.4 
			255.9,22.4 256.1,20 249.2,20 		"/>
		<polygon class="st0" points="257.3,20 257.1,22.4 259.9,22.4 258.9,37.8 261.9,37.8 262.9,22.4 265.7,22.4 265.9,20 		"/>
		<g>
			<path class="st1" d="M16.8,10.2c2.2-1.5,4.5-2.7,7-3.7l-1.4-4.2c-2.9,1.1-5.6,2.5-8.2,4.3L16.8,10.2z"/>
			<path class="st1" d="M22.7,72.2l1.4-4.1c-2.6-1-5.1-2.3-7.4-3.8L14,67.8C16.7,69.6,19.6,71.1,22.7,72.2z"/>
			<path class="st1" d="M8.6,56.1C7.2,54,5.9,51.8,5,49.4l-4.2,1.4c1.1,2.8,2.5,5.4,4.2,7.8L8.6,56.1z"/>
			<path class="st1" d="M4.2,47.3c-0.8-2.6-1.3-5.4-1.5-8.2h-4.4c0.2,3.3,0.7,6.6,1.7,9.6L4.2,47.3z"/>
			<path class="st1" d="M0.4,24.9l4.1,1.4c1-2.8,2.3-5.4,3.9-7.7l-3.5-2.7C3,18.7,1.5,21.7,0.4,24.9z"/>
			<path class="st1" d="M48.7,2.5l-1.4,4.1c2.8,1.1,5.3,2.5,7.7,4.2l2.7-3.5C55,5.3,52,3.7,48.7,2.5z"/>
			<path class="st1" d="M25.9,5.8c2.7-0.8,5.6-1.3,8.5-1.4V0c-3.4,0.1-6.8,0.6-9.9,1.6L25.9,5.8z"/>
			<path class="st1" d="M36.6,4.4c3,0.1,5.9,0.6,8.7,1.4l1.4-4.1c-3.2-1-6.6-1.6-10.1-1.7C36.6,0,36.6,4.4,36.6,4.4z"/>
			<path class="st1" d="M2.6,36.9c0-2.9,0.5-5.8,1.2-8.5L-0.4,27c-0.9,3.2-1.4,6.5-1.4,9.9H2.6z"/>
			<path class="st1" d="M34.4,70.1c-2.8-0.1-5.6-0.5-8.2-1.3L24.8,73c3.1,0.9,6.3,1.4,9.6,1.5V70.1z"/>
			<path class="st1" d="M9.8,16.8c1.6-2,3.3-3.8,5.3-5.3l-2.6-3.6c-2.3,1.8-4.4,3.9-6.2,6.2L9.8,16.8z"/>
			<path class="st1" d="M60.5,58.6c-1.6,1.8-3.3,3.5-5.3,4.9l2.6,3.6c2.3-1.7,4.4-3.6,6.2-5.8L60.5,58.6z"/>
			<path class="st1" d="M15,62.9c-1.9-1.5-3.6-3.2-5.1-5.1l-3.6,2.6c1.8,2.2,3.8,4.2,6,6L15,62.9z"/>
			<path class="st1" d="M56.7,12.2c1.9,1.6,3.6,3.5,5.1,5.5l3.6-2.6c-1.7-2.4-3.7-4.5-6-6.4L56.7,12.2z"/>
			<path class="st1" d="M53.4,64.8c-2.1,1.4-4.3,2.5-6.7,3.3l1.4,4.2c2.8-1,5.4-2.3,7.9-3.9L53.4,64.8z"/>
			<path class="st1" d="M44.6,68.8c-2.6,0.7-5.3,1.2-8.1,1.3v4.4c3.3-0.1,6.4-0.6,9.4-1.5L44.6,68.8z"/>
		</g>
	</g>
</g>
</svg>
