<?xml version="1.0" encoding="utf-8"?>
<!-- Generator: Adobe Illustrator 25.2.1, SVG Export Plug-In . SVG Version: 6.00 Build 0)  -->
<svg version="1.1" id="LOGO" xmlns="http://www.w3.org/2000/svg" xmlns:xlink="http://www.w3.org/1999/xlink" x="0px" y="0px"
	 viewBox="0 0 576 252" style="enable-background:new 0 0 576 252;" xml:space="preserve">
<style type="text/css">
	.st0{opacity:0.48;}
	.st1{clip-path:url(#SVGID_2_);fill:#A61C20;}
	.st2{clip-path:url(#SVGID_4_);fill:url(#SVGID_5_);}
	.st3{clip-path:url(#SVGID_7_);fill:url(#SVGID_8_);}
	.st4{clip-path:url(#SVGID_10_);fill:url(#SVGID_11_);}
	.st5{clip-path:url(#SVGID_13_);fill:url(#SVGID_14_);}
	.st6{fill:#A61C20;}
</style>
<symbol  id="dogtime_x5F_logo_x5F_hero_x5F_primarycolor_x5F_light_x5F_bg" viewBox="-266.9 -108.8 533.7 217.5">
	<g>
		<path class="st0" d="M122.7,87.6c-39.1,26-71.3-24.1-80-20.7c-12,4.7-23.5,7.4-23.5,7.4c0,12-5,16.6-10.6,15.5l1.9-15
			c0,0-2.6,14.6-13.1,11l6.1-14.6c0,0-7.2-2.9-6.3-7.5c0.9-4.6-11.2-14.4-11.2-14.4s4.6-3.7,7.5-3.5c2,0.2,10.5,9.8,11.9,10.9
			c1.4,1.2,3.6-0.8,1.9-3.1C5.7,51.2-0.7,44-1.6,43c0,0,3-1.6,4.2-0.7c1.2,0.9,13,13.2,15.4,13.6c8.7,1.2,8.8-9.2,16.1-15.9
			c-10-8.7-34.5-17.1-37.4-17c-3.1,0.2-5-0.8-6.4-3.1c-1.1-1.9,0.3-3.1,0.3-3.1c1.1-0.9,3.2-1.2,7.3,0.2c4,1.4,27.7,8.3,42.9,18.1
			l3.2-1.4c-9.3-9-33-18.4-35.4-18.5c-3.1-0.2-5.3-0.9-6.1-3.5C1.7,9.3,4,8.6,4,8.6c1.7-0.4,3.2-0.5,7.1,1.3
			c5.8,2.7,17.2,5,42.9,20.9c18.2,3.9,24.7,16.4,33.4,33.7c1.5-14,11.5-23.2,14.1-25.8c5.4-5.4,6.3-24.7,3.3-24.6
			c-3.2,0.1-5.1-3.2-4.1-5.1c1-1.9,6.7-1.3,6.7-1.3c5.8-0.1,6.1,21.9,4.7,31.3c-0.2,1.5-3.7,1.5-7.2,14.1c4-7.7,13.1-12.4,18.6-15.8
			c6.5-4,8.8-24,5.8-23.8c-3.5,0.2-5-3.9-3.6-5.5c1.4-1.6,6.5-0.7,6.5-0.7c8.3,0.8,1.9,33,1.1,33.7c-7.4,6.9-12.1,15-11.9,26.7
			c0.1,7.6-1.8,13-1.8,13c26.4-14.7,42.3,4.2,43.6,25.4C164.2,121.4,158.7,63.7,122.7,87.6z M2.4,63c-0.5,0.3-1.6,2-0.9,2.9
			c0,0,1.6,0.6,3.2,0.6c0.7,0,1.5-0.1,2-0.5L2.4,63z"/>
		<g>
			<defs>
				<path id="SVGID_1_" d="M157.8,95.2c-5.5-10.1-16-20.3-35.1-7.6c-22.9,15.3-43.5,4.3-58.4-6.7c-10.4-7.7-18-15.4-21.6-14
					c-12,4.7-23.5,7.4-23.5,7.4c0,12-5,16.6-10.6,15.5l1.9-15c0,0-2.6,14.6-13.1,11l6.1-14.6c0,0-7.2-2.9-6.3-7.5
					c0.9-4.6-11.2-14.4-11.2-14.4s4.6-3.7,7.5-3.5c2,0.2,10.5,9.8,11.9,10.9c1.4,1.2,3.6-0.8,1.9-3.1C5.7,51.2-0.7,44-1.6,43
					c0,0,3-1.6,4.2-0.7c1.2,0.9,13,13.2,15.4,13.6c8.7,1.2,8.8-9.2,16.1-15.9c-10-8.7-34.5-17.1-37.4-17c-3.1,0.2-5-0.8-6.4-3.1
					c-1.1-1.9,0.3-3.1,0.3-3.1c1.1-0.9,3.2-1.2,7.3,0.2c4,1.4,27.7,8.3,42.9,18.1l3.2-1.4c-9.3-9-33-18.4-35.4-18.5
					c-3.1-0.2-5.3-0.9-6.1-3.5C1.7,9.3,4,8.6,4,8.6c1.7-0.4,3.2-0.5,7.1,1.3c5.8,2.7,17.2,5,42.9,20.9c18.2,3.9,24.7,16.4,33.4,33.7
					c1.5-14,11.5-23.2,14.1-25.8c5.4-5.4,6.3-24.7,3.3-24.6c-3.2,0.1-5.1-3.2-4.1-5.1c1-1.9,6.7-1.3,6.7-1.3
					c5.8-0.1,6.1,21.9,4.7,31.3c-0.2,1.5-3.7,1.5-7.2,14.1c4-7.7,13.1-12.4,18.6-15.8c6.5-4,8.8-24,5.8-23.8c-3.5,0.2-5-3.9-3.6-5.5
					c1.4-1.6,6.5-0.7,6.5-0.7c8.3,0.8,3,33.3,2.3,34.1c-6.7,7.6-13.3,14.6-13.1,26.3c0.1,7.6-1.8,13-1.8,13
					c26.4-14.7,42.3,4.2,43.6,25.4c0.1,1.8,0.1,2.6,0,2.6C163,108.8,161.5,102,157.8,95.2"/>
			</defs>
			<clipPath id="SVGID_2_">
				<use xlink:href="#SVGID_1_"  style="overflow:visible;"/>
			</clipPath>
			<path class="st1" d="M37.8,70.8c-10.3-9-12.9-22.9-12.9-22.9l3.6-4.1C33.9,64.5,42.9,69,42.9,69L37.8,70.8z"/>
		</g>
		<g>
			<defs>
				<path id="SVGID_3_" d="M87.3,64.6l-0.1-0.3c0.1,0.1,0.1,0.2,0.2,0.3c1.5-14,11.5-23.2,14.1-25.8c0.8-0.8,1.6-2,2.2-3.4l8.5,3.1
					c0,0.2-0.1,0.4-0.1,0.6c-0.2,1.5-3.7,1.5-7.1,14c-6,9-6.5,17.7-6.5,17.7C94.8,70.7,91.4,70.5,87.3,64.6"/>
			</defs>
			<clipPath id="SVGID_4_">
				<use xlink:href="#SVGID_3_"  style="overflow:visible;"/>
			</clipPath>
			
				<linearGradient id="SVGID_5_" gradientUnits="userSpaceOnUse" x1="8145.4497" y1="-8527.3203" x2="8146.4497" y2="-8527.3203" gradientTransform="matrix(0.6417 36.6621 36.6621 -0.6417 307501.9688 -304067.125)">
				<stop  offset="0" style="stop-color:#000000;stop-opacity:0"/>
				<stop  offset="1" style="stop-color:#000000;stop-opacity:0.46"/>
			</linearGradient>
			<polygon class="st2" points="86.7,35.3 87.3,71.3 112.9,70.8 112.2,34.9 			"/>
		</g>
		<g>
			<defs>
				<path id="SVGID_6_" d="M34.1,40C34.1,40,34.1,40,34.1,40c-3.8-3.4-9.7-6.7-15.7-9.4l3.2-5.2c6.6,2.7,13.5,6,19.3,9.7
					C37.2,36.9,34.1,40,34.1,40L34.1,40z"/>
			</defs>
			<clipPath id="SVGID_7_">
				<use xlink:href="#SVGID_6_"  style="overflow:visible;"/>
			</clipPath>
			
				<linearGradient id="SVGID_8_" gradientUnits="userSpaceOnUse" x1="7797.4233" y1="-8821.2871" x2="7798.4233" y2="-8821.2871" gradientTransform="matrix(18.4666 11.1624 11.1624 -18.4666 -45504.7422 -249910)">
				<stop  offset="0" style="stop-color:#000000;stop-opacity:0"/>
				<stop  offset="1" style="stop-color:#000000;stop-opacity:0.44"/>
			</linearGradient>
			<polygon class="st3" points="11.9,36.1 34.8,49.9 47.3,29.3 24.4,15.4 			"/>
		</g>
		<g>
			<defs>
				<path id="SVGID_9_" d="M8.7,89.8l1.9-15c0,0-0.1,0.5-0.3,1.2l0.3-2c3.5,0.8,6.5,0.6,8.8,0.3c-0.2,0-0.3,0.1-0.3,0.1
					c0,10.8-4,15.6-8.9,15.6C9.8,90,9.2,89.9,8.7,89.8"/>
			</defs>
			<clipPath id="SVGID_10_">
				<use xlink:href="#SVGID_9_"  style="overflow:visible;"/>
			</clipPath>
			
				<linearGradient id="SVGID_11_" gradientUnits="userSpaceOnUse" x1="7477.4717" y1="-7866.6909" x2="7478.4722" y2="-7866.6909" gradientTransform="matrix(0.3252 -18.5764 -18.5764 -0.3252 -148552.5312 136438.0781)">
				<stop  offset="0" style="stop-color:#000000;stop-opacity:0"/>
				<stop  offset="1" style="stop-color:#000000;stop-opacity:0.48"/>
			</linearGradient>
			<polygon class="st4" points="19.5,90.2 19.8,74 8.7,73.8 8.4,90 			"/>
		</g>
		<g>
			<defs>
				<path id="SVGID_12_" d="M54,30.8c6.6,1.4,11.6,4,15.8,7.4C66.3,44.7,57.9,54,57.9,54C61.1,36.8,54,30.8,54,30.8"/>
			</defs>
			<clipPath id="SVGID_13_">
				<use xlink:href="#SVGID_12_"  style="overflow:visible;"/>
			</clipPath>
			
				<linearGradient id="SVGID_14_" gradientUnits="userSpaceOnUse" x1="7975.5435" y1="-8867.1436" x2="7976.5439" y2="-8867.1436" gradientTransform="matrix(13.0802 15.5883 15.5883 -13.0802 33954.8828 -240277.4688)">
				<stop  offset="0" style="stop-color:#000000"/>
				<stop  offset="6.152970e-02" style="stop-color:#000000;stop-opacity:0.9385"/>
				<stop  offset="1" style="stop-color:#000000;stop-opacity:0"/>
			</linearGradient>
			<polygon class="st5" points="42.5,40.4 60.5,61.8 81.2,44.4 63.3,23 			"/>
		</g>
	</g>
	<path class="st6" d="M-212.8-65c0-6.4,6.4-3.5,6.4-7.8V-76h-20.2v4.6h-0.3c-3.1-4.3-7.6-6.7-14.7-6.7c-14.4,0-25.4,13.8-25.4,37.9
		c0,24,10.7,39.7,25.5,39.7c5.5,0,11-2.3,14.2-4.6v21.8c0,6.4-6.4,3.5-6.4,7.8v3.2h20.8V-65z M-227.1-14.4c-2,3.1-6,5-10.1,5
		c-9.5,0-13.8-11.2-13.8-30.4c0-22.5,5.5-30.4,13.3-30.4c5.5,0,8.6,2.6,10.5,6.1V-14.4z"/>
	<path class="st6" d="M-149.7-39.3c0-27.8-14.1-38.8-29-38.8c-15,0-29,11-29,38.8c0,27.8,14.1,38.8,29,38.8
		C-163.8-0.5-149.7-11.5-149.7-39.3 M-165.6-39.3c0,23.5-4.1,32.4-13.1,32.4c-9,0-13.1-8.9-13.1-32.4c0-23.5,4.1-32.4,13.1-32.4
		C-169.7-71.8-165.6-62.9-165.6-39.3"/>
	<path class="st6" d="M-134.5-52.2c-5.2,3.8-11.6,9.9-11.6,22.9c0,17.4,11.9,28.7,25.4,28.7c6.3,0,11.2-2.6,14.2-4.4
		c-0.5,7.8,3.4,12.7,9,12.7c6.4,0,9.8-3.1,9.8-8.1c0-3.2-2.8-6.2-5.9-6.2c-4.1,0-5,2.6-7,2.6c-0.9,0-1-3-0.8-4.6
		c5.2-6,7.3-12.2,7.3-20.6c0-11.6-7-26.6-26.1-26.6c-3.2,0-5.5,0.5-8,1.2c-1.7-3.2-5.2-7.8-5.2-9c0-0.6,0.3-0.8,0.8-0.8
		c1.1,0,7.2,1.8,14.2,1.8C-101-62.6-88-70.1-88-84c0-10.1-9.5-24.8-33.3-24.8c-14.1,0-26,5.5-26,16.1c0,5.7,3.4,8.7,8.7,8.7
		c5,0,8.4-2.8,8.4-6.9c0-2.9-1.4-4.6-1.4-6.7c0-2.6,4-4.7,11.3-4.7c10.9,0,19.7,5.8,19.7,13.9c0,7.8-7.6,12.4-23.1,12.4
		c-12.7,0-19.3-3.7-22.6-3.7c-1.7,0-2.4,0.9-2.4,2.3c0,2.1,1.7,4.6,3.4,7.5L-134.5-52.2z M-130.2-28.5c0-13.3,3.4-21.6,10.9-21.6
		c7.5,0,10.9,8.3,10.9,21.6s-3.4,21.6-10.9,21.6C-126.8-6.9-130.2-15.2-130.2-28.5"/>
	<path d="M-45.3-69.5c-3.5-6-9.3-8.7-16.7-8.7c-3.5,0-7.8,0.9-10.4,2.9c-3.7,2.6-4.6,6.6-4.6,11.9V-10h-7.8v4.7c1.5,3.7,8,3.1,9.4,8
		c2.9,10.2,4.6,16.6,8.1,18.1l4.6,0.9V-2.7H-49V-10h-13.6v-57.7c0-1.1,1.2-3.1,4.6-3.1c3.4,0,6,2,8.1,5.7L-45.3-69.5z"/>
	<path d="M-23.1-2.7V-65c0-6.4,6.4-3.5,6.4-7.8V-76h-27.2v3.2c0,4.3,6.4,1.4,6.4,7.8v51.4c0,6.4-6.4,3.5-6.4,7.8v3.2H-23.1z"/>
	<path d="M7.5-2.7v-6c3.8,3.8,9.6,8.1,18.8,8.1c7.9,0,14.1-4.6,17.3-9.6c5.7,5.8,13.3,9.6,22,9.3c10.9-0.3,18.3-7,18.3-20.5V-65
		c0-6.4,6.4-3.5,6.4-7.8V-76H63.1v3.2c0,4.3,6.4,1.4,6.4,7.8v45.3c0,6.1-3.2,10.4-9.8,10.4c-7.2,0-11.6-5.2-14.1-8.4V-65
		c0-6.4,6.4-3.5,6.4-7.8V-76H24.9v3.2c0,4.3,6.4,1.4,6.4,7.8v45.3c0,6.1-3.2,10.4-9.8,10.4c-7.2,0-11.6-5.2-14.1-8.4V-65
		c0-6.4,6.4-3.5,6.4-7.8V-76h-27.2v3.2c0,4.3,6.4,1.4,6.4,7.8v51.4c0,6.4-6.4,3.5-6.4,7.8v3.2H7.5z"/>
	<path d="M104.9-37.2c0-27.4,6.9-33.6,17.1-33.6c11,0,15.3,7.5,19,16.4l6-4c-4.6-12.8-12.7-19.7-25.8-19.7
		c-20,0-32.1,12.8-32.1,38.8c0,23.2,11,38.8,29,38.8c19,0,28.1-14.7,28.1-34.1v-2.6H104.9z M130.3-29.9c0,15.3-3.4,22-12.2,22
		c-7.3,0-13.1-6.7-13.1-22H130.3z"/>
	<path class="st6" d="M-21.9,18.3c0-5.2-4.2-9.4-9.4-9.4c-5.2,0-9.4,4.2-9.4,9.4c0,5.2,4.2,9.4,9.4,9.4
		C-26.1,27.7-21.9,23.5-21.9,18.3"/>
	<g>
		<path d="M157.5-72c0-2.7-2.1-4.6-4.6-4.6c-2.6,0-4.6,1.9-4.6,4.6c0,2.7,2.1,4.6,4.6,4.6C155.4-67.4,157.5-69.3,157.5-72"/>
		<path d="M186.1-68.9c-2.3-5.9-5.1-8.2-10.6-8.2c-7.6,0-13.9,5.3-13.9,18c0,10.7,5.8,19.3,14.5,19.3c6,0,10.1-3.6,10.1-8
			c0-2.3-1.2-4.5-3.9-4.5c-2.2,0-3.7,1.5-3.7,3.6c0,1.6,1,2.9,1,3.7c0,1-1.1,1.7-3,1.7c-4.1,0-7.3-4.1-7.3-15.3
			c0-10.6,2.8-15,7.3-15c3.9,0,5.4,3.1,6.9,6.2L186.1-68.9z"/>
		<path d="M216.3-58.5c0-13.4-6.8-18.6-13.9-18.6c-7.2,0-13.9,5.3-13.9,18.6c0,13.4,6.8,18.6,13.9,18.6
			C209.5-39.8,216.3-45.1,216.3-58.5 M208.6-58.5c0,11.3-2,15.6-6.3,15.6c-4.3,0-6.3-4.3-6.3-15.6c0-11.3,2-15.6,6.3-15.6
			C206.7-74,208.6-69.8,208.6-58.5"/>
		<path d="M227.1-40.8v-2.9c1.8,1.8,4.6,3.9,9,3.9c3.8,0,6.8-2.2,8.3-4.6c2.7,2.8,6.4,4.6,10.6,4.5c5.2-0.1,8.8-3.4,8.8-9.8v-21
			c0-3.1,3.1-1.7,3.1-3.7v-1.5h-13.1v1.5c0,2.1,3.1,0.7,3.1,3.7v21.7c0,2.9-1.5,5-4.7,5c-3.5,0-5.6-2.5-6.8-4v-22.7
			c0-3.1,3.1-1.7,3.1-3.7v-1.5h-13.1v1.5c0,2.1,3.1,0.7,3.1,3.7v21.7c0,2.9-1.5,5-4.7,5c-3.4,0-5.6-2.5-6.8-4v-22.7
			c0-3.1,3.1-1.7,3.1-3.7v-1.5h-13.1v1.5c0,2.1,3.1,0.7,3.1,3.7v24.7c0,3.1-3.1,1.7-3.1,3.7v1.5H227.1z"/>
	</g>
	<path d="M154.4-1.2c4.2,0,7.7-3.3,7.7-7.7c0-4.4-3.5-7.8-7.7-7.8c-4.2,0-7.8,3.3-7.8,7.8C146.6-4.5,150.1-1.2,154.4-1.2
		 M154.4-15.5c3.6,0,6.3,2.8,6.3,6.6c0,3.7-2.8,6.5-6.3,6.5c-3.6,0-6.4-2.8-6.4-6.5C148-12.6,150.8-15.5,154.4-15.5 M151.3-4.4h3.5
		c2.1,0,3.2-0.8,3.2-2.6c0-1.6-1-2.3-2.4-2.5l2.6-4h-1.5l-2.5,3.9h-1.5v-3.9h-1.4V-4.4z M152.8-8.4h1.5c1.2,0,2.4,0.1,2.4,1.5
		c0,1.2-1,1.4-2,1.4h-1.9V-8.4z"/>
</symbol>
<use xlink:href="#dogtime_x5F_logo_x5F_hero_x5F_primarycolor_x5F_light_x5F_bg"  width="533.7" height="217.5" x="-266.9" y="-108.8" transform="matrix(1 0 0 -1 290.4314 126.7601)" style="overflow:visible;"/>
</svg>
