<?xml version="1.0" encoding="utf-8"?>
<!-- Generator: Adobe Illustrator 25.2.1, SVG Export Plug-In . SVG Version: 6.00 Build 0)  -->
<svg version="1.1" id="LOGO" xmlns="http://www.w3.org/2000/svg" xmlns:xlink="http://www.w3.org/1999/xlink" x="0px" y="0px"
	 viewBox="0 0 576 144" style="enable-background:new 0 0 576 144;" xml:space="preserve">
<style type="text/css">
	.st0{fill:#2B2B2B;}
	.st1{fill:#FFFFFF;}
	.st2{fill:#E82B2F;}
</style>
<symbol  id="gr_x5F_logo_x5F_horizontal_x5F_primarycolor_x5F_light_x5F_bg" viewBox="-267.7 -49.6 535.3 99.1">
	<g>
		<g>
			<path class="st0" d="M-108.7,19.3l2.4-2.3l-7.7-52.5v-0.2h9.6l0.8,8.4h6.1l0.8-8.4h9.9v0.2l-8.1,54.8H-108.7z M-102.5-17.3
				l2,19.3l2-19.3H-102.5z M-63.6,3.9c-1-3.8-1.7-6.5-1.7-8.5c-0.1,2-0.7,4.7-1.7,8.5l-4.2,15.4h-11.6l1.4-1.5v-53.5h10.4v16.7
				c0,2.2-0.8,10.2-0.8,10.2l3.5-20.8h6.1l3.6,20.8c0,0-0.6-8-0.6-10.2v-16.7H-49v55h-10.4L-63.6,3.9z M-32-12h8.9v9.9H-32V9.4h10.4
				v9.9h-22.7l2-2.2v-52.7h21.5v9.9H-32V-12z M16.1,17.1v-52.7h20.7v9.9H25.7V-12h8.9v9.9h-8.9V9.4h11.1v9.9H13.6L16.1,17.1z
				 M55.3-9.1c-0.1-0.4-0.2-6.8-0.2-6.8S55-9.5,54.9-9.1l-3.1,28.4H39.6l2.2-2.3L50-35.7h10.5l8.2,54.9v0.1H58.5L55.3-9.1z
				 M117.5,19.3h-12.6l2.3-2.2v-52.7h19.2v9.9h-8.9V19.3z M147.1-26.5h-4.4v45.8H130l2.2-2.2v-46.4c0-4.3,1.7-6.3,5.9-6.3h13.4
				c4.2,0,5.9,2,5.9,6.3v48.6h-10.4V-26.5z M190.7,17.1v-52.7h10.4v55h-12.2L190.7,17.1z M257.3,19.3V1.8c0-2.5,0.9-7.2,0.9-7.2
				l-7.4,24.7H239l2-2.2v-52.7h10.4V-18c0,2.5-0.7,7.2-0.7,7.2l7.5-24.8h9.5v55H257.3z M93.9,19.3H80.5c-4.2,0-5.9-1.9-5.9-6.2
				v-42.4c0-4.3,1.8-6.3,5.9-6.3h13.4c4.2,0,5.8,2,5.8,6.3v42.4C99.7,17.4,98.1,19.3,93.9,19.3z M89.4-26.5h-4.4V7.7l-2.4,2.5h6.8
				V-26.5z M227.9,19.3h-13.4c-4.2,0-6-1.9-6-6.2v-42.4c0-4.3,1.9-6.3,6-6.3h13.4c4.2,0,5.7,2,5.7,6.3v42.4
				C233.6,17.4,232.1,19.3,227.9,19.3z M224-26.5h-5.2V7.7l-2.3,2.5h7.5V-26.5z M-14.9,13.1V-5.3c0-3.7,1.4-5.3,4-5.6l0.4-0.1
				l-5.8-24.1v-0.6h10.5l5.7,20.4v-20.4h10.4v55H-8.9C-13,19.3-14.9,17.4-14.9,13.1z M-0.1,10.2V-4.4h-4.4v12l-2.2,2.5H-0.1z
				 M162.7,9.5h6.6v-45.1h10.2V9.5h6.6v9.9h-23.3V9.5z M-125.6,19.3h-13.4c-4.1,0-6.2-2-6.2-6.3v-42.4c0-4.3,2-6.3,6.2-6.3h13.4
				c4.2,0,6.3,2,6.3,6.3v25h-13.3v-9.2h3v-13h-5.2V7.6l-2.1,2.6h7.3V3.3h10.4V13C-119.2,17.3-121.4,19.3-125.6,19.3z"/>
		</g>
	</g>
	<g>
		<path class="st1" d="M-196.5-2c0.2-0.2,0.3-0.4,0.5-0.6C-196.2-2.4-196.4-2.2-196.5-2z M-195.6-3.5c0,0.1-0.1,0.2-0.1,0.3
			C-195.7-3.3-195.7-3.4-195.6-3.5L-195.6-3.5z M-225.9-6.1L-225.9-6.1l1.9,7.4c0.1,0.5,0.4,1,0.8,1.4c-0.4-0.4-0.6-0.9-0.8-1.4
			L-225.9-6.1z M-222.4,3.4c0.3,0.2,0.6,0.3,1,0.4C-221.7,3.7-222.1,3.5-222.4,3.4z M-189.1,19.4l-0.1-0.4h0L-189.1,19.4
			L-189.1,19.4z M-214.9,49.1c-0.2,0.1-0.5,0.2-0.7,0.2C-215.3,49.3-215.1,49.3-214.9,49.1z M-257.4,1l11.4-8.4l0,0L-257.4,1z
			 M-250.2-45.2c0-0.2,0-0.3,0-0.5C-250.3-45.5-250.3-45.3-250.2-45.2z M-249.9-43.9c-0.1-0.2-0.2-0.4-0.2-0.6
			C-250-44.3-250-44.1-249.9-43.9z M-250.1-44.6c0-0.1-0.1-0.3-0.1-0.4C-250.2-44.9-250.2-44.7-250.1-44.6z M-249.7-47.2
			c-0.1,0.1-0.2,0.3-0.2,0.4C-249.9-46.9-249.8-47.1-249.7-47.2z M-250-46.7c0,0.1-0.1,0.2-0.1,0.3C-250.1-46.4-250-46.6-250-46.7z
			 M-250.2-46.2c0,0.2-0.1,0.3-0.1,0.5C-250.2-45.9-250.2-46-250.2-46.2z M-249.7-47.2c0.1-0.1,0.2-0.3,0.3-0.4
			C-249.5-47.5-249.6-47.4-249.7-47.2z M-249.3-47.7c0.1-0.1,0.2-0.2,0.3-0.2C-249.1-47.9-249.2-47.8-249.3-47.7z M-248.9-48
			c0.1-0.1,0.2-0.2,0.4-0.2C-248.7-48.2-248.8-48.1-248.9-48z M-248.5-48.3c0.1-0.1,0.3-0.1,0.4-0.2
			C-248.2-48.5-248.4-48.4-248.5-48.3z M-247.9-48.6c0.1,0,0.2-0.1,0.3-0.1C-247.7-48.6-247.8-48.6-247.9-48.6z M-247.4-48.7
			c0.1,0,0.3,0,0.4,0C-247.2-48.7-247.3-48.7-247.4-48.7z M-246.9-48.7c0.1,0,0.2,0,0.3,0C-246.7-48.7-246.8-48.7-246.9-48.7
			C-246.9-48.7-246.9-48.7-246.9-48.7z M-245.3-48.3c0.2,0.1,0.3,0.2,0.5,0.4C-245-48-245.1-48.1-245.3-48.3z M-246.4-48.7
			c0.1,0,0.2,0.1,0.3,0.1C-246.2-48.6-246.3-48.7-246.4-48.7z M-245.9-48.5c0.1,0,0.2,0.1,0.4,0.2
			C-245.6-48.4-245.7-48.5-245.9-48.5z M-188-49.5c0.1,0,0.2,0,0.4,0c0,0,0,0-0.1,0C-187.8-49.6-187.9-49.5-188-49.5z M-190.1-48.7
			c0.2-0.1,0.4-0.3,0.6-0.4C-189.7-49-189.9-48.9-190.1-48.7z M-189.3-49.2c0.1-0.1,0.3-0.1,0.4-0.2
			C-189-49.3-189.2-49.3-189.3-49.2z M-188.6-49.4c0.1,0,0.2-0.1,0.4-0.1C-188.4-49.5-188.5-49.5-188.6-49.4z M-187.5-49.5
			c0.1,0,0.3,0,0.4,0C-187.2-49.5-187.3-49.5-187.5-49.5z M-186.9-49.5c0.1,0,0.3,0.1,0.4,0.1C-186.6-49.4-186.7-49.4-186.9-49.5z
			 M-186.4-49.3c0.2,0.1,0.3,0.1,0.5,0.2C-186-49.2-186.2-49.2-186.4-49.3z M-185.7-49c0.1,0.1,0.2,0.1,0.4,0.2
			C-185.5-48.9-185.6-48.9-185.7-49z M-185.2-48.7c0.1,0.1,0.2,0.2,0.3,0.3C-185-48.5-185.1-48.6-185.2-48.7z M-184.8-48.3
			c0.1,0.1,0.3,0.3,0.4,0.4C-184.5-48-184.7-48.2-184.8-48.3z M-183.7-46.2c0-0.2-0.1-0.4-0.1-0.6
			C-183.7-46.5-183.7-46.3-183.7-46.2z M-183.9-46.9c-0.1-0.1-0.1-0.3-0.2-0.4C-184-47.1-183.9-47-183.9-46.9z M-184.1-47.4
			c-0.1-0.1-0.2-0.3-0.2-0.4C-184.3-47.7-184.2-47.5-184.1-47.4z M-183.7-46.1c0,0.2,0,0.3,0.1,0.5
			C-183.6-45.7-183.6-45.9-183.7-46.1z M-183.8-44.1c0.1-0.2,0.1-0.4,0.2-0.6C-183.7-44.5-183.7-44.3-183.8-44.1z M-183.6-44.9
			c0-0.2,0-0.3,0-0.5C-183.6-45.2-183.6-45.1-183.6-44.9z M-165.7,10.2c0,0.2,0,0.4,0,0.6C-165.7,10.6-165.7,10.4-165.7,10.2z"/>
		<path class="st2" d="M-235.7,15.7l-9.8-37.3h30.3l-4.1-15.5h15.3l8.4,31.9c0.6,2.1-1,4.2-3.2,4.2h-11l-1.3-4.9h-14.9l1.9,7.4
			c0.4,1.5,1.7,2.5,3.2,2.5h27.6l4.1,15.6H-231C-233.2,19.4-235.1,17.8-235.7,15.7z"/>
		<path class="st0" d="M-228,23.5h22.6l-7.4,23.2c-1.2,3.8-6.6,3.8-7.8,0L-228,23.5z"/>
		<path class="st0" d="M-186.6,14.9l-7.1-27l26.3,19.5c3.2,2.4,1.6,7.5-2.4,7.5H-186.6z"/>
		<path class="st0" d="M-201.2-40.5l7.3,27.9l10-31.5c1.2-3.8-3.1-7-6.3-4.7L-201.2-40.5z"/>
		<path class="st0" d="M-263.6,14.9h24l-6-22.6L-266,7.4C-269.2,9.7-267.5,14.9-263.6,14.9z"/>
		<path class="st2" d="M-220-25.8h-21.2l-8.7-18.1c-1.6-3.3,2.4-6.4,5.1-4L-220-25.8z"/>
	</g>
</symbol>
<use xlink:href="#gr_x5F_logo_x5F_horizontal_x5F_primarycolor_x5F_light_x5F_bg"  width="535.3" height="99.1" x="-267.7" y="-49.6" transform="matrix(1 0 0 -1 288.345 71.8211)" style="overflow:visible;"/>
</svg>
