<?xml version="1.0" encoding="utf-8"?>
<!-- Generator: Adobe Illustrator 25.2.1, SVG Export Plug-In . SVG Version: 6.00 Build 0)  -->
<svg version="1.1" id="LOGO" xmlns="http://www.w3.org/2000/svg" xmlns:xlink="http://www.w3.org/1999/xlink" x="0px" y="0px"
	 viewBox="0 0 576 144" style="enable-background:new 0 0 576 144;" xml:space="preserve">
<style type="text/css">
	.st0{fill:#2B2B2B;}
	.st1{fill:#282828;}
</style>
<g>
	<g>
		<g>
			<g>
				<path class="st0" d="M179.6,52.5l2.4,2.3l-7.7,52.5v0.2h9.6l0.8-8.4h6.1l0.8,8.4h9.9v-0.2l-8.1-54.8H179.6z M185.8,89.2l2-19.3
					l2,19.3H185.8z M224.7,67.9c-1,3.8-1.7,6.5-1.7,8.5c-0.1-2-0.7-4.7-1.7-8.5L217,52.5h-11.6l1.4,1.5v53.5h10.4V90.7
					c0-2.2-0.8-10.2-0.8-10.2l3.5,20.8h6.1l3.6-20.8c0,0-0.6,8-0.6,10.2v16.7h10.4v-55H229L224.7,67.9z M256.4,83.8h8.9v-9.9h-8.9
					V62.4h10.4v-9.9h-22.7l2,2.2v52.7h21.5v-9.9h-11.1V83.8z M304.5,54.7v52.7h20.7v-9.9h-11.1V83.8h8.9v-9.9h-8.9V62.4h11.1v-9.9
					H302L304.5,54.7z M343.7,80.9c-0.1,0.4-0.2,6.8-0.2,6.8s-0.1-6.4-0.2-6.8l-3.1-28.4h-12.2l2.2,2.3l8.2,52.7h10.5l8.2-54.9v-0.1
					h-10.1L343.7,80.9z M405.8,52.5h-12.6l2.3,2.2v52.7h19.2v-9.9h-8.9V52.5z M435.4,98.3H431V52.5h-12.6l2.2,2.2v46.4
					c0,4.3,1.7,6.3,5.9,6.3h13.4c4.2,0,5.9-2,5.9-6.3V52.5h-10.4V98.3z M479.1,54.7v52.7h10.4v-55h-12.2L479.1,54.7z M545.6,52.5V70
					c0,2.5,0.9,7.2,0.9,7.2l-7.4-24.7h-11.8l2,2.2v52.7h10.4V89.9c0-2.5-0.7-7.2-0.7-7.2l7.5,24.8h9.5v-55H545.6z M382.3,52.5h-13.4
					c-4.2,0-5.9,1.9-5.9,6.2v42.4c0,4.3,1.8,6.3,5.9,6.3h13.4c4.2,0,5.8-2,5.8-6.3V58.7C388.1,54.4,386.4,52.5,382.3,52.5z
					 M377.7,98.3h-4.4V64.2l-2.4-2.5h6.8V98.3z M516.3,52.5h-13.4c-4.2,0-6,1.9-6,6.2v42.4c0,4.3,1.9,6.3,6,6.3h13.4
					c4.2,0,5.7-2,5.7-6.3V58.7C522,54.4,520.4,52.5,516.3,52.5z M512.4,98.3h-5.2V64.2l-2.3-2.5h7.5V98.3z M273.4,58.7v18.4
					c0,3.7,1.4,5.3,4,5.6l0.4,0.1l-5.8,24.1v0.6h10.5l5.7-20.4v20.4h10.4v-55h-19.1C275.4,52.5,273.4,54.4,273.4,58.7z M288.2,61.7
					v14.5h-4.4v-12l-2.2-2.5H288.2z M451,62.3h6.6v45.1h10.2V62.3h6.6v-9.9H451V62.3z M162.8,52.5h-13.4c-4.1,0-6.2,2-6.2,6.3v42.4
					c0,4.3,2,6.3,6.2,6.3h13.4c4.2,0,6.3-2,6.3-6.3v-25h-13.3v9.2h3v13h-5.2V64.2l-2.1-2.6h7.3v6.9h10.4v-9.8
					C169.1,54.5,167,52.5,162.8,52.5z"/>
			</g>
			<g>
				<path class="st1" d="M179.6,52.5l2.4,2.3l-7.7,52.5v0.2h9.6l0.8-8.4h6.1l0.8,8.4h9.9v-0.2l-8.1-54.8H179.6z M185.8,89.2l2-19.3
					l2,19.3H185.8z M224.7,67.9c-1,3.8-1.7,6.5-1.7,8.5c-0.1-2-0.7-4.7-1.7-8.5L217,52.5h-11.6l1.4,1.5v53.5h10.4V90.7
					c0-2.2-0.8-10.2-0.8-10.2l3.5,20.8h6.1l3.6-20.8c0,0-0.6,8-0.6,10.2v16.7h10.4v-55H229L224.7,67.9z M256.4,83.8h8.9v-9.9h-8.9
					V62.4h10.4v-9.9h-22.7l2,2.2v52.7h21.5v-9.9h-11.1V83.8z M304.5,54.7v52.7h20.7v-9.9h-11.1V83.8h8.9v-9.9h-8.9V62.4h11.1v-9.9
					H302L304.5,54.7z M343.7,80.9c-0.1,0.4-0.2,6.8-0.2,6.8s-0.1-6.4-0.2-6.8l-3.1-28.4h-12.2l2.2,2.3l8.2,52.7h10.5l8.2-54.9v-0.1
					h-10.1L343.7,80.9z M405.8,52.5h-12.6l2.3,2.2v52.7h19.2v-9.9h-8.9V52.5z M435.4,98.3H431V52.5h-12.6l2.2,2.2v46.4
					c0,4.3,1.7,6.3,5.9,6.3h13.4c4.2,0,5.9-2,5.9-6.3V52.5h-10.4V98.3z M479.1,54.7v52.7h10.4v-55h-12.2L479.1,54.7z M545.6,52.5V70
					c0,2.5,0.9,7.2,0.9,7.2l-7.4-24.7h-11.8l2,2.2v52.7h10.4V89.9c0-2.5-0.7-7.2-0.7-7.2l7.5,24.8h9.5v-55H545.6z M382.3,52.5h-13.4
					c-4.2,0-5.9,1.9-5.9,6.2v42.4c0,4.3,1.8,6.3,5.9,6.3h13.4c4.2,0,5.8-2,5.8-6.3V58.7C388.1,54.4,386.4,52.5,382.3,52.5z
					 M377.7,98.3h-4.4V64.2l-2.4-2.5h6.8V98.3z M516.3,52.5h-13.4c-4.2,0-6,1.9-6,6.2v42.4c0,4.3,1.9,6.3,6,6.3h13.4
					c4.2,0,5.7-2,5.7-6.3V58.7C522,54.4,520.4,52.5,516.3,52.5z M512.4,98.3h-5.2V64.2l-2.3-2.5h7.5V98.3z M273.4,58.7v18.4
					c0,3.7,1.4,5.3,4,5.6l0.4,0.1l-5.8,24.1v0.6h10.5l5.7-20.4v20.4h10.4v-55h-19.1C275.4,52.5,273.4,54.4,273.4,58.7z M288.2,61.7
					v14.5h-4.4v-12l-2.2-2.5H288.2z M451,62.3h6.6v45.1h10.2V62.3h6.6v-9.9H451V62.3z M162.8,52.5h-13.4c-4.1,0-6.2,2-6.2,6.3v42.4
					c0,4.3,2,6.3,6.2,6.3h13.4c4.2,0,6.3-2,6.3-6.3v-25h-13.3v9.2h3v13h-5.2V64.2l-2.1-2.6h7.3v6.9h10.4v-9.8
					C169.1,54.5,167,52.5,162.8,52.5z"/>
			</g>
		</g>
		<g>
			<path class="st1" d="M91.8,73.8c0.2,0.2,0.3,0.4,0.5,0.6C92.1,74.2,92,74,91.8,73.8z M92.7,75.3c0-0.1-0.1-0.2-0.1-0.3
				C92.6,75.1,92.7,75.2,92.7,75.3L92.7,75.3z M62.4,77.9L62.4,77.9l1.9-7.4c0.1-0.5,0.4-1,0.8-1.4c-0.4,0.4-0.6,0.9-0.8,1.4
				L62.4,77.9z M65.9,68.5c0.3-0.2,0.6-0.3,1-0.4C66.6,68.2,66.3,68.3,65.9,68.5z M99.2,52.5l-0.1,0.4h0L99.2,52.5L99.2,52.5z
				 M73.5,22.7c-0.2-0.1-0.5-0.2-0.7-0.2C73,22.5,73.2,22.6,73.5,22.7z M31,70.8l11.4,8.4l0,0L31,70.8z M38.1,117c0,0.2,0,0.3,0,0.5
				C38.1,117.3,38.1,117.2,38.1,117z M38.5,115.7c-0.1,0.2-0.2,0.4-0.2,0.6C38.3,116.1,38.4,115.9,38.5,115.7z M38.2,116.4
				c0,0.1-0.1,0.3-0.1,0.4C38.1,116.7,38.2,116.6,38.2,116.4z M38.6,119c-0.1-0.1-0.2-0.3-0.2-0.4C38.5,118.8,38.6,118.9,38.6,119z
				 M38.4,118.5c0-0.1-0.1-0.2-0.1-0.3C38.3,118.3,38.3,118.4,38.4,118.5z M38.2,118c0-0.2-0.1-0.3-0.1-0.5
				C38.1,117.7,38.2,117.8,38.2,118z M38.7,119c0.1,0.1,0.2,0.3,0.3,0.4C38.9,119.3,38.8,119.2,38.7,119z M39.1,119.5
				c0.1,0.1,0.2,0.2,0.3,0.2C39.2,119.7,39.1,119.6,39.1,119.5z M39.4,119.9c0.1,0.1,0.2,0.2,0.4,0.2
				C39.7,120,39.6,119.9,39.4,119.9z M39.8,120.1c0.1,0.1,0.3,0.1,0.4,0.2C40.1,120.3,40,120.2,39.8,120.1z M40.4,120.4
				c0.1,0,0.2,0.1,0.3,0.1C40.6,120.4,40.5,120.4,40.4,120.4z M40.9,120.5c0.1,0,0.3,0,0.4,0C41.2,120.5,41,120.5,40.9,120.5z
				 M41.4,120.5c0.1,0,0.2,0,0.3,0C41.6,120.5,41.5,120.5,41.4,120.5C41.4,120.5,41.4,120.5,41.4,120.5z M43,120.1
				c0.2-0.1,0.3-0.2,0.5-0.4C43.4,119.8,43.2,120,43,120.1z M41.9,120.5c0.1,0,0.2-0.1,0.3-0.1C42.2,120.4,42.1,120.5,41.9,120.5z
				 M42.5,120.3c0.1,0,0.2-0.1,0.4-0.2C42.7,120.2,42.6,120.3,42.5,120.3z M100.3,121.3c0.1,0,0.2,0,0.4,0c0,0,0,0-0.1,0
				C100.5,121.4,100.4,121.4,100.3,121.3z M98.2,120.6c0.2,0.1,0.4,0.3,0.6,0.4C98.6,120.8,98.4,120.7,98.2,120.6z M99,121
				c0.1,0.1,0.3,0.1,0.4,0.2C99.3,121.1,99.2,121.1,99,121z M99.7,121.2c0.1,0,0.2,0.1,0.4,0.1C100,121.3,99.8,121.3,99.7,121.2z
				 M100.9,121.4c0.1,0,0.3,0,0.4,0C101.1,121.3,101,121.3,100.9,121.4z M101.5,121.3c0.1,0,0.3-0.1,0.4-0.1
				C101.7,121.2,101.6,121.2,101.5,121.3z M102,121.1c0.2-0.1,0.3-0.1,0.5-0.2C102.3,121,102.2,121.1,102,121.1z M102.6,120.8
				c0.1-0.1,0.2-0.1,0.4-0.2C102.9,120.7,102.7,120.8,102.6,120.8z M103.1,120.5c0.1-0.1,0.2-0.2,0.3-0.3
				C103.3,120.3,103.2,120.4,103.1,120.5z M103.5,120.1c0.1-0.1,0.3-0.3,0.4-0.4C103.8,119.9,103.7,120,103.5,120.1z M104.7,118
				c0,0.2-0.1,0.4-0.1,0.6C104.6,118.4,104.6,118.2,104.7,118z M104.5,118.7c-0.1,0.1-0.1,0.3-0.2,0.4
				C104.4,118.9,104.4,118.8,104.5,118.7z M104.2,119.2c-0.1,0.1-0.2,0.3-0.2,0.4C104.1,119.5,104.1,119.4,104.2,119.2z
				 M104.7,117.9c0-0.2,0-0.3,0.1-0.5C104.7,117.6,104.7,117.7,104.7,117.9z M104.5,115.9c0.1,0.2,0.1,0.4,0.2,0.6
				C104.7,116.3,104.6,116.1,104.5,115.9z M104.7,116.7c0,0.2,0,0.3,0,0.5C104.7,117,104.7,116.9,104.7,116.7z M122.6,61.7
				c0-0.2,0-0.4,0-0.6C122.7,61.3,122.6,61.5,122.6,61.7z"/>
			<path class="st1" d="M52.6,56.2l-9.8,37.3h30.3L69.1,109h15.3l8.4-31.9c0.6-2.1-1-4.2-3.2-4.2h-11l-1.3,4.9H62.4l1.9-7.4
				c0.4-1.5,1.7-2.5,3.2-2.5h27.6l4.1-15.6H57.4C55.1,52.5,53.2,54,52.6,56.2z"/>
			<path class="st1" d="M60.4,48.3H83l-7.4-23.2c-1.2-3.8-6.6-3.8-7.8,0L60.4,48.3z"/>
			<path class="st1" d="M101.7,56.9l-7.1,27L121,64.5c3.2-2.4,1.6-7.5-2.4-7.5H101.7z"/>
			<path class="st1" d="M87.1,112.3l7.3-27.9l10,31.5c1.2,3.8-3.1,7-6.3,4.7L87.1,112.3z"/>
			<path class="st1" d="M24.8,56.9h24l-6,22.6L22.4,64.5C19.2,62.1,20.8,56.9,24.8,56.9z"/>
			<path class="st1" d="M68.4,97.6H47.2l-8.7,18.1c-1.6,3.3,2.4,6.4,5.1,4L68.4,97.6z"/>
		</g>
	</g>
</g>
</svg>
