<?xml version="1.0" encoding="utf-8"?>
<!-- Generator: Adobe Illustrator 25.2.1, SVG Export Plug-In . SVG Version: 6.00 Build 0)  -->
<svg version="1.1" id="Layer_1" xmlns="http://www.w3.org/2000/svg" xmlns:xlink="http://www.w3.org/1999/xlink" x="0px" y="0px"
	 viewBox="0 0 1082.5 170.8" style="enable-background:new 0 0 1082.5 170.8;" xml:space="preserve">
<polygon points="105.3,107.6 134.8,107.6 135.9,101.1 106.4,101.1 "/>
<polygon points="153.7,107.6 183.2,107.6 184.3,101.1 154.8,101.1 "/>
<polygon points="263.5,107.6 292.3,107.6 293.4,101.1 264.6,101.1 "/>
<path d="M329.7,104.8l-0.1,0.3c-0.2,0.9-0.4,1.7-0.8,2.5h29.8c0.3-2.4,0.4-4.5,0.2-6.5h-29.3C329.9,102.2,329.9,103.4,329.7,104.8z"
	/>
<path d="M357.2,114.1H314h-22.8h-28.8l-1,6.1h93C355.5,118.3,356.5,116.2,357.2,114.1z"/>
<polygon points="182.1,114.1 152.6,114.1 151.5,120.2 181,120.2 "/>
<polygon points="133.7,114.1 104.2,114.1 103.2,120.2 132.7,120.2 "/>
<polygon points="65.3,120.2 66.4,114.1 36.9,114.1 35.8,120.2 "/>
<polygon points="38,107.6 67.5,107.6 68.6,101.1 39.1,101.1 "/>
<path d="M423,114.1c-0.2,0-0.4,0-0.7,0c-0.2,0-0.4,0-0.6,0h-48.9c0.9,2.1,2,4.2,3.3,6.1H466c1.9-1.9,3.7-4,5.4-6.1H423z"/>
<polygon points="635.8,114.1 606.3,114.1 605.3,120.2 634.8,120.2 "/>
<polygon points="585.6,114.1 487.3,114.1 483.6,120.2 514.2,120.2 555.8,120.2 587.2,120.2 "/>
<polygon points="491.1,107.6 584,107.6 582.3,101.1 495,101.1 "/>
<path d="M441.1,107.6h34.8c1.3-2.1,2.5-4.3,3.5-6.5h-31.9C445.7,103.5,443.5,105.7,441.1,107.6z"/>
<polygon points="607.4,107.6 636.9,107.6 636.9,107.6 650.7,107.6 650.7,107.6 684.2,107.6 680.8,101.1 608.5,101.1 "/>
<polygon points="714.1,107.6 743.6,107.6 744.8,101.1 715.3,101.1 "/>
<path d="M774,107.6h36.6c1.3-2.1,2.5-4.3,3.6-6.5h-32.3C779.6,103.7,777,105.9,774,107.6z"/>
<path d="M370.5,107.6H406c-1.8-1.9-3.3-4.1-4.3-6.5h-32.4C369.6,103.3,369.9,105.5,370.5,107.6z"/>
<polygon points="477.9,129.8 472.7,138.6 503.8,138.6 508.8,129.8 "/>
<polygon points="558.1,129.8 560.2,138.6 591.8,138.6 589.6,129.8 "/>
<polygon points="101.6,129.8 100.1,138.6 129.6,138.6 131.1,129.8 "/>
<polygon points="149.9,129.8 148.4,138.6 177.9,138.6 179.4,129.8 "/>
<path d="M259.7,129.8l-1.5,8.8h54.9c13.5,0,24.5-3.1,32.3-8.8H259.7z"/>
<path d="M384.7,129.8c8.3,6.8,19.5,10.9,32.8,10.9s25.8-4.1,36.5-10.9H384.7z"/>
<polygon points="603.6,129.8 602.1,138.6 631.6,138.6 633.1,129.8 "/>
<path d="M710.4,129.8l-1.5,8.8h40.4c14.3,0,27-3.2,37.5-8.8H710.4z"/>
<polygon points="661.7,129.8 666,138.6 700.1,138.6 695.6,129.8 "/>
<path d="M691.7,95.3c8.6-6,14.8-14.7,16.8-26.5l0.1-0.3c1.8-10.5,0-18.7-5.2-24.8c-5.9-7.3-16.4-11.6-32.7-11.6h-50.4l-10.8,63.1
	L691.7,95.3L691.7,95.3z M645.4,57.7h19.3c9.9,0,15.2,4.3,13.8,12.6l-0.1,0.3c-1.3,7.8-7.9,12.6-18,12.6h-19.5L645.4,57.7z"/>
<polygon points="687.5,114.1 653.9,114.1 656.9,120.2 690.6,120.2 "/>
<polygon points="527.9,95.3 544.3,66.3 550.8,95.3 580.9,95.3 564.7,31.4 536.3,31.4 498.4,95.3 "/>
<polygon points="34.2,129.8 32.7,138.6 62.2,138.6 63.7,129.8 "/>
<path d="M806,114.1h-92.9l-1,6.1h88.2C802.3,118.3,804.2,116.2,806,114.1z"/>
<path d="M854.4,95.3h57.3c-2.4-12.7-15.1-18.7-34.1-23C863.4,69,860.1,66.8,861,62l0.1-0.3c0.6-3.8,4.7-6.8,11.8-6.8
	c9.4,0,19.5,3.6,28,10.5l18.3-20.8c-10-9.3-23.3-14.1-41.4-14.1c-25.5,0-43.6,14.3-47,34.1l-0.1,0.3
	C827.5,82.8,838.3,90.3,854.4,95.3z"/>
<path d="M745.7,95.3l6.3-37h12c17.6,0,27.7,9.9,24.8,26.9l-0.1,0.3c-0.6,3.6-1.7,6.8-3.2,9.8h30.9c1.1-3.3,2-6.7,2.6-10.2l0.1-0.3
	c5.2-30.7-13.1-52.6-51.1-52.6h-41.1l-10.8,63.1H745.7z"/>
<polygon points="136.9,95.3 147.7,32.1 118.2,32.1 111.4,72 73.5,72 80.3,32.1 50.8,32.1 40.1,95.3 "/>
<polygon points="229.6,95.3 232.8,76.1 188.6,76.1 191.6,58 247.3,58 251.7,32.1 166.5,32.1 155.8,95.3 "/>
<path d="M294.4,95.3L294.4,95.3h22.5c0.3,0,0.5,0,0.8,0h39.8c-2.6-5.9-8.1-9.7-15.6-12.4c10.1-4.1,18.4-11.4,20.5-23.7l0.1-0.3
	c1.2-7.3-0.4-12.9-3.9-17.2c-5.2-6.2-14-9.6-27.4-9.6h-54.6l-10.8,63.1h28.6V95.3z M301.1,55.9h19.2c8.8,0,12.8,3.3,11.8,9.1
	l-0.1,0.3c-1.1,6.2-6.6,9.3-15.6,9.3h-18.6L301.1,55.9z"/>
<path d="M400,95.3c-0.5-3.1-0.5-6.5,0-9.9l0.1-0.3c2.6-15.4,15.6-28.4,31.8-28.4c16.3,0,25.1,13.4,22.5,28.7l-0.1,0.3
	c-0.6,3.4-1.7,6.6-3.2,9.6h30.7c1.1-3.2,2-6.5,2.6-9.9l0.1-0.3c5.2-30.6-15-55-47.8-55S375,54.9,369.8,85.5l-0.1,0.3
	c-0.6,3.3-0.8,6.5-0.8,9.6L400,95.3L400,95.3z"/>
<path d="M1031.8,36.8L1031.8,36.8L1031.8,36.8z"/>
<path d="M1046,85.8l-0.1-1.1c0.4-0.6,0.9-1.1,1.3-1.7c-0.2,0.5-0.4,0.9-0.6,1.4c1.3-3,2.2-5.8,2.7-8.5c-0.1,0.5-0.2,0.9-0.3,1.4
	c-0.2,0.4-0.5,0.7-0.7,1.1l-0.1-1.8c0.5-0.7,0.9-1.4,1.4-2.1c0.5-4.1,0.1-7.7-1.4-10.5l0,0l0,0c-0.2-0.3-0.3-0.6-0.5-0.9l-0.4-0.7
	v0.1v-0.2l-1.5-2.4v0.4c-0.5,0.8-0.9,1.6-1.4,2.4l-0.1-1.9c0.3-0.6,0.7-1.2,1-1.8l0,0l-2.8-4.6c-0.4,0.8-0.9,1.5-1.3,2.3l-0.1-2
	c0.3-0.5,0.5-1,0.8-1.4l-2.7-4.5c-0.4,0.7-0.8,1.5-1.3,2.2l-0.1-2c0.3-0.5,0.5-0.9,0.8-1.4l0.3,0.4l-6.7-11.2
	c3.2,6.5-0.8,17.9-16.7,36.1c-19.6,22.3-54,40.3-74.8,40.9c-7,0.2-10.5,0.3-10.5,0.3h-52.8c-2.3,1.2-5.3,1.9-9.2,1.9
	c-4.6,0-9.1-0.6-13.3-1.9h-30l-6.2,6.1h116.1l-0.3-0.4v-0.4c0.5-0.1,1.1-0.1,1.6-0.2l0.1,1.1c-0.4,0.1-0.8,0.1-1.1,0.1l7,9.3
	c-19,0-44.3,0-44.3,0h-73.1c9.5,6.4,21.3,9.9,34.3,10.5v0.1h103.8l0,0l0,0c0.4,0,0.8,0,1.2,0c3-0.1,6.1-0.4,9.3-1l-0.1-1.2
	c0.5-0.2,1-0.4,1.6-0.6l0.1,1.2c-0.5,0.2-1,0.4-1.5,0.6c19.7-3.8,43.2-17.6,61.1-36.5c5.8-6.2,10.1-12.5,12.7-18.5
	C1046.4,84.8,1046.2,85.3,1046,85.8z M1049.4,70.6c-0.5,0.8-0.9,1.5-1.4,2.3l-0.1-1.9c0.5-0.8,1-1.6,1.4-2.4L1049.4,70.6z
	 M1048.4,64.6c0.2,0.4,0.4,0.9,0.5,1.3c-0.5,0.8-0.9,1.6-1.4,2.3l-0.1-1.9C1047.8,65.8,1048.1,65.2,1048.4,64.6z M932.2,117.3
	l-0.7-0.9c0,0,0.6-0.2,0.9-0.2l0.1,1.2C932.3,117.3,932.2,117.3,932.2,117.3z M934.7,117.2c-0.3,0.1-0.6,0.1-0.9,0.1l-0.1-1.1
	c0.3,0,0.6-0.1,0.8-0.1c0.3,0,0.5-0.1,0.8-0.1l0.1,1.2C935.1,117.1,934.9,117.2,934.7,117.2z M1045.8,62.4l0.2,2
	c-0.5,0.8-0.9,1.6-1.4,2.3l-0.1-1.9C1044.9,64,1045.4,63.2,1045.8,62.4z M1043.5,68.4c-0.5,0.7-1,1.4-1.5,2.1l-0.1-1.8
	c0.5-0.7,1-1.5,1.5-2.2L1043.5,68.4z M1043.2,64.3c-0.5,0.7-1,1.5-1.4,2.2l-0.1-1.8c0.5-0.7,1-1.5,1.4-2.2L1043.2,64.3z
	 M1042.6,56.6l0.2,2c-0.5,0.8-0.9,1.6-1.4,2.4l-0.1-1.9C1041.7,58.2,1042.1,57.4,1042.6,56.6z M1040.9,72.2c-0.5,0.7-1,1.3-1.5,2
	l-0.1-1.7c0.5-0.7,1-1.3,1.5-2L1040.9,72.2z M1040.6,68.2c-0.5,0.7-1,1.3-1.5,2l-0.1-1.7c0.5-0.7,1-1.4,1.5-2L1040.6,68.2z
	 M1040.2,62.8c-0.5,0.7-1,1.4-1.5,2.1l-0.1-1.8c0.5-0.7,1-1.5,1.4-2.2L1040.2,62.8z M1039.8,58.4c-0.5,0.7-1,1.5-1.5,2.2l-0.1-1.8
	c0.5-0.7,1-1.5,1.4-2.2L1039.8,58.4z M1038.3,75.5c-0.5,0.6-1,1.2-1.5,1.8l-0.1-1.7c0.5-0.6,1-1.2,1.5-1.9L1038.3,75.5z
	 M1039.2,50.7l0.2,2c-0.5,0.8-0.9,1.6-1.4,2.4l-0.1-1.9C1038.3,52.3,1038.8,51.5,1039.2,50.7z M1037.9,69.9l0.1,1.7
	c-0.5,0.6-1,1.2-1.5,1.9l-0.1-1.7C1036.9,71.1,1037.4,70.5,1037.9,69.9z M1037.5,64.7l0.1,1.8c-0.5,0.7-1,1.3-1.5,2l-0.1-1.7
	C1036.5,66,1037,65.3,1037.5,64.7z M1037.3,62.1c-0.5,0.7-1,1.3-1.5,2l-0.1-1.7c0.5-0.7,1-1.4,1.5-2.1L1037.3,62.1z M1036.9,56.7
	c-0.5,0.7-1,1.4-1.5,2.2l-0.1-1.9c0.5-0.7,1-1.5,1.4-2.2L1036.9,56.7z M1032.3,71.5l0.1,1.6c-0.5,0.6-1,1.1-1.5,1.7l-0.1-1.6
	C1031.3,72.7,1031.8,72.1,1032.3,71.5z M1030.6,70.6l-0.1-1.6c0.5-0.6,1-1.2,1.5-1.8l0.1,1.6C1031.6,69.4,1031.1,70,1030.6,70.6z
	 M1031.5,77.5c0.4-0.4,0.7-0.8,1.1-1.2l0.1,1.6c-0.1,0.1-0.2,0.3-0.3,0.4c-0.4,0.4-0.8,0.8-1.1,1.2l-0.1-1.6
	C1031.3,77.8,1031.4,77.6,1031.5,77.5z M1032.4,56.8c0.5-0.7,1-1.4,1.5-2.1l0.1,1.8c-0.5,0.7-1,1.3-1.5,2L1032.4,56.8z M1032.6,80.4
	c0.1-0.1,0.2-0.2,0.3-0.4l0.1,1.6c-0.5,0.5-1,1.1-1.5,1.6l-0.1-1.6C1031.8,81.3,1032.2,80.9,1032.6,80.4z M1032.8,62.5l-0.1-1.7
	c0.5-0.7,1-1.3,1.5-2l0.1,1.8C1033.8,61.2,1033.3,61.8,1032.8,62.5z M1034.5,63.9l0.1,1.7c-0.5,0.6-1,1.2-1.5,1.9l-0.1-1.7
	C1033.6,65.2,1034.1,64.6,1034.5,63.9z M1034.9,68.2l0.1,1.7c-0.5,0.6-1,1.2-1.5,1.8l-0.1-1.7C1033.9,69.5,1034.4,68.9,1034.9,68.2z
	 M1035.2,73.2l0.1,1.6c-0.5,0.6-1,1.2-1.5,1.7l-0.1-1.6C1034.3,74.4,1034.8,73.8,1035.2,73.2z M1035.5,77.1l0.1,1.6
	c-0.5,0.6-1,1.1-1.5,1.7l-0.1-1.6C1034.6,78.2,1035,77.6,1035.5,77.1z M1036.6,52.6c-0.5,0.7-1,1.5-1.4,2.2l-0.1-1.8
	c0.5-0.8,1-1.5,1.4-2.3L1036.6,52.6z M1035.7,48.2c-0.5,0.7-1,1.5-1.4,2.2l-0.1-1.8c0.5-0.8,1-1.5,1.4-2.3L1035.7,48.2z
	 M1034.5,41.4l0.1,1.8c-0.5,0.7-1,1.3-1.5,2l-0.1-1.7C1033.5,42.8,1034,42.1,1034.5,41.4z M1033,50.6l0.1,1.8c-0.5,0.7-1,1.3-1.5,2
	l-0.1-1.7C1032.1,52,1032.6,51.3,1033,50.6z M1031.7,63.9c-0.5,0.6-1,1.2-1.5,1.8l-0.1-1.7c0.5-0.6,1-1.2,1.5-1.9L1031.7,63.9z
	 M1029.9,79.2l0.1,1.6c-0.5,0.5-1,1-1.5,1.6l-0.1-1.5C1028.9,80.3,1029.4,79.8,1029.9,79.2z M1028.2,77.8l-0.1-1.6
	c0.3-0.3,0.6-0.6,0.9-1c0.2-0.2,0.4-0.5,0.6-0.7l0.1,1.6C1029.2,76.7,1028.7,77.2,1028.2,77.8z M1030.2,83l0.1,1.5
	c-0.5,0.5-1,1-1.5,1.6l-0.1-1.5C1029.2,84,1029.7,83.5,1030.2,83z M1031.4,60c-0.5,0.6-1,1.2-1.5,1.9l-0.1-1.7
	c0.5-0.6,1-1.3,1.5-1.9L1031.4,60z M1030.7,54.6l0.1,1.7c-0.5,0.6-1,1.2-1.5,1.9l-0.1-1.7C1029.8,55.8,1030.3,55.2,1030.7,54.6z
	 M1029.4,71.9c-0.1,0.1-0.2,0.3-0.3,0.4c-0.4,0.4-0.8,0.8-1.2,1.3l-0.1-1.6c0.1-0.2,0.3-0.3,0.4-0.5c0.4-0.4,0.7-0.8,1.1-1.2
	L1029.4,71.9z M1029,67.2c-0.5,0.6-1,1.1-1.5,1.7l-0.1-1.6c0.5-0.6,1-1.2,1.5-1.7L1029,67.2z M1027,77.4l0.1,1.6
	c-0.5,0.5-1,1-1.5,1.6l-0.1-1.5C1026,78.4,1026.5,77.9,1027,77.4z M1025.3,76.3l-0.1-1.5c0.5-0.5,1-1.1,1.5-1.6l0.1,1.6
	C1026.3,75.3,1025.8,75.8,1025.3,76.3z M1027.3,81.9l0.1,1.5c-0.5,0.5-1,1-1.5,1.5l-0.1-1.5C1026.3,83,1026.8,82.5,1027.3,81.9z
	 M1027.6,85.7l0.1,1.5c-0.5,0.5-1,1-1.5,1.5l-0.1-1.5C1026.6,86.7,1027.1,86.2,1027.6,85.7z M1028.7,63.3c-0.5,0.6-1,1.2-1.5,1.7
	l-0.1-1.6c0.5-0.6,1-1.2,1.5-1.8L1028.7,63.3z M1028.1,58.3l0.1,1.6c-0.5,0.6-1,1.2-1.5,1.7l-0.1-1.6
	C1027.1,59.5,1027.6,58.9,1028.1,58.3z M1026.4,70.1c-0.5,0.5-1,1.1-1.5,1.6l-0.1-1.6c0.3-0.3,0.5-0.6,0.8-0.9
	c0.2-0.3,0.5-0.5,0.7-0.8L1026.4,70.1z M1024.9,88.4l0.1,1.5c-0.5,0.5-1,1-1.5,1.4l-0.1-1.5C1023.9,89.3,1024.4,88.9,1024.9,88.4z
	 M1023.3,87.6l-0.1-1.5c0.5-0.5,1-1,1.5-1.5l0.1,1.5C1024.3,86.7,1023.8,87.1,1023.3,87.6z M1024.6,66.3c0.5-0.5,1-1.1,1.5-1.6
	l0.1,1.6c-0.2,0.3-0.5,0.5-0.7,0.8c-0.3,0.3-0.5,0.6-0.8,0.8L1024.6,66.3C1024.6,66.4,1024.6,66.4,1024.6,66.3z M1024.4,81.7
	c-0.5,0.5-1,1-1.5,1.5l-0.1-1.5c0.5-0.5,1-1,1.5-1.5L1024.4,81.7z M1024.1,77.5c-0.5,0.5-1,1-1.5,1.5l-0.1-1.5c0.5-0.5,1-1,1.5-1.5
	L1024.1,77.5z M1023.8,73c-0.5,0.5-1,1-1.5,1.6l-0.1-1.5c0.5-0.5,1-1,1.5-1.6L1023.8,73z M1022.3,90.9l0.1,1.5
	c-0.5,0.5-1,0.9-1.5,1.4l-0.1-1.5C1021.3,91.8,1021.8,91.4,1022.3,90.9z M1020.6,90.1l-0.1-1.5c0.5-0.5,1-0.9,1.5-1.4l0.1,1.5
	C1021.6,89.2,1021.1,89.6,1020.6,90.1z M1023.4,67.7l0.1,1.6c-0.5,0.5-1,1.1-1.5,1.6l-0.1-1.5C1022.4,68.7,1022.9,68.2,1023.4,67.7z
	 M1021.8,84.3c-0.5,0.5-1,1-1.5,1.4l-0.1-1.5c0.5-0.5,1-1,1.5-1.5L1021.8,84.3z M1021.5,80.1c-0.5,0.5-1,1-1.5,1.5l-0.1-1.5
	c0.5-0.5,1-1,1.5-1.5L1021.5,80.1z M1021.1,75.7c-0.5,0.5-1,1-1.5,1.5l-0.1-1.5c0.5-0.5,1-1,1.5-1.5L1021.1,75.7z M1019.6,93.4
	l0.1,1.5c-0.5,0.5-1,0.9-1.5,1.3l-0.1-1.4C1018.6,94.3,1019.1,93.8,1019.6,93.4z M1017.9,92.5l-0.1-1.4c0.5-0.5,1-0.9,1.5-1.4
	l0.1,1.5C1018.9,91.6,1018.4,92.1,1017.9,92.5z M1020.8,70.4l0.1,1.5c-0.5,0.5-1,1-1.5,1.5l-0.1-1.4
	C1019.8,71.5,1020.3,70.9,1020.8,70.4z M1019.1,86.9c-0.5,0.5-1,0.9-1.5,1.4l-0.1-1.5c0.5-0.5,1-0.9,1.5-1.4L1019.1,86.9z
	 M1018.8,82.7c-0.5,0.5-1,0.9-1.5,1.4l-0.1-1.5c0.5-0.5,1-0.9,1.5-1.4L1018.8,82.7z M1018.4,78.4c-0.5,0.5-1,1-1.5,1.4l-0.1-1.5
	c0.5-0.5,1-1,1.5-1.5L1018.4,78.4z M1018.1,73.2l0.1,1.5c-0.5,0.5-1,1-1.5,1.5l-0.1-1.5C1017.1,74.1,1017.6,73.7,1018.1,73.2z
	 M1016.8,93.5c-0.5,0.4-1,0.9-1.5,1.3l-0.1-1.4c0.5-0.4,1-0.9,1.5-1.3L1016.8,93.5z M1016.5,89.3c-0.5,0.5-1,0.9-1.5,1.4l-0.1-1.4
	c0.5-0.5,1-0.9,1.5-1.4L1016.5,89.3z M1016.2,85.2c-0.5,0.5-1,0.9-1.5,1.4l-0.1-1.4c0.5-0.5,1-0.9,1.5-1.4L1016.2,85.2z
	 M1015.8,80.9c-0.5,0.5-1,0.9-1.5,1.4l-0.1-1.5c0.5-0.5,1-0.9,1.5-1.4L1015.8,80.9z M1015.4,75.7l0.1,1.5c-0.5,0.5-1,0.9-1.5,1.4
	l-0.1-1.5C1014.4,76.7,1014.9,76.2,1015.4,75.7z M1014.1,95.9c-0.5,0.4-1,0.8-1.5,1.3l-0.1-1.4c0.5-0.4,1-0.8,1.5-1.3L1014.1,95.9z
	 M1013.8,91.7c-0.5,0.4-1,0.9-1.5,1.3l-0.1-1.4c0.5-0.4,1-0.9,1.5-1.3L1013.8,91.7z M1013.4,87.6c-0.5,0.4-1,0.9-1.5,1.3l-0.1-1.4
	c0.5-0.4,1-0.9,1.5-1.3L1013.4,87.6z M1013.1,83.4c-0.5,0.5-1,0.9-1.5,1.4l-0.1-1.4c0.5-0.5,1-0.9,1.5-1.4L1013.1,83.4z
	 M1012.7,78.2l0.1,1.5c-0.5,0.5-1,0.9-1.5,1.4l-0.1-1.4C1011.7,79.2,1012.2,78.7,1012.7,78.2z M1011.3,98.1c-0.5,0.4-1,0.8-1.5,1.2
	l-0.1-1.4c0.5-0.4,1-0.8,1.5-1.2L1011.3,98.1z M1011,94.1c-0.5,0.4-1,0.8-1.5,1.3l-0.1-1.4c0.5-0.4,1-0.8,1.5-1.3L1011,94.1z
	 M1010.7,89.9c-0.5,0.4-1,0.8-1.5,1.3l-0.1-1.4c0.5-0.4,1-0.8,1.5-1.3L1010.7,89.9z M1010.4,85.8c-0.5,0.4-1,0.9-1.5,1.3l-0.1-1.4
	c0.5-0.4,1-0.9,1.5-1.3L1010.4,85.8z M1010,80.7l0.1,1.4c-0.5,0.4-1,0.9-1.5,1.3l-0.1-1.4C1009,81.6,1009.5,81.2,1010,80.7z
	 M1008.6,100.3c-0.5,0.4-1,0.8-1.5,1.2l-0.1-1.4c0.5-0.4,1-0.8,1.5-1.2L1008.6,100.3z M1008.3,96.3c-0.5,0.4-1,0.8-1.5,1.2l-0.1-1.4
	c0.5-0.4,1-0.8,1.5-1.2L1008.3,96.3z M1008,92.2c-0.5,0.4-1,0.8-1.5,1.2l-0.2-1.4c0.5-0.4,1-0.8,1.5-1.2L1008,92.2z M1007.7,88.1
	c-0.5,0.4-1,0.8-1.5,1.3l-0.1-1.4c0.5-0.4,1-0.8,1.5-1.3L1007.7,88.1z M1007.3,83.1l0.1,1.4c-0.5,0.4-1,0.9-1.5,1.3l-0.1-1.4
	C1006.3,83.9,1006.8,83.5,1007.3,83.1z M1005.9,102.4c-0.5,0.4-1,0.8-1.5,1.1l-0.1-1.3c0.5-0.4,1-0.8,1.5-1.2L1005.9,102.4z
	 M1005.6,98.4c-0.5,0.4-1,0.8-1.5,1.2l-0.1-1.4c0.5-0.4,1-0.8,1.5-1.2L1005.6,98.4z M1005.3,94.3c-0.5,0.4-1,0.8-1.5,1.2l-0.1-1.4
	c0.5-0.4,1-0.8,1.5-1.2L1005.3,94.3z M1005,90.3c-0.5,0.4-1,0.8-1.5,1.2l-0.1-1.4c0.5-0.4,1-0.8,1.5-1.2L1005,90.3z M1003.4,108
	c-0.5,0.4-1,0.7-1.5,1.1l-0.1-1.3c0.5-0.4,1-0.7,1.5-1.1L1003.4,108z M1004.6,85.3l0.1,1.4c-0.5,0.4-1,0.8-1.5,1.2l-0.1-1.4
	C1003.6,86.2,1004.1,85.7,1004.6,85.3z M1003.1,104.4c-0.5,0.4-1,0.7-1.5,1.1l-0.1-1.3c0.5-0.4,1-0.7,1.5-1.1L1003.1,104.4z
	 M1002.9,100.5c-0.5,0.4-1,0.8-1.5,1.1l-0.1-1.4c0.5-0.4,1-0.8,1.5-1.1L1002.9,100.5z M1002.5,96.5c-0.5,0.4-1,0.8-1.5,1.1l-0.1-1.3
	c0.5-0.4,1-0.8,1.5-1.2L1002.5,96.5z M1002.2,92.5c-0.5,0.4-1,0.8-1.5,1.2l-0.1-1.4c0.5-0.4,1-0.8,1.5-1.2L1002.2,92.5z
	 M1001.9,87.5l0.1,1.4c-0.5,0.4-1,0.8-1.5,1.2l-0.1-1.4C1000.9,88.3,1001.4,87.9,1001.9,87.5z M1000.5,106.3c-0.5,0.4-1,0.7-1.5,1.1
	l-0.1-1.3c0.5-0.4,1-0.7,1.5-1.1L1000.5,106.3z M1000.2,102.5c-0.5,0.4-1,0.7-1.5,1.1l-0.1-1.3c0.5-0.4,1-0.7,1.5-1.1L1000.2,102.5z
	 M999.9,98.4c-0.5,0.4-1,0.7-1.5,1.1l-0.1-1.3c0.5-0.4,1-0.7,1.5-1.1L999.9,98.4z M999.6,94.5c-0.5,0.4-1,0.8-1.5,1.1l-0.1-1.3
	c0.5-0.4,1-0.8,1.5-1.1L999.6,94.5z M999.2,89.6l0.1,1.4c-0.5,0.4-1,0.8-1.5,1.1l-0.1-1.4C998.2,90.4,998.7,90,999.2,89.6z
	 M997.7,108.2c-0.5,0.3-1,0.7-1.5,1l-0.1-1.3c0.5-0.3,1-0.7,1.5-1L997.7,108.2z M997.4,104.4c-0.5,0.4-1,0.7-1.5,1.1l-0.1-1.3
	c0.5-0.4,1-0.7,1.5-1.1L997.4,104.4z M997.1,100.4c-0.5,0.4-1,0.7-1.5,1.1l-0.1-1.3c0.5-0.4,1-0.7,1.5-1.1L997.1,100.4z M996.8,96.5
	c-0.5,0.4-1,0.7-1.5,1.1l-0.1-1.3c0.5-0.4,1-0.7,1.5-1.1L996.8,96.5z M996.5,91.7l0.1,1.3c-0.5,0.4-1,0.7-1.5,1.1l-0.1-1.3
	C995.5,92.4,996,92,996.5,91.7z M995.1,110c-0.5,0.3-1,0.7-1.5,1l-0.1-1.3c0.5-0.3,1-0.7,1.5-1L995.1,110z M994.8,106.3
	c-0.5,0.3-1,0.7-1.5,1l-0.1-1.3c0.5-0.3,1-0.7,1.5-1L994.8,106.3z M994.5,102.2c-0.5,0.3-1,0.7-1.5,1l-0.1-1.3c0.5-0.3,1-0.7,1.5-1
	L994.5,102.2z M994.2,98.4c-0.5,0.4-1,0.7-1.5,1.1l-0.1-1.3c0.5-0.4,1-0.7,1.5-1.1L994.2,98.4z M993.8,93.6l0.1,1.3
	c-0.5,0.4-1,0.7-1.5,1.1l-0.1-1.3C992.8,94.3,993.3,94,993.8,93.6z M992.3,111.8c-0.5,0.3-1,0.6-1.5,1l-0.1-1.3c0.5-0.3,1-0.6,1.5-1
	L992.3,111.8z M992,108.1c-0.5,0.3-1,0.7-1.5,1l-0.1-1.3c0.5-0.3,1-0.7,1.5-1L992,108.1z M991.7,104.1c-0.5,0.3-1,0.7-1.5,1
	l-0.1-1.3c0.5-0.3,1-0.7,1.5-1L991.7,104.1z M991.4,100.3c-0.5,0.3-1,0.7-1.5,1l-0.1-1.3c0.5-0.3,1-0.7,1.5-1L991.4,100.3z
	 M991.1,95.5l0.1,1.3c-0.5,0.3-1,0.7-1.5,1l-0.1-1.3C990,96.2,990.5,95.9,991.1,95.5z M989.6,113.4c-0.5,0.3-1,0.6-1.5,0.9L988,113
	c0.5-0.3,1-0.6,1.5-0.9L989.6,113.4z M989.3,109.8c-0.5,0.3-1,0.6-1.5,1l-0.1-1.3c0.5-0.3,1-0.6,1.5-1L989.3,109.8z M989,105.8
	c-0.5,0.3-1,0.6-1.5,1l-0.1-1.3c0.5-0.3,1-0.6,1.5-1L989,105.8z M988.8,102.1c-0.5,0.3-1,0.7-1.5,1l-0.1-1.3c0.5-0.3,1-0.7,1.5-1
	L988.8,102.1z M988.4,97.3l0.1,1.3c-0.5,0.3-1,0.7-1.5,1l-0.1-1.3C987.4,98,987.9,97.7,988.4,97.3z M986.8,115.1
	c-0.5,0.3-1,0.6-1.5,0.9l-0.1-1.3c0.5-0.3,1-0.6,1.5-0.9L986.8,115.1z M986.6,111.5c-0.5,0.3-1,0.6-1.5,0.9l-0.1-1.3
	c0.5-0.3,1-0.6,1.5-0.9L986.6,111.5z M986.3,107.5c-0.5,0.3-1,0.6-1.5,0.9l-0.1-1.3c0.5-0.3,1-0.6,1.5-0.9L986.3,107.5z M986,103.9
	c-0.5,0.3-1,0.6-1.5,1l-0.1-1.3c0.5-0.3,1-0.6,1.5-1L986,103.9z M985.6,99.1l0.1,1.3c-0.5,0.3-1,0.6-1.5,1l-0.1-1.3
	C984.6,99.8,985.1,99.4,985.6,99.1z M984.1,116.6c-0.5,0.3-1,0.6-1.6,0.8l-0.1-1.2c0.5-0.3,1-0.6,1.6-0.9L984.1,116.6z M983.8,113.1
	c-0.5,0.3-1,0.6-1.5,0.9l-0.1-1.3c0.5-0.3,1-0.6,1.5-0.9L983.8,113.1z M983.5,109.1c-0.5,0.3-1,0.6-1.5,0.9l-0.1-1.3
	c0.5-0.3,1-0.6,1.5-0.9L983.5,109.1z M983.2,105.5c-0.5,0.3-1,0.6-1.5,0.9l-0.1-1.3c0.5-0.3,1-0.6,1.5-0.9L983.2,105.5z
	 M982.9,100.8l0.1,1.3c-0.5,0.3-1,0.6-1.5,0.9l-0.1-1.3C981.9,101.4,982.4,101.1,982.9,100.8z M981.3,118.1c-0.5,0.3-1,0.5-1.6,0.8
	l-0.1-1.2c0.5-0.3,1-0.5,1.6-0.8L981.3,118.1z M981,114.7c-0.5,0.3-1,0.6-1.6,0.8l-0.1-1.2c0.5-0.3,1-0.6,1.6-0.8L981,114.7z
	 M980.7,110.7c-0.5,0.3-1,0.6-1.6,0.8l-0.1-1.2c0.5-0.3,1-0.6,1.6-0.9L980.7,110.7z M980.5,107.2c-0.5,0.3-1,0.6-1.5,0.9l-0.1-1.3
	c0.5-0.3,1-0.6,1.5-0.9L980.5,107.2z M980.1,102.5l0.1,1.3c-0.5,0.3-1,0.6-1.5,0.9l-0.1-1.3C979.1,103.1,979.6,102.8,980.1,102.5z
	 M978.6,119.5c-0.5,0.3-1,0.5-1.6,0.8l-0.1-1.2c0.5-0.3,1-0.5,1.6-0.8L978.6,119.5z M978.3,116.1c-0.5,0.3-1,0.5-1.6,0.8l-0.1-1.2
	c0.5-0.3,1-0.5,1.6-0.8L978.3,116.1z M978,112.1c-0.5,0.3-1,0.5-1.6,0.8l-0.1-1.2c0.5-0.3,1-0.5,1.6-0.8L978,112.1z M977.8,108.7
	c-0.5,0.3-1,0.6-1.6,0.8l-0.1-1.2c0.5-0.3,1-0.6,1.6-0.8L977.8,108.7z M977.4,104l0.1,1.3c-0.5,0.3-1,0.6-1.6,0.9l-0.1-1.2
	C976.4,104.6,976.9,104.3,977.4,104z M975.6,117.5c-0.5,0.3-1,0.5-1.6,0.8l-0.1-1.2c0.5-0.3,1-0.5,1.6-0.8L975.6,117.5z
	 M975.3,113.6c-0.5,0.3-1,0.5-1.6,0.8l-0.1-1.2c0.5-0.3,1-0.5,1.6-0.8L975.3,113.6z M975,110.2c-0.5,0.3-1,0.5-1.6,0.8l-0.1-1.2
	c0.5-0.3,1-0.5,1.6-0.8L975,110.2z M974.6,105.5l0.1,1.2c-0.5,0.3-1,0.5-1.6,0.8l-0.1-1.2C973.6,106.1,974.1,105.8,974.6,105.5z
	 M972.8,118.9c-0.5,0.2-1,0.5-1.6,0.7l-0.1-1.2c0.5-0.2,1-0.5,1.6-0.7L972.8,118.9z M972.5,114.9c-0.5,0.2-1,0.5-1.6,0.7l-0.1-1.2
	c0.5-0.2,1-0.5,1.6-0.7L972.5,114.9z M972.3,111.5c-0.5,0.3-1,0.5-1.6,0.8l-0.1-1.2c0.5-0.3,1-0.5,1.6-0.8L972.3,111.5z M971.9,107
	l0.1,1.2c-0.5,0.3-1,0.5-1.6,0.8l-0.1-1.2C970.9,107.5,971.4,107.2,971.9,107z M970.3,123.4c-0.5,0.2-1,0.4-1.6,0.7l-0.1-1.2
	c0.5-0.2,1-0.4,1.6-0.7L970.3,123.4z M970,120.2c-0.5,0.2-1,0.5-1.6,0.7l-0.1-1.2c0.5-0.2,1-0.5,1.6-0.7L970,120.2z M969.7,116.2
	c-0.5,0.2-1,0.5-1.6,0.7l-0.1-1.2c0.5-0.2,1-0.5,1.6-0.7L969.7,116.2z M969.5,112.9c-0.5,0.2-1,0.5-1.6,0.7l-0.1-1.2
	c0.5-0.2,1-0.5,1.6-0.7L969.5,112.9z M969.1,108.3l0.1,1.2c-0.5,0.3-1,0.5-1.6,0.7l-0.1-1.2C968.1,108.8,968.6,108.6,969.1,108.3z
	 M967,117.4c-0.5,0.2-1,0.4-1.6,0.7l-0.1-1.2c0.5-0.2,1-0.4,1.6-0.7L967,117.4z M966.8,114.2c-0.5,0.2-1,0.5-1.6,0.7l-0.1-1.2
	c0.5-0.2,1-0.5,1.6-0.7L966.8,114.2z M966.4,109.6l0.1,1.2c-0.5,0.2-1,0.5-1.6,0.7l-0.1-1.2C965.4,110.1,965.9,109.9,966.4,109.6z
	 M964.2,118.6c-0.5,0.2-1,0.4-1.6,0.6l-0.1-1.2c0.5-0.2,1-0.4,1.6-0.6L964.2,118.6z M964,115.4c-0.5,0.2-1,0.4-1.6,0.7l-0.1-1.2
	c0.5-0.2,1-0.4,1.6-0.7L964,115.4z M963.6,110.9l0.1,1.2c-0.5,0.2-1,0.4-1.6,0.7l-0.1-1.2C962.6,111.3,963.1,111.1,963.6,110.9z
	 M961.4,119.7c-0.5,0.2-1,0.4-1.6,0.6l-0.1-1.2c0.5-0.2,1-0.4,1.6-0.6L961.4,119.7z M961.2,116.5c-0.5,0.2-1,0.4-1.6,0.6l-0.1-1.2
	c0.5-0.2,1-0.4,1.6-0.6L961.2,116.5z M960.9,112.1l0.1,1.2c-0.5,0.2-1,0.4-1.6,0.6l-0.1-1.2C959.8,112.5,960.3,112.3,960.9,112.1z
	 M958.6,120.7c-0.5,0.2-1.1,0.4-1.6,0.5l-0.1-1.2c0.5-0.2,1-0.4,1.6-0.5L958.6,120.7z M955.5,137.4c0.5-0.1,1.1-0.3,1.6-0.4l0.1,1.2
	c-0.5,0.1-1.1,0.3-1.6,0.4L955.5,137.4z M958.4,117.6c-0.5,0.2-1,0.4-1.6,0.6l-0.1-1.2c0.5-0.2,1-0.4,1.6-0.6L958.4,117.6z
	 M958,113.2l0.1,1.2c-0.5,0.2-1,0.4-1.6,0.6l-0.1-1.2C957,113.6,957.5,113.4,958,113.2z M955.7,118.6c-0.5,0.2-1.1,0.4-1.6,0.5
	l-0.1-1.2c0.5-0.2,1-0.4,1.6-0.5L955.7,118.6z M955.3,114.2l0.1,1.2c-0.5,0.2-1.1,0.4-1.6,0.5l-0.1-1.2
	C954.3,114.6,954.8,114.4,955.3,114.2z M953,122.5c-0.5,0.2-1.1,0.3-1.6,0.5l-0.1-1.2c0.5-0.1,1.1-0.3,1.6-0.5L953,122.5z
	 M952.8,119.6c-0.5,0.2-1.1,0.3-1.6,0.5l-0.1-1.2c0.5-0.2,1.1-0.3,1.6-0.5L952.8,119.6z M952.5,115.2l0.1,1.2
	c-0.5,0.2-1.1,0.3-1.6,0.5l-0.1-1.2C951.4,115.5,952,115.3,952.5,115.2z M949.8,117.2c-0.5,0.2-1.1,0.3-1.6,0.5l-0.1-1.2
	c0.5-0.1,1.1-0.3,1.6-0.5L949.8,117.2z M949.5,113.4l0.1,1.2c-0.5,0.2-1.1,0.3-1.6,0.5l-0.1-1.2C948.4,113.7,949,113.5,949.5,113.4z
	 M947.9,130.6c-0.5,0.1-1.1,0.2-1.6,0.3l-0.1-1.2c0.5-0.1,1.1-0.2,1.6-0.3L947.9,130.6z M947.7,127.8c-0.5,0.1-1.1,0.2-1.6,0.4
	L946,127c0.5-0.1,1.1-0.2,1.6-0.4L947.7,127.8z M947,118c-0.5,0.1-1.1,0.3-1.6,0.4l-0.1-1.2c0.5-0.1,1.1-0.3,1.6-0.4L947,118z
	 M945.4,134.2c-0.2,0-0.5,0.1-0.7,0.1c-0.3-0.3-0.5-0.7-0.7-1.1c0.4-0.1,0.9-0.1,1.3-0.2L945.4,134.2z M946.5,114.1l0.1,1.2
	c-0.5,0.1-1.1,0.3-1.6,0.4l-0.1-1.2C945.5,114.4,946,114.2,946.5,114.1z M936.6,115.8c0.3,0,0.6-0.1,0.8-0.1c0.3,0,0.5-0.1,0.8-0.1
	l0.1,1.2c-0.2,0-0.5,0.1-0.7,0.1c-0.3,0.1-0.6,0.1-0.9,0.1L936.6,115.8z M936.9,119c0.3,0,0.6-0.1,0.8-0.1c0.3,0,0.5-0.1,0.8-0.1
	l0.1,1.2c-0.2,0-0.5,0.1-0.7,0.1c-0.3,0.1-0.6,0.1-0.9,0.1L936.9,119z M937.1,122.1c0.5-0.1,1.1-0.2,1.6-0.2l0.1,1.2
	c-0.5,0.1-1.1,0.2-1.6,0.2L937.1,122.1z M938.4,125.6l-0.8-1.1c0.4-0.1,0.9-0.1,1.3-0.2l0.1,1.1
	C938.8,125.6,938.6,125.6,938.4,125.6z M939.5,115.5c0.5-0.1,1.1-0.2,1.6-0.3l0.1,1.2c-0.5,0.1-1.1,0.2-1.6,0.3L939.5,115.5z
	 M939.7,118.5c0.5-0.1,1.1-0.2,1.6-0.3l0.1,1.2c-0.5,0.1-1.1,0.2-1.6,0.3L939.7,118.5z M939.9,121.6c0.5-0.1,1.1-0.2,1.6-0.3
	l0.1,1.2c-0.5,0.1-1.1,0.2-1.6,0.3L939.9,121.6z M940.1,124.2c0.5-0.1,1.1-0.2,1.6-0.3l0.1,1.1c-0.1,0-0.2,0-0.3,0.1
	c-0.4,0.1-0.8,0.1-1.3,0.2L940.1,124.2z M941,129.1l-0.5-0.7v-0.3c0.5-0.1,1.1-0.2,1.6-0.2l0.1,1.1C941.7,129,941.4,129.1,941,129.1
	z M942,130.4c0.1,0,0.2,0,0.3,0v0.4L942,130.4z M942.2,115.1c0.5-0.1,1.1-0.2,1.6-0.4l0.1,1.2c-0.5,0.1-1.1,0.2-1.6,0.4L942.2,115.1
	z M942.6,117.9c0.5-0.1,1.1-0.2,1.6-0.4l0.1,1.2c-0.5,0.1-1.1,0.2-1.6,0.4L942.6,117.9z M942.8,121.1c0.5-0.1,1.1-0.2,1.6-0.4
	l0.1,1.2c-0.5,0.1-1.1,0.2-1.6,0.4L942.8,121.1z M943,123.8c0.5-0.1,1.1-0.2,1.6-0.3l0.1,1.2c-0.5,0.1-1.1,0.2-1.6,0.3L943,123.8z
	 M943.3,127.6c0.5-0.1,1.1-0.2,1.6-0.3l0.1,1.2c-0.5,0.1-1.1,0.2-1.6,0.3L943.3,127.6z M943.5,130.2c0.5-0.1,1.1-0.2,1.6-0.3
	l0.1,1.1c-0.1,0-0.2,0-0.3,0.1c-0.4,0.1-0.8,0.1-1.3,0.2L943.5,130.2z M945.6,120.4c0.5-0.1,1.1-0.3,1.6-0.4l0.1,1.2
	c-0.5,0.1-1.1,0.3-1.6,0.4L945.6,120.4z M945.8,123.2c0.5-0.1,1.1-0.2,1.6-0.4l0.1,1.2c-0.5,0.1-1.1,0.2-1.6,0.4L945.8,123.2z
	 M946.5,132.8c0.5-0.1,1.1-0.2,1.6-0.3l0.1,1.2c-0.5,0.1-1.1,0.2-1.6,0.3L946.5,132.8z M947,136.5c-0.1-0.1-0.2-0.1-0.3-0.2
	l-0.1-0.9c0.5-0.1,1.1-0.2,1.6-0.2l0.1,1.2C947.9,136.4,947.5,136.5,947,136.5z M948.4,119.7c0.5-0.1,1.1-0.3,1.6-0.5l0.1,1.2
	c-0.5,0.2-1.1,0.3-1.6,0.4L948.4,119.7z M948.6,122.5c0.5-0.1,1.1-0.3,1.6-0.4l0.1,1.2c-0.5,0.1-1.1,0.3-1.6,0.4L948.6,122.5z
	 M950.5,126l0.1,1.2c-0.5,0.1-1.1,0.3-1.6,0.4l-0.1-1.2C949.4,126.2,950,126.1,950.5,126z M949.1,129.1c0.5-0.1,1.1-0.2,1.6-0.4
	l0.1,1.2c-0.5,0.1-1.1,0.2-1.6,0.4L949.1,129.1z M949.4,132.3c0.5-0.1,1.1-0.2,1.6-0.3l0.1,1.2c-0.5,0.1-1.1,0.2-1.6,0.3
	L949.4,132.3z M949.6,135c0.5-0.1,1.1-0.2,1.6-0.3l0.1,1.2c-0.5,0.1-1.1,0.2-1.6,0.3L949.6,135z M951.4,138.3v0.5
	c-0.3-0.1-0.7-0.2-1-0.4C950.8,138.4,951.1,138.3,951.4,138.3z M951.7,125.7c0.5-0.1,1.1-0.3,1.6-0.5l0.1,1.2
	c-0.5,0.2-1.1,0.3-1.6,0.4L951.7,125.7z M951.9,128.5c0.5-0.1,1.1-0.3,1.6-0.4l0.1,1.2c-0.5,0.1-1.1,0.3-1.6,0.4L951.9,128.5z
	 M952.1,131.7c0.5-0.1,1.1-0.3,1.6-0.4l0.1,1.2c-0.5,0.1-1.1,0.3-1.6,0.4L952.1,131.7z M952.3,134.4c0.5-0.1,1.1-0.2,1.6-0.4
	l0.1,1.2c-0.5,0.1-1.1,0.2-1.6,0.4L952.3,134.4z M952.7,139.2l-0.1-1.2c0.5-0.1,1.1-0.2,1.6-0.3l0.1,1.2
	C953.8,139,953.2,139.1,952.7,139.2z M954.2,121c0.5-0.2,1.1-0.3,1.6-0.5l0.1,1.2c-0.5,0.2-1.1,0.3-1.6,0.5L954.2,121z M954.5,124.8
	c0.5-0.2,1.1-0.3,1.6-0.5l0.1,1.2c-0.5,0.2-1.1,0.3-1.6,0.5L954.5,124.8z M954.7,127.7c0.5-0.1,1.1-0.3,1.6-0.5l0.1,1.2
	c-0.5,0.2-1.1,0.3-1.6,0.5L954.7,127.7z M955,130.9c0.5-0.1,1.1-0.3,1.6-0.4l0.1,1.2c-0.5,0.2-1.1,0.3-1.6,0.4L955,130.9z
	 M955.2,133.8c0.5-0.1,1.1-0.3,1.6-0.4l0.1,1.2c-0.5,0.1-1.1,0.3-1.6,0.4L955.2,133.8z M956.4,140c0.3-0.1,0.6-0.1,0.8-0.2v0.3
	C957,140.1,956.7,140,956.4,140z M957.2,124c0.5-0.2,1-0.4,1.6-0.5l0.1,1.2c-0.5,0.2-1.1,0.4-1.6,0.5L957.2,124z M957.5,126.9
	c0.5-0.2,1.1-0.3,1.6-0.5l0.1,1.2c-0.5,0.2-1.1,0.3-1.6,0.5L957.5,126.9z M957.7,130.1c0.5-0.2,1.1-0.3,1.6-0.5l0.1,1.2
	c-0.5,0.2-1.1,0.3-1.6,0.5L957.7,130.1z M957.9,133c0.5-0.1,1.1-0.3,1.6-0.5l0.1,1.2c-0.5,0.2-1.1,0.3-1.6,0.4L957.9,133z
	 M958.2,136.7c0.5-0.1,1.1-0.3,1.6-0.4l0.1,1.2c-0.5,0.1-1.1,0.3-1.6,0.4L958.2,136.7z M960,140.3c-0.5,0-1-0.1-1.5-0.1l-0.1-0.7
	c0.5-0.1,1.1-0.3,1.6-0.4V140.3L960,140.3z M960.1,123c0.5-0.2,1-0.4,1.6-0.6l0.1,1.2c-0.5,0.2-1,0.4-1.6,0.6L960.1,123z M960.3,126
	c0.5-0.2,1-0.4,1.6-0.5l0.1,1.2c-0.5,0.2-1.1,0.4-1.6,0.5L960.3,126z M960.5,129.2c0.5-0.2,1-0.4,1.6-0.5l0.1,1.2
	c-0.5,0.2-1.1,0.4-1.6,0.5L960.5,129.2z M960.8,132.2c0.5-0.2,1.1-0.3,1.6-0.5l0.1,1.2c-0.5,0.2-1.1,0.3-1.6,0.5L960.8,132.2z
	 M961,135.9c0.5-0.2,1.1-0.3,1.6-0.5l0.1,1.2c-0.5,0.2-1.1,0.3-1.6,0.5L961,135.9z M961.4,140l-0.1-1.2c0.5-0.1,1.1-0.3,1.6-0.4
	l0.1,1.2C962.4,139.7,961.9,139.8,961.4,140z M962.9,121.9c0.5-0.2,1-0.4,1.6-0.6l0.1,1.2c-0.5,0.2-1,0.4-1.6,0.6L962.9,121.9z
	 M963.1,125c0.5-0.2,1-0.4,1.6-0.6l0.1,1.2c-0.5,0.2-1,0.4-1.6,0.6L963.1,125z M963.4,129.5l-0.1-1.2c0.5-0.2,1-0.4,1.6-0.6l0.1,1.2
	C964.5,129.1,963.9,129.3,963.4,129.5z M963.6,131.3c0.5-0.2,1-0.4,1.6-0.5l0.1,1.2c-0.5,0.2-1.1,0.4-1.6,0.5L963.6,131.3z
	 M963.8,135c0.5-0.2,1-0.3,1.6-0.5l0.1,1.2c-0.5,0.2-1.1,0.4-1.6,0.5L963.8,135z M964.2,139.2l-0.1-1.2c0.5-0.2,1.1-0.3,1.6-0.5
	l0.1,1.2C965.2,138.8,964.7,139,964.2,139.2z M965.7,120.8c0.5-0.2,1-0.4,1.6-0.7l0.1,1.2c-0.5,0.2-1,0.4-1.6,0.7L965.7,120.8z
	 M965.9,124c0.5-0.2,1-0.4,1.6-0.6l0.1,1.2c-0.5,0.2-1,0.4-1.6,0.6L965.9,124z M966.2,127.2c0.5-0.2,1-0.4,1.6-0.6l0.1,1.2
	c-0.5,0.2-1,0.4-1.6,0.6L966.2,127.2z M966.4,130.3c0.5-0.2,1-0.4,1.6-0.6l0.1,1.2c-0.5,0.2-1,0.4-1.6,0.6L966.4,130.3z
	 M966.7,134.1c0.5-0.2,1-0.4,1.6-0.6l0.1,1.2c-0.5,0.2-1,0.4-1.6,0.6L966.7,134.1z M966.9,137.1c0.5-0.2,1-0.4,1.6-0.5l0.1,1.2
	c-0.5,0.2-1.1,0.4-1.6,0.5L966.9,137.1z M967.1,140.2L967.1,140.2c0.5-0.2,1-0.4,1.6-0.6v0.4C968.2,140.1,967.7,140.1,967.1,140.2z
	 M968.9,126.2c0.5-0.2,1-0.4,1.6-0.7l0.1,1.2c-0.5,0.2-1,0.4-1.6,0.6L968.9,126.2z M969.1,129.3c0.5-0.2,1-0.4,1.6-0.6l0.1,1.2
	c-0.5,0.2-1,0.4-1.6,0.6L969.1,129.3z M969.4,133.1c0.5-0.2,1-0.4,1.6-0.6l0.1,1.2c-0.5,0.2-1,0.4-1.6,0.6L969.4,133.1z
	 M969.6,136.2c0.5-0.2,1-0.4,1.6-0.6l0.1,1.2c-0.5,0.2-1,0.4-1.6,0.6L969.6,136.2z M969.9,139.8v-0.6c0.5-0.2,1-0.4,1.6-0.6l0.1,0.9
	C971,139.7,970.4,139.8,969.9,139.8z M971.4,121.7c0.5-0.2,1-0.5,1.6-0.7l0.1,1.2c-0.5,0.2-1,0.5-1.6,0.7L971.4,121.7z M971.7,125
	c0.5-0.2,1-0.5,1.6-0.7l0.1,1.2c-0.5,0.2-1,0.5-1.6,0.7L971.7,125z M971.9,128.2c0.5-0.2,1-0.4,1.6-0.7l0.1,1.2
	c-0.5,0.2-1,0.4-1.6,0.7L971.9,128.2z M972.2,132c0.5-0.2,1-0.4,1.6-0.6l0.1,1.2c-0.5,0.2-1,0.4-1.6,0.6L972.2,132z M972.5,136.3
	l-0.1-1.2c0.5-0.2,1-0.4,1.6-0.6l0.1,1.2C973.6,135.9,973.1,136.1,972.5,136.3z M974.2,121.6l-0.1-1.2c0.5-0.2,1-0.5,1.6-0.7
	l0.1,1.2C975.3,121.1,974.8,121.4,974.2,121.6z M974.4,123.7c0.5-0.2,1-0.5,1.6-0.7l0.1,1.2c-0.5,0.2-1,0.5-1.6,0.7L974.4,123.7z
	 M974.7,127c0.5-0.2,1-0.5,1.6-0.7l0.1,1.2c-0.5,0.2-1,0.5-1.6,0.7L974.7,127z M974.9,130.8c0.5-0.2,1-0.5,1.6-0.7l0.1,1.2
	c-0.5,0.2-1,0.5-1.6,0.7L974.9,130.8z M975.2,134c0.5-0.2,1-0.4,1.6-0.7l0.1,1.2c-0.5,0.2-1,0.4-1.6,0.6L975.2,134z M975.5,138.3
	l-0.1-1.2c0.5-0.2,1-0.4,1.6-0.6l0.1,1.2C976.6,137.9,976,138.1,975.5,138.3z M977.2,122.4c0.5-0.3,1-0.5,1.6-0.8l0.1,1.2
	c-0.5,0.3-1,0.5-1.6,0.8L977.2,122.4z M977.5,125.7c0.5-0.2,1-0.5,1.6-0.7l0.1,1.2c-0.5,0.2-1,0.5-1.6,0.7L977.5,125.7z
	 M977.8,129.6c0.5-0.2,1-0.5,1.6-0.7l0.1,1.2c-0.5,0.2-1,0.5-1.6,0.7L977.8,129.6z M978,132.8c0.5-0.2,1-0.5,1.6-0.7l0.1,1.2
	c-0.5,0.2-1,0.5-1.6,0.7L978,132.8z M978.3,137.2l-0.1-1.2c0.5-0.2,1-0.4,1.6-0.7l0.1,1.2C979.4,136.8,978.9,137,978.3,137.2z
	 M979.9,121.1c0.5-0.3,1-0.5,1.6-0.8l0.1,1.2c-0.5,0.3-1,0.5-1.6,0.8L979.9,121.1z M980.2,124.4c0.5-0.3,1-0.5,1.6-0.8l0.1,1.2
	c-0.5,0.3-1,0.5-1.6,0.8L980.2,124.4z M980.5,128.3c0.5-0.3,1-0.5,1.6-0.8l0.1,1.2c-0.5,0.3-1,0.5-1.6,0.8L980.5,128.3z
	 M980.7,131.6c0.5-0.2,1-0.5,1.6-0.7l0.1,1.2c-0.5,0.2-1,0.5-1.6,0.7L980.7,131.6z M981,136l-0.1-1.2c0.5-0.2,1-0.5,1.6-0.7l0.1,1.2
	C982.1,135.6,981.6,135.8,981,136z M982.7,119.6c0.5-0.3,1-0.6,1.6-0.8v1.2c-0.5,0.3-1,0.6-1.6,0.8V119.6z M983,123
	c0.5-0.3,1-0.5,1.6-0.8l0.1,1.2c-0.5,0.3-1,0.5-1.6,0.8L983,123z M983.3,126.9c0.5-0.3,1-0.5,1.6-0.8l0.1,1.2
	c-0.5,0.3-1,0.5-1.6,0.8L983.3,126.9z M983.5,130.3c0.5-0.3,1-0.5,1.6-0.8l0.1,1.2c-0.5,0.3-1,0.5-1.6,0.8L983.5,130.3z
	 M983.8,134.8l-0.1-1.2c0.5-0.2,1-0.5,1.6-0.7l0.1,1.2C984.9,134.3,984.4,134.5,983.8,134.8z M985.4,118.1c0.5-0.3,1-0.6,1.5-0.9
	l0.1,1.3c-0.5,0.3-1,0.6-1.5,0.9L985.4,118.1z M985.7,121.6c0.5-0.3,1-0.6,1.6-0.8l0.1,1.3c-0.5,0.3-1,0.6-1.6,0.8L985.7,121.6z
	 M986,125.5c0.5-0.3,1-0.6,1.6-0.8l0.1,1.2c-0.5,0.3-1,0.6-1.6,0.8L986,125.5z M986.3,128.9c0.5-0.3,1-0.5,1.6-0.8l0.1,1.2
	c-0.5,0.3-1,0.5-1.6,0.8L986.3,128.9z M986.6,133.4l-0.1-1.2c0.5-0.3,1-0.5,1.6-0.8l0.1,1.2C987.6,132.9,987.1,133.2,986.6,133.4z
	 M988.2,116.5c0.5-0.3,1-0.6,1.5-0.9l0.1,1.3c-0.5,0.3-1,0.6-1.5,0.9L988.2,116.5z M988.5,120c0.5-0.3,1-0.6,1.5-0.9l0.1,1.3
	c-0.5,0.3-1,0.6-1.5,0.9L988.5,120z M988.8,124c0.5-0.3,1-0.6,1.5-0.9l0.1,1.3c-0.5,0.3-1,0.6-1.5,0.9L988.8,124z M989.1,127.4
	c0.5-0.3,1-0.6,1.6-0.8l0.1,1.3c-0.5,0.3-1,0.6-1.6,0.8L989.1,127.4z M989.4,132l-0.1-1.2c0.5-0.3,1-0.5,1.6-0.8l0.1,1.2
	C990.4,131.5,989.9,131.7,989.4,132z M990.9,114.9c0.5-0.3,1-0.6,1.5-1l0.1,1.3c-0.5,0.3-1,0.6-1.5,0.9L990.9,114.9z M991.2,118.5
	c0.5-0.3,1-0.6,1.5-0.9l0.1,1.3c-0.5,0.3-1,0.6-1.5,0.9L991.2,118.5z M991.5,122.4c0.5-0.3,1-0.6,1.5-0.9l0.1,1.3
	c-0.5,0.3-1,0.6-1.5,0.9L991.5,122.4z M991.7,126c0.5-0.3,1-0.6,1.5-0.9l0.1,1.3c-0.5,0.3-1,0.6-1.5,0.9L991.7,126z M992.1,130.6
	l-0.1-1.2c0.5-0.3,1-0.6,1.6-0.9l0.1,1.3C993.1,130,992.6,130.3,992.1,130.6z M993.7,113.2c0.5-0.3,1-0.7,1.5-1l0.1,1.3
	c-0.5,0.3-1,0.7-1.5,1L993.7,113.2z M994,116.8c0.5-0.3,1-0.6,1.5-1l0.1,1.3c-0.5,0.3-1,0.6-1.5,1L994,116.8z M994.3,120.8
	c0.5-0.3,1-0.6,1.5-0.9l0.1,1.3c-0.5,0.3-1,0.6-1.5,0.9L994.3,120.8z M994.5,124.4c0.5-0.3,1-0.6,1.5-0.9l0.1,1.3
	c-0.5,0.3-1,0.6-1.5,0.9L994.5,124.4z M994.9,129l-0.1-1.3c0.5-0.3,1-0.6,1.5-0.9l0.1,1.3C995.9,128.4,995.4,128.7,994.9,129z
	 M996.4,111.4c0.5-0.3,1-0.7,1.5-1l0.1,1.3c-0.5,0.3-1,0.7-1.5,1L996.4,111.4z M996.6,115.2c0.5-0.3,1-0.7,1.5-1l0.1,1.3
	c-0.5,0.3-1,0.7-1.5,1L996.6,115.2z M996.9,119.1c0.5-0.3,1-0.7,1.5-1l0.1,1.3c-0.5,0.3-1,0.7-1.5,1L996.9,119.1z M997.2,122.8
	c0.5-0.3,1-0.6,1.5-1l0.1,1.3c-0.5,0.3-1,0.6-1.5,0.9L997.2,122.8z M997.6,127.5l-0.1-1.3c0.5-0.3,1-0.6,1.5-0.9l0.1,1.3
	C998.6,126.9,998.1,127.2,997.6,127.5z M999.1,109.6c0.5-0.4,1-0.7,1.5-1.1l0.1,1.3c-0.5,0.4-1,0.7-1.5,1.1L999.1,109.6z
	 M999.4,113.3c0.5-0.3,1-0.7,1.5-1l0.1,1.3c-0.5,0.3-1,0.7-1.5,1L999.4,113.3z M999.7,117.3c0.5-0.3,1-0.7,1.5-1l0.1,1.3
	c-0.5,0.3-1,0.7-1.5,1L999.7,117.3z M1000,121c0.5-0.3,1-0.7,1.5-1l0.1,1.3c-0.5,0.3-1,0.7-1.5,1L1000,121z M1000.4,125.8l-0.1-1.3
	c0.5-0.3,1-0.6,1.5-1l0.1,1.3C1001.4,125.2,1000.9,125.5,1000.4,125.8z M1002.1,111.5c0.5-0.4,1-0.7,1.5-1.1l0.1,1.3
	c-0.5,0.4-1,0.7-1.5,1.1L1002.1,111.5z M1002.4,115.6c0.5-0.3,1-0.7,1.5-1.1l0.1,1.3c-0.5,0.4-1,0.7-1.5,1L1002.4,115.6z
	 M1002.7,119.3c0.5-0.3,1-0.7,1.5-1l0.1,1.3c-0.5,0.3-1,0.7-1.5,1L1002.7,119.3z M1003,124.1l-0.1-1.3c0.5-0.3,1-0.7,1.5-1l0.1,1.3
	C1004.1,123.5,1003.5,123.8,1003,124.1z M1004.5,105.7c0.5-0.4,1-0.8,1.5-1.1l0.1,1.4c-0.5,0.4-1,0.8-1.5,1.1L1004.5,105.7z
	 M1004.8,109.6c0.5-0.4,1-0.7,1.5-1.1l0.1,1.3c-0.5,0.4-1,0.7-1.5,1.1L1004.8,109.6z M1005.1,113.6c0.5-0.4,1-0.7,1.5-1.1l0.1,1.3
	c-0.5,0.4-1,0.7-1.5,1.1L1005.1,113.6z M1005.4,117.5c0.5-0.4,1-0.7,1.5-1.1l0.1,1.3c-0.5,0.4-1,0.7-1.5,1.1L1005.4,117.5z
	 M1005.8,122.3l-0.1-1.3c0.5-0.3,1-0.7,1.5-1l0.1,1.3C1006.8,121.6,1006.3,122,1005.8,122.3z M1007.2,103.7c0.5-0.4,1-0.8,1.5-1.2
	l0.1,1.4c-0.5,0.4-1,0.8-1.5,1.2L1007.2,103.7z M1007.5,107.6c0.5-0.4,1-0.8,1.5-1.1l0.1,1.4c-0.5,0.4-1,0.8-1.5,1.1L1007.5,107.6z
	 M1007.8,111.7c0.5-0.4,1-0.8,1.5-1.1l0.1,1.4c-0.5,0.4-1,0.8-1.5,1.1L1007.8,111.7z M1008.1,115.6c0.5-0.4,1-0.7,1.5-1.1l0.1,1.3
	c-0.5,0.4-1,0.7-1.5,1.1L1008.1,115.6z M1008.5,120.5l-0.1-1.3c0.5-0.4,1-0.7,1.5-1.1l0.1,1.3C1009.5,119.8,1009,120.1,1008.5,120.5
	z M1010,101.6c0.5-0.4,1-0.8,1.5-1.2l0.1,1.4c-0.5,0.4-1,0.8-1.5,1.2L1010,101.6z M1010.3,105.6c0.5-0.4,1-0.8,1.5-1.2l0.1,1.4
	c-0.5,0.4-1,0.8-1.5,1.2L1010.3,105.6z M1010.6,109.6c0.5-0.4,1-0.8,1.5-1.2l0.1,1.4c-0.5,0.4-1,0.8-1.5,1.2L1010.6,109.6z
	 M1010.9,113.6c0.5-0.4,1-0.8,1.5-1.1l0.1,1.4c-0.5,0.4-1,0.8-1.5,1.1L1010.9,113.6z M1011.3,118.5l-0.1-1.3c0.5-0.4,1-0.7,1.5-1.1
	l0.1,1.3C1012.3,117.8,1011.8,118.2,1011.3,118.5z M1012.7,99.3c0.5-0.4,1-0.8,1.5-1.3l0.1,1.4c-0.5,0.4-1,0.8-1.5,1.3L1012.7,99.3z
	 M1013,103.4c0.5-0.4,1-0.8,1.5-1.2l0.1,1.4c-0.5,0.4-1,0.8-1.5,1.2L1013,103.4z M1013.3,107.5c0.5-0.4,1-0.8,1.5-1.2l0.1,1.4
	c-0.5,0.4-1,0.8-1.5,1.2L1013.3,107.5z M1013.6,111.5c0.5-0.4,1-0.8,1.5-1.2l0.1,1.4c-0.5,0.4-1,0.8-1.5,1.2L1013.6,111.5z
	 M1014,116.5l-0.1-1.4c0.5-0.4,1-0.8,1.5-1.2l0.1,1.4C1015,115.8,1014.5,116.1,1014,116.5z M1015.4,97c0.5-0.4,1-0.9,1.5-1.3
	l0.1,1.4c-0.5,0.4-1,0.9-1.5,1.3L1015.4,97z M1015.8,101.2c0.5-0.4,1-0.8,1.5-1.3l0.1,1.4c-0.5,0.4-1,0.8-1.5,1.3L1015.8,101.2z
	 M1016.1,105.3c0.5-0.4,1-0.8,1.5-1.3l0.1,1.4c-0.5,0.4-1,0.8-1.5,1.3L1016.1,105.3z M1016.4,109.3c0.5-0.4,1-0.8,1.5-1.2l0.1,1.4
	c-0.5,0.4-1,0.8-1.5,1.2L1016.4,109.3z M1016.8,114.4l-0.1-1.4c0.5-0.4,1-0.8,1.5-1.2l0.1,1.4C1017.8,113.6,1017.3,114,1016.8,114.4
	z M1018.4,98.9c0.5-0.4,1-0.9,1.5-1.3l0.1,1.4c-0.5,0.4-1,0.9-1.5,1.3L1018.4,98.9z M1018.7,103.1c0.5-0.4,1-0.9,1.5-1.3l0.1,1.4
	c-0.5,0.4-1,0.9-1.5,1.3L1018.7,103.1z M1019,107.2c0.5-0.4,1-0.8,1.5-1.3l0.1,1.4c-0.5,0.4-1,0.8-1.5,1.3L1019,107.2z
	 M1019.4,112.4l-0.1-1.4c0.5-0.4,1-0.8,1.5-1.2l0.1,1.4C1020.4,111.5,1019.9,111.9,1019.4,112.4z M1021.1,96.6
	c0.5-0.5,1-0.9,1.5-1.4l0.1,1.5c-0.5,0.5-1,0.9-1.5,1.4L1021.1,96.6z M1021.4,100.7c0.5-0.4,1-0.9,1.5-1.4l0.1,1.4
	c-0.5,0.4-1,0.9-1.5,1.3L1021.4,100.7z M1021.7,104.9c0.5-0.4,1-0.9,1.5-1.3l0.1,1.4c-0.5,0.4-1,0.9-1.5,1.3L1021.7,104.9z
	 M1022.1,110.1l-0.1-1.4c0.5-0.4,1-0.9,1.5-1.3l0.1,1.4C1023.2,109.3,1022.6,109.7,1022.1,110.1z M1023.7,94.2
	c0.5-0.5,1-0.9,1.5-1.4l0.1,1.5c-0.5,0.5-1,0.9-1.5,1.4L1023.7,94.2z M1024.1,98.3c0.5-0.5,1-0.9,1.5-1.4l0.1,1.5
	c-0.5,0.5-1,0.9-1.5,1.4L1024.1,98.3z M1024.4,102.6c0.5-0.4,1-0.9,1.5-1.4l0.1,1.5c-0.5,0.5-1,0.9-1.5,1.3L1024.4,102.6z
	 M1024.8,107.9l-0.1-1.4c0.5-0.4,1-0.9,1.5-1.3l0.1,1.4C1025.8,107,1025.3,107.5,1024.8,107.9z M1026.5,91.6c0.5-0.5,1-1,1.5-1.5
	l0.1,1.5c-0.5,0.5-1,1-1.5,1.5L1026.5,91.6z M1026.8,95.8c0.5-0.5,1-1,1.5-1.4l0.1,1.5c-0.5,0.5-1,1-1.5,1.4L1026.8,95.8z
	 M1027.1,100.1c0.5-0.5,1-0.9,1.5-1.4l0.1,1.5c-0.5,0.5-1,0.9-1.5,1.4L1027.1,100.1z M1027.5,105.5l-0.1-1.4c0.5-0.5,1-0.9,1.5-1.4
	l0.1,1.5C1028.5,104.6,1028,105,1027.5,105.5z M1029.1,89c0.5-0.5,1-1,1.5-1.5l0.1,1.5c-0.5,0.5-1,1-1.5,1.5L1029.1,89z
	 M1029.4,93.3c0.5-0.5,1-1,1.5-1.5l0.1,1.5c-0.5,0.5-1,1-1.5,1.5L1029.4,93.3z M1029.7,97.7c0.5-0.5,1-1,1.5-1.5l0.1,1.5
	c-0.5,0.5-1,1-1.5,1.4L1029.7,97.7z M1030.1,103.1l-0.1-1.5c0.5-0.5,1-0.9,1.5-1.4l0.1,1.5C1031.1,102.2,1030.6,102.7,1030.1,103.1z
	 M1031.9,87.8l-0.1-1.5c0.5-0.5,1-1,1.5-1.6l0.1,1.6C1032.9,86.8,1032.4,87.3,1031.9,87.8z M1032.1,90.6c0.5-0.5,1-1,1.5-1.6
	l0.1,1.5c-0.5,0.5-1,1-1.5,1.5L1032.1,90.6z M1032.4,95c0.5-0.5,1-1,1.5-1.5l0.1,1.5c-0.5,0.5-1,1-1.5,1.5L1032.4,95z M1032.8,100.6
	l-0.1-1.5c0.5-0.5,1-1,1.5-1.5l0.1,1.5C1033.8,99.6,1033.3,100.1,1032.8,100.6z M1034.4,83.5c0.2-0.3,0.5-0.5,0.7-0.8
	c0.3-0.3,0.5-0.5,0.7-0.8l0.1,1.6l0,0c-0.5,0.5-1,1.1-1.5,1.6V83.5z M1034.7,87.8c0.5-0.5,1-1.1,1.5-1.6l0.1,1.6
	c-0.5,0.5-1,1.1-1.5,1.6L1034.7,87.8z M1035.1,92.4c0.5-0.5,1-1,1.5-1.6l0.1,1.5c-0.5,0.5-1,1-1.5,1.6L1035.1,92.4z M1035.5,97.9
	l-0.1-1.5c0.5-0.5,1-1,1.5-1.5l0.1,1.5C1036.5,96.9,1036,97.4,1035.5,97.9z M1037.1,80.5c0.5-0.6,1-1.2,1.5-1.7l0.1,1.6
	c-0.5,0.6-1,1.1-1.5,1.7L1037.1,80.5z M1037.4,84.8c0.5-0.6,1-1.1,1.5-1.7l0.1,1.6c-0.5,0.6-1,1.1-1.5,1.7L1037.4,84.8z
	 M1037.8,89.5c0.4-0.4,0.7-0.8,1.1-1.2c0.1-0.2,0.3-0.3,0.4-0.5l0.1,1.6c-0.5,0.5-1,1.1-1.5,1.6L1037.8,89.5z M1038.2,95.2l-0.1-1.5
	c0.5-0.5,1-1.1,1.5-1.6l0.1,1.6C1039.2,94.1,1038.7,94.7,1038.2,95.2z M1039.6,77.4c0.5-0.6,1-1.2,1.5-1.9l0.1,1.7
	c-0.5,0.6-1,1.2-1.5,1.8L1039.6,77.4z M1040,81.8c0.5-0.6,1-1.2,1.5-1.8l0.1,1.7c-0.5,0.6-1,1.2-1.5,1.8L1040,81.8z M1040.3,86.7
	c0.5-0.6,1-1.2,1.5-1.7l0.1,1.6c-0.5,0.6-1,1.1-1.5,1.7L1040.3,86.7z M1041.6,91.6c-0.3,0.3-0.5,0.6-0.8,0.9l-0.1-1.6
	c0,0,0,0,0.1-0.1c0.5-0.5,1-1.1,1.4-1.6l0.1,1.6C1042,91.1,1041.8,91.3,1041.6,91.6z M1042.3,74c0.5-0.7,1-1.3,1.5-2l0.1,1.8
	c-0.5,0.7-1,1.3-1.5,2L1042.3,74z M1042.6,78.5c0.5-0.7,1-1.3,1.5-2l0.1,1.7c-0.5,0.6-1,1.3-1.5,1.9L1042.6,78.5z M1043,83.5
	c0.5-0.6,1-1.2,1.5-1.9l0.1,1.7c-0.5,0.6-1,1.2-1.5,1.8L1043,83.5z M1043.5,89.5l-0.1-1.6c0.5-0.6,1-1.2,1.5-1.8l0.1,1.7
	C1044.5,88.3,1044,88.9,1043.5,89.5z M1044.8,70.4c0.5-0.7,1-1.5,1.4-2.2l0.1,1.9c-0.5,0.7-1,1.4-1.5,2.1V70.4z M1045.2,75
	c0.5-0.7,1-1.4,1.5-2.2l0.1,1.8c-0.5,0.7-1,1.4-1.5,2.1L1045.2,75z M1045.6,80.2c0.5-0.7,1-1.3,1.5-2l0.1,1.8c-0.5,0.7-1,1.3-1.5,2
	L1045.6,80.2z"/>
<path d="M1049.4,75.8c0.1-0.4,0.2-0.9,0.2-1.3C1049.5,74.9,1049.5,75.3,1049.4,75.8z"/>
<path d="M1012.5,30.1c-20.6,0.8-53.7,18.8-73.9,40.2c-12.2,12.9-16.9,24.2-14.1,30.8h-49.3c5,1.9,6.4,3.9,6.3,6.5h55.8
	c0.3,0,0.6,0,0.9,0h1.1l0,0h0.1c20.6-0.8,53.7-18.8,73.9-40.2C1033.4,46,1033.1,29.3,1012.5,30.1z"/>
<path d="M835.5,103.1l-4.5,4.5h10.1C839.1,106.3,837.3,104.8,835.5,103.1z"/>
</svg>
