<?xml version="1.0" encoding="utf-8"?>
<!-- Generator: Adobe Illustrator 25.2.1, SVG Export Plug-In . SVG Version: 6.00 Build 0)  -->
<svg version="1.1" id="Layer_1" xmlns="http://www.w3.org/2000/svg" xmlns:xlink="http://www.w3.org/1999/xlink" x="0px" y="0px"
	 viewBox="0 0 503.9 87.2" style="enable-background:new 0 0 503.9 87.2;" xml:space="preserve">
<style type="text/css">
	.st0{fill-rule:evenodd;clip-rule:evenodd;fill:#F48324;}
</style>
<g>
	<path d="M0.5,87.2c0.6-3,0.9-5.9,0.9-9.5V12.1c0-3.6-0.7-8.3-1.4-11h19.7c-0.5,2.2-0.9,5.4-0.9,9.1v68.6c4.6,0,7.4-0.1,11.8-0.4
		c1.2,0,2.3-0.2,3.6-0.2v9H0.5z"/>
	<path d="M55.2,81.9c0,3,0.2,3.7,0.9,5.3H37.9c0.4-1.5,0.6-2.5,0.6-5.3V30.2c0-3-0.4-5.1-0.7-6.5h17.4
		C55.2,23.7,55.2,81.9,55.2,81.9z"/>
	<path d="M59.5,23.7h17.8c0,0,0,2.2,0.2,3.5c2.5,15.6,7.3,42.7,7.3,42.7h0.4c0,0,4.2-24.6,6.5-40.4c0.2-1.5,0.5-5.8,0.5-5.8h9.6
		c0,0-1,3.6-1.4,5.7c-2,10.2-5.6,29-7.7,41.2c-2.3,11.8-2.5,16.7-2.5,16.7H72c0,0-6.3-35.3-10.9-58.3C60.7,27,59.5,23.7,59.5,23.7"
		/>
	<path d="M120.9,55.1v21.8c0,3.2,1.4,4.2,4.4,4.2c3.1,0,4.2-1.5,4.2-4.4V61.8h16v14.8c0,9.6-3.6,11.7-21.6,11.7
		c-16.9,0-19.9-2.8-19.9-11.7V33.4c0-9.8,5.6-10.9,20.6-10.9c16.7,0,20.9,0.7,20.9,10.5v22.1H120.9z M129.5,49.2V32.8
		c0-2.5-1.2-3.6-4.2-3.6c-2.7,0-4.3,1.2-4.3,3.7v16.3H129.5z"/>
	<path d="M156.5,11.2C156.5,1.3,162.3,0,179,0c16.8,0,21.7,1.6,21.7,11.7v63.7c0,10.1-2.2,13-22.3,13c-18.8,0-21.8-2.6-21.8-12.3
		L156.5,11.2L156.5,11.2z M174,12.6v62.3c0,3.8,1.4,5.4,4.7,5.4c3.5,0,4.4-1.5,4.4-5.3V12.4c0-3.3-1.6-4.4-4.7-4.4
		C175.4,8,174,9.1,174,12.6"/>
	<path d="M208.1,78.8V29c0-3-0.2-3.7-0.9-5.3h17.5v53.2c0,3,1.4,4.3,4,4.3s3.8-1.2,3.8-4.3V29c0-3-0.2-3.7-0.9-5.3h17.5v57
		c0,3,0.4,5.1,0.7,6.5H235l-1.9-2.1c0,0-5.6,3.2-11.8,3.2C213,88.3,208.1,85.3,208.1,78.8"/>
	<path d="M258.1,76.7V29.8h-5.2v-6.2h5.2V12.1l16.5-2.8v14.4h8.8v6.2h-8.6v42.6c0,6.8,1.6,8.5,5.9,8.5h4.9v5.9c0,0-6.5,1-10.6,1
		C264.5,87.9,258.1,86.7,258.1,76.7"/>
	<path d="M315.8,87.9h-16.5c-9,0-11.1-3.9-11.1-9V31.3c0-6.7,6.2-8.8,14.2-8.8c4.9,0,10.5,1.2,10.5,1.2V6.6c0-2.2-0.6-4.4-0.9-5.6
		h17.2v85.7C329.2,86.7,320.2,87.9,315.8,87.9 M308.6,80.9c3.2,0,4.2-1.5,4.2-4.6v-43c0-2.8-1.7-4.2-4.2-4.2c-2.7,0-4.2,1.4-4.2,4.2
		v42.8C304.4,79.5,305.5,80.9,308.6,80.9"/>
	<path d="M337.1,32.7c0-8.9,5.7-10.1,20.7-10.1c15.1,0,19.1,1.4,19.1,10.5v43.6c0,9-2.1,11.7-20.1,11.7c-16.9,0-19.7-2.3-19.7-11.2
		V32.7z M352.9,33.5v43.1c0,3.3,1.6,4.3,4.2,4.3s4.1-0.9,4.1-4.3V33.4c0-2.5-1.5-4.1-4.2-4.1C354.5,29.3,352.9,31.1,352.9,33.5"/>
	<path d="M382.4,32.7c0-8.9,5.7-10.1,20.7-10.1c15.1,0,19.1,1.4,19.1,10.5v43.6c0,9-2.1,11.7-20.1,11.7c-16.9,0-19.8-2.3-19.8-11.2
		L382.4,32.7L382.4,32.7z M398.2,33.5v43.1c0,3.3,1.6,4.3,4.2,4.3s4.1-0.9,4.1-4.3V33.4c0-2.5-1.5-4.1-4.2-4.1
		C399.8,29.3,398.2,31.1,398.2,33.5"/>
	<path d="M447.1,40.5V82c0,3,0.2,3.7,0.9,5.3h-18.1c0.4-1.5,0.6-2.5,0.6-5.3V30.2c0-3-0.4-5.1-0.7-6.5h14.8l2.1,2.8
		c0,0,4.3-4,11.1-4h3.1v9.7H459C448,32.2,447.1,37.7,447.1,40.5"/>
	<path d="M463.5,46.8v-14c0-7.3,6-10.2,15.9-10.2h7.5c4.8,0,10.7,0.5,15.7,1.2v20.5h-12.5v-7.2c0-5.3-1.7-7.9-6.3-7.9
		c-3.2,0-4.9,1.6-4.9,4.9v7.2c0,5.4,0.9,7,7.4,9.1c2.3,0.7,4.6,1.2,6.9,2c7.9,2.5,10.7,4.4,10.7,9.9v14.9c0,7.9-5.1,11.1-17.2,11.1
		h-4.9c-5.3,0-12.6-0.2-17.8-1.5V64.3h13.7v9.5c0,6.2,2.6,8,5.4,8c3.3,0,4.9-1.7,4.9-5.3v-10c0-4.3-3.3-6-6.8-6.8
		c-3.8-0.9-6.5-1.6-10-2.7C464.4,54.8,463.5,51.7,463.5,46.8"/>
	<path class="st0" d="M57.2,22.4L57.2,22.4L57.2,22.4h11.6V10.8H22.7L36.1,24c-0.3-1-0.5-1.7-0.5-1.7h21.3L57,44.4l6.8,6.7
		c-1.3-7.1-4.2-21.9-4.6-23.4C58.7,25.8,57.2,22.4,57.2,22.4"/>
</g>
</svg>
