<?xml version="1.0" encoding="utf-8"?>
<!-- Generator: Adobe Illustrator 25.2.1, SVG Export Plug-In . SVG Version: 6.00 Build 0)  -->
<svg version="1.1" id="Layer_1" xmlns="http://www.w3.org/2000/svg" xmlns:xlink="http://www.w3.org/1999/xlink" x="0px" y="0px"
	 viewBox="0 0 576 144" style="enable-background:new 0 0 576 144;" xml:space="preserve">
<style type="text/css">
	.st0{fill-rule:evenodd;clip-rule:evenodd;fill:#F48324;}
</style>
<g>
	<path d="M36.5,115c0.6-3,0.9-5.9,0.9-9.5V39.9c0-3.6-0.7-8.3-1.4-11h19.7c-0.5,2.2-0.9,5.4-0.9,9.1v68.6c4.6,0,7.4-0.1,11.8-0.4
		c1.2,0,2.3-0.2,3.6-0.2v9H36.5z"/>
	<path d="M91.2,109.7c0,3,0.2,3.7,0.9,5.3H73.9c0.4-1.5,0.6-2.5,0.6-5.3V58c0-3-0.4-5.1-0.7-6.5h17.4V109.7z"/>
	<path d="M95.5,51.5h17.8c0,0,0,2.2,0.2,3.5c2.5,15.6,7.3,42.7,7.3,42.7h0.4c0,0,4.2-24.6,6.5-40.4c0.2-1.5,0.5-5.8,0.5-5.8h9.6
		c0,0-1,3.6-1.4,5.7c-2,10.2-5.6,29-7.7,41.2c-2.3,11.8-2.5,16.7-2.5,16.7H108c0,0-6.3-35.3-10.9-58.3
		C96.7,54.8,95.5,51.5,95.5,51.5"/>
	<path d="M156.9,82.9v21.8c0,3.2,1.4,4.2,4.4,4.2c3.1,0,4.2-1.5,4.2-4.4V89.6h16v14.8c0,9.6-3.6,11.7-21.6,11.7
		c-16.9,0-19.9-2.8-19.9-11.7V61.2c0-9.8,5.6-10.9,20.6-10.9c16.7,0,20.9,0.7,20.9,10.5v22.1H156.9z M165.5,77V60.6
		c0-2.5-1.2-3.6-4.2-3.6c-2.7,0-4.3,1.2-4.3,3.7V77H165.5z"/>
	<path d="M192.5,39c0-9.9,5.8-11.2,22.5-11.2c16.8,0,21.7,1.6,21.7,11.7v63.7c0,10.1-2.2,13-22.3,13c-18.8,0-21.8-2.6-21.8-12.3V39z
		 M210,40.4v62.3c0,3.8,1.4,5.4,4.7,5.4c3.5,0,4.4-1.5,4.4-5.3V40.2c0-3.3-1.6-4.4-4.7-4.4C211.4,35.8,210,36.9,210,40.4"/>
	<path d="M244.1,106.6V56.8c0-3-0.2-3.7-0.9-5.3h17.5v53.2c0,3,1.4,4.3,4,4.3c2.6,0,3.8-1.2,3.8-4.3V56.8c0-3-0.2-3.7-0.9-5.3h17.5
		v57c0,3,0.4,5.1,0.7,6.5h-14.8l-1.9-2.1c0,0-5.6,3.2-11.8,3.2C249,116.1,244.1,113.1,244.1,106.6"/>
	<path d="M294.1,104.5V57.6h-5.2v-6.2h5.2V39.9l16.5-2.8v14.4h8.8v6.2h-8.6v42.6c0,6.8,1.6,8.5,5.9,8.5h4.9v5.9c0,0-6.5,1-10.6,1
		C300.5,115.7,294.1,114.5,294.1,104.5"/>
	<path d="M351.8,115.7h-16.5c-9,0-11.1-3.9-11.1-9V59.1c0-6.7,6.2-8.8,14.2-8.8c4.9,0,10.5,1.2,10.5,1.2V34.4c0-2.2-0.6-4.4-0.9-5.6
		h17.2v85.7C365.2,114.5,356.2,115.7,351.8,115.7 M344.6,108.7c3.2,0,4.2-1.5,4.2-4.6v-43c0-2.8-1.7-4.2-4.2-4.2
		c-2.7,0-4.2,1.4-4.2,4.2v42.8C340.4,107.3,341.5,108.7,344.6,108.7"/>
	<path d="M373.1,60.5c0-8.9,5.7-10.1,20.7-10.1c15.1,0,19.1,1.4,19.1,10.5v43.6c0,9-2.1,11.7-20.1,11.7c-16.9,0-19.7-2.3-19.7-11.2
		V60.5z M388.9,61.3v43.1c0,3.3,1.6,4.3,4.2,4.3c2.6,0,4.1-0.9,4.1-4.3V61.2c0-2.5-1.5-4.1-4.2-4.1
		C390.5,57.1,388.9,58.9,388.9,61.3"/>
	<path d="M418.4,60.5c0-8.9,5.7-10.1,20.7-10.1c15.1,0,19.1,1.4,19.1,10.5v43.6c0,9-2.1,11.7-20.1,11.7c-16.9,0-19.8-2.3-19.8-11.2
		V60.5z M434.2,61.3v43.1c0,3.3,1.6,4.3,4.2,4.3s4.1-0.9,4.1-4.3V61.2c0-2.5-1.5-4.1-4.2-4.1C435.8,57.1,434.2,58.9,434.2,61.3"/>
	<path d="M483.1,68.3v41.5c0,3,0.2,3.7,0.9,5.3h-18.1c0.4-1.5,0.6-2.5,0.6-5.3V58c0-3-0.4-5.1-0.7-6.5h14.8l2.1,2.8
		c0,0,4.3-4,11.1-4h3.1V60h-1.9C484,60,483.1,65.5,483.1,68.3"/>
	<path d="M499.5,74.6V60.6c0-7.3,6-10.2,15.9-10.2h7.5c4.8,0,10.7,0.5,15.7,1.2v20.5h-12.5v-7.2c0-5.3-1.7-7.9-6.3-7.9
		c-3.2,0-4.9,1.6-4.9,4.9v7.2c0,5.4,0.9,7,7.4,9.1c2.3,0.7,4.6,1.2,6.9,2c7.9,2.5,10.7,4.4,10.7,9.9V105c0,7.9-5.1,11.1-17.2,11.1
		h-4.9c-5.3,0-12.6-0.2-17.8-1.5V92.1h13.7v9.5c0,6.2,2.6,8,5.4,8c3.3,0,4.9-1.7,4.9-5.3v-10c0-4.3-3.3-6-6.8-6.8
		c-3.8-0.9-6.5-1.6-10-2.7C500.4,82.6,499.5,79.5,499.5,74.6"/>
	<path class="st0" d="M93.2,50.2L93.2,50.2L93.2,50.2l11.6,0l0-11.6H58.7l13.4,13.2c-0.3-1-0.5-1.7-0.5-1.7h21.3l0.1,22.1l6.8,6.7
		c-1.3-7.1-4.2-21.9-4.6-23.4C94.7,53.6,93.2,50.2,93.2,50.2"/>
</g>
</svg>
