<svg class="Path_264" viewBox="36 28.9 17.782 44.766">
	<path id="Path_264" d="M 36.25997543334961 73.66644287109375 C 36.57194519042969 72.10662841796875 36.72789764404297 70.59880065917969 36.72789764404297 68.72705078125 L 36.72789764404297 34.61928939819336 C 36.72789764404297 32.74751281738281 36.36396789550781 30.30382537841797 36.00001525878906 28.89999771118164 L 46.24274444580078 28.89999771118164 C 45.98276519775391 30.04385375976562 45.77481842041016 31.70765113830566 45.77481842041016 33.63140869140625 L 45.77481842041016 69.29896545410156 C 48.16650390625 69.29896545410156 49.62232971191406 69.24698638916016 51.91004180908203 69.09099578857422 C 52.53394317626953 69.09099578857422 53.10588836669922 68.98702239990234 53.78181457519531 68.98702239990234 L 53.78181457519531 73.66644287109375 L 36.25997543334961 73.66644287109375 Z">
	</path>
</svg>
<svg class="Path_265" viewBox="73.8 51.5 9.515 33.016">
	<path id="Path_265" d="M 82.84689331054688 81.76025390625 C 82.84689331054688 83.32006072998047 82.95086669921875 83.68401336669922 83.31483459472656 84.51590728759766 L 73.85205078125 84.51590728759766 C 74.05995941162109 83.73601531982422 74.16392517089844 83.21607208251953 74.16392517089844 81.76025390625 L 74.16392517089844 54.87957763671875 C 74.16392517089844 53.31977844238281 73.95601654052734 52.22789764404297 73.80002593994141 51.49999237060547 L 82.84689331054688 51.49999237060547 L 82.84689331054688 81.76025390625 Z">
	</path>
</svg>
<svg class="Path_266" viewBox="95.5 51.5 21.993 33.068">
	<path id="Path_266" d="M 95.5 51.49999237060547 L 104.7548446655273 51.49999237060547 C 104.7548446655273 51.49999237060547 104.7548446655273 52.64384078979492 104.8588562011719 53.31977844238281 C 106.1586456298828 61.43077850341797 108.6543807983398 75.52101135253906 108.6543807983398 75.52101135253906 L 108.8623657226562 75.52101135253906 C 108.8623657226562 75.52101135253906 111.0460510253906 62.73061370849609 112.2418975830078 54.515625 C 112.3458709716797 53.73569869995117 112.5018997192383 51.49999237060547 112.5018997192383 51.49999237060547 L 117.4932708740234 51.49999237060547 C 117.4932708740234 51.49999237060547 116.9733505249023 53.37178039550781 116.7653732299805 54.46363830566406 C 115.7255096435547 59.7669677734375 113.8537063598633 69.54176330566406 112.7618637084961 75.88497161865234 C 111.5660095214844 82.02019500732422 111.4620361328125 84.56788635253906 111.4620361328125 84.56788635253906 L 101.999153137207 84.56788635253906 C 101.999153137207 84.56788635253906 98.72358703613281 66.21417236328125 96.33188629150391 54.25564193725586 C 96.12390899658203 53.21578598022461 95.5 51.49999237060547 95.5 51.49999237060547">
	</path>
</svg>
<svg class="Path_267" viewBox="140 50.3 21.577 34.212">
	<path id="Path_267" d="M 148.7869720458984 67.24988555908203 L 148.7869720458984 78.58448028564453 C 148.7869720458984 80.248291015625 149.5147705078125 80.76821899414062 151.07470703125 80.76821899414062 C 152.6864624023438 80.76821899414062 153.2583923339844 79.98829650878906 153.2583923339844 78.48049163818359 L 153.2583923339844 70.73345184326172 L 161.5773315429688 70.73345184326172 L 161.5773315429688 78.42849731445312 C 161.5773315429688 83.41986846923828 159.7054901123047 84.51176452636719 150.3466949462891 84.51176452636719 C 141.5597839355469 84.51176452636719 140 83.05591583251953 140 78.42849731445312 L 140 55.96730804443359 C 140 50.87194061279297 142.9117279052734 50.30001068115234 150.7107238769531 50.30001068115234 C 159.3936462402344 50.30001068115234 161.5773315429688 50.6639518737793 161.5773315429688 55.75933456420898 L 161.5773315429688 67.24988555908203 L 148.7869720458984 67.24988555908203 Z M 153.2583923339844 64.18227386474609 L 153.2583923339844 55.65533447265625 C 153.2583923339844 54.35549926757812 152.6344299316406 53.7835693359375 151.07470703125 53.7835693359375 C 149.6707916259766 53.7835693359375 148.8389434814453 54.40750885009766 148.8389434814453 55.70732498168945 L 148.8389434814453 64.18227386474609 L 153.2583923339844 64.18227386474609 Z">
	</path>
</svg>
<svg class="Path_268" viewBox="192.5 27.8 22.981 45.962">
	<path id="Path_268" d="M 192.5000305175781 33.62326812744141 C 192.5000305175781 28.47590827941895 195.515625 27.79999923706055 204.1985015869141 27.79999923706055 C 212.9334564208984 27.79999923706055 215.481201171875 28.63188743591309 215.481201171875 33.88323593139648 L 215.481201171875 67.00311279296875 C 215.481201171875 72.25444030761719 214.3372344970703 73.76229095458984 203.8865051269531 73.76229095458984 C 194.1117706298828 73.76229095458984 192.5520477294922 72.41046142578125 192.5520477294922 67.36708831787109 L 192.5520477294922 33.62326812744141 Z M 201.5987854003906 34.35117721557617 L 201.5987854003906 66.74314117431641 C 201.5987854003906 68.71889495849609 202.3267974853516 69.55078887939453 204.0425720214844 69.55078887939453 C 205.8623199462891 69.55078887939453 206.3302154541016 68.77090454101562 206.3302154541016 66.79515075683594 L 206.3302154541016 34.24719619750977 C 206.3302154541016 32.53141021728516 205.4983062744141 31.95947074890137 203.8865051269531 31.95947074890137 C 202.3267974853516 31.95947074890137 201.5987854003906 32.53141021728516 201.5987854003906 34.35117721557617">
	</path>
</svg>
<svg class="Path_269" viewBox="243.2 51.5 22.149 33.588">
	<path id="Path_269" d="M 243.6679534912109 80.14842987060547 L 243.6679534912109 54.25566101074219 C 243.6679534912109 52.69583892822266 243.5639038085938 52.33188629150391 243.2000427246094 51.49999237060547 L 252.2989044189453 51.49999237060547 L 252.2989044189453 79.16057586669922 C 252.2989044189453 80.72039794921875 253.0267486572266 81.39626312255859 254.3786926269531 81.39626312255859 C 255.7304840087891 81.39626312255859 256.3544921875 80.77238464355469 256.3544921875 79.16057586669922 L 256.3544921875 54.25566101074219 C 256.3544921875 52.69583892822266 256.2504577636719 52.33188629150391 255.8863983154297 51.49999237060547 L 264.9854431152344 51.49999237060547 L 264.9854431152344 81.13631439208984 C 264.9854431152344 82.69613647460938 265.1932373046875 83.78800201416016 265.3493347167969 84.51590728759766 L 257.6541748046875 84.51590728759766 L 256.6664733886719 83.42404174804688 C 256.6664733886719 83.42404174804688 253.7547454833984 85.08783721923828 250.5310668945312 85.08783721923828 C 246.2156524658203 85.08783721923828 243.6679534912109 83.52801513671875 243.6679534912109 80.14842987060547">
	</path>
</svg>
<svg class="Path_270" viewBox="288.9 37.1 17.002 40.867">
	<path id="Path_270" d="M 291.6038208007812 72.14365386962891 L 291.6038208007812 47.75867080688477 L 288.8999938964844 47.75867080688477 L 288.8999938964844 44.53507995605469 L 291.6038208007812 44.53507995605469 L 291.6038208007812 38.55581665039062 L 300.1828002929688 37.09999847412109 L 300.1828002929688 44.58706665039062 L 304.7582397460938 44.58706665039062 L 304.7582397460938 47.81066131591797 L 300.2868347167969 47.81066131591797 L 300.2868347167969 69.95991516113281 C 300.2868347167969 73.49547576904297 301.1184692382812 74.37937927246094 303.354248046875 74.37937927246094 L 305.90185546875 74.37937927246094 L 305.90185546875 77.44698333740234 C 305.90185546875 77.44698333740234 302.5224609375 77.96692657470703 300.3907470703125 77.96692657470703 C 294.9313354492188 77.96692657470703 291.6038208007812 77.34300994873047 291.6038208007812 72.14365386962891">
	</path>
</svg>
<svg class="Path_271" viewBox="324.2 28.8 21.317 45.182">
	<path id="Path_271" d="M 338.5501708984375 73.98239135742188 L 329.97119140625 73.98239135742188 C 325.2916870117188 73.98239135742188 324.2001037597656 71.95462799072266 324.2001037597656 69.30296325683594 L 324.2001037597656 44.55404281616211 C 324.2001037597656 41.07046890258789 327.423583984375 39.97861099243164 331.5830078125 39.97861099243164 C 334.1307678222656 39.97861099243164 337.0422668457031 40.60254669189453 337.0422668457031 40.60254669189453 L 337.0422668457031 31.71163749694824 C 337.0422668457031 30.56778335571289 336.7304382324219 29.42391586303711 336.5743408203125 28.80000114440918 L 345.5173034667969 28.80000114440918 L 345.5173034667969 73.35845184326172 C 345.5173034667969 73.35845184326172 340.8377990722656 73.98239135742188 338.5501708984375 73.98239135742188 M 334.8067932128906 70.34281921386719 C 336.4706115722656 70.34281921386719 336.9903869628906 69.56291198730469 336.9903869628906 67.95112609863281 L 336.9903869628906 45.59392166137695 C 336.9903869628906 44.13809204101562 336.1065979003906 43.41018295288086 334.8067932128906 43.41018295288086 C 333.4027709960938 43.41018295288086 332.6230163574219 44.13809204101562 332.6230163574219 45.59392166137695 L 332.6230163574219 67.84715270996094 C 332.6230163574219 69.61491394042969 333.1947937011719 70.34281921386719 334.8067932128906 70.34281921386719">
	</path>
</svg>
<svg class="Path_272" viewBox="373.1 50.4 20.693 34.212">
	<path id="Path_272" d="M 373.1001586914062 55.65131759643555 C 373.1001586914062 51.0239143371582 376.0637817382812 50.40000152587891 383.8628540039062 50.40000152587891 C 391.7138061523438 50.40000152587891 393.7935180664062 51.12789154052734 393.7935180664062 55.85931777954102 L 393.7935180664062 78.52849578857422 C 393.7935180664062 83.20789337158203 392.7016296386719 84.61172485351562 383.3427734375 84.61172485351562 C 374.555908203125 84.61172485351562 373.1001586914062 83.41587829589844 373.1001586914062 78.7884521484375 L 373.1001586914062 55.65131759643555 Z M 381.31494140625 56.06729888916016 L 381.31494140625 78.47650146484375 C 381.31494140625 80.19228363037109 382.1470031738281 80.71222686767578 383.4988403320312 80.71222686767578 C 384.850830078125 80.71222686767578 385.6304321289062 80.24428558349609 385.6304321289062 78.47650146484375 L 385.6304321289062 56.01529312133789 C 385.6304321289062 54.71543502807617 384.850830078125 53.88354110717773 383.4466857910156 53.88354110717773 C 382.1470031738281 53.88354110717773 381.31494140625 54.8194465637207 381.31494140625 56.06729888916016">
	</path>
</svg>
<svg class="Path_273" viewBox="418.3 50.4 20.745 34.212">
	<path id="Path_273" d="M 418.3521118164062 55.65131759643555 C 418.3521118164062 51.0239143371582 421.3157653808594 50.40000152587891 429.1148376464844 50.40000152587891 C 436.9657592773438 50.40000152587891 439.0455017089844 51.12789154052734 439.0455017089844 55.85931777954102 L 439.0455017089844 78.52849578857422 C 439.0455017089844 83.20789337158203 437.95361328125 84.61172485351562 428.5949096679688 84.61172485351562 C 419.8079833984375 84.61172485351562 418.3000793457031 83.41587829589844 418.3000793457031 78.7884521484375 L 418.3000793457031 55.65131759643555 Z M 426.5669250488281 56.06729888916016 L 426.5669250488281 78.47650146484375 C 426.5669250488281 80.19228363037109 427.3989562988281 80.71222686767578 428.7508239746094 80.71222686767578 C 430.1025085449219 80.71222686767578 430.8824157714844 80.24428558349609 430.8824157714844 78.47650146484375 L 430.8824157714844 56.01529312133789 C 430.8824157714844 54.71543502807617 430.1025085449219 53.88354110717773 428.6987915039062 53.88354110717773 C 427.3989562988281 53.88354110717773 426.5669250488281 54.8194465637207 426.5669250488281 56.06729888916016">
	</path>
</svg>
<svg class="Path_274" viewBox="465.8 50.3 16.17 33.692">
	<path id="Path_274" d="M 474.7951049804688 59.65882873535156 L 474.7951049804688 81.23616790771484 C 474.7951049804688 82.79597473144531 474.8989868164062 83.15990447998047 475.2630310058594 83.99179840087891 L 465.8519897460938 83.99179840087891 C 466.0601196289062 83.21192169189453 466.1641540527344 82.69197845458984 466.1641540527344 81.23616790771484 L 466.1641540527344 54.30351257324219 C 466.1641540527344 52.74371719360352 465.9560546875 51.65184020996094 465.8001098632812 50.9239501953125 L 473.4949951171875 50.9239501953125 L 474.5870361328125 52.37974548339844 C 474.5870361328125 52.37974548339844 476.8226623535156 50.30001068115234 480.3582458496094 50.30001068115234 L 481.9700927734375 50.30001068115234 L 481.9700927734375 55.34337615966797 L 480.9822387695312 55.34337615966797 C 475.2630310058594 55.34337615966797 474.7951049804688 58.20301818847656 474.7951049804688 59.65882873535156">
	</path>
</svg>
<svg class="Path_275" viewBox="499.5 50.4 21.005 34.16">
	<path id="Path_275" d="M 499.5001831054688 62.98241424560547 L 499.5001831054688 55.70330810546875 C 499.5001831054688 51.90779876708984 502.6197509765625 50.40000152587891 507.7671813964844 50.40000152587891 L 511.6666564941406 50.40000152587891 C 514.1622314453125 50.40000152587891 517.2296142578125 50.65995025634766 519.82958984375 51.0239143371582 L 519.82958984375 61.68259048461914 L 513.3304443359375 61.68259048461914 L 513.3304443359375 57.93905639648438 C 513.3304443359375 55.18338012695312 512.446533203125 53.83155822753906 510.0546264648438 53.83155822753906 C 508.3911437988281 53.83155822753906 507.5071411132812 54.6634521484375 507.5071411132812 56.37924957275391 L 507.5071411132812 60.1227912902832 C 507.5071411132812 62.93042373657227 507.9752807617188 63.76233291625977 511.3547973632812 64.85420989990234 C 512.550537109375 65.2181396484375 513.7463989257812 65.47812652587891 514.9420776367188 65.89405822753906 C 519.0497436523438 67.19391632080078 520.5054321289062 68.18178558349609 520.5054321289062 71.04142761230469 L 520.5054321289062 78.7884521484375 C 520.5054321289062 82.89596557617188 517.8538818359375 84.55974578857422 511.5625915527344 84.55974578857422 L 509.0148010253906 84.55974578857422 C 506.2592468261719 84.55974578857422 502.4638061523438 84.45574951171875 499.7601013183594 83.77986907958984 L 499.7601013183594 72.081298828125 L 506.8832702636719 72.081298828125 L 506.8832702636719 77.02069091796875 C 506.8832702636719 80.24428558349609 508.2351989746094 81.18016815185547 509.6909484863281 81.18016815185547 C 511.4067077636719 81.18016815185547 512.2384643554688 80.29628753662109 512.2384643554688 78.42451477050781 L 512.2384643554688 73.22514343261719 C 512.2384643554688 70.98944091796875 510.5227661132812 70.10554504394531 508.7032165527344 69.68958282470703 C 506.7273254394531 69.22164154052734 505.3234252929688 68.85768890380859 503.5036926269531 68.28578186035156 C 499.9682312011719 67.14192199707031 499.5001831054688 65.53010559082031 499.5001831054688 62.98241424560547">
	</path>
</svg>
<svg class="Path_276" viewBox="58.7 38.6 23.969 20.953">
	<path id="Path_276" d="M 76.63779449462891 44.63126373291016 L 76.63779449462891 44.63126373291016 L 76.63779449462891 44.63126373291016 L 82.66902923583984 44.63126373291016 L 82.66902923583984 38.59999465942383 L 58.70001983642578 38.59999465942383 L 65.66714477539062 45.46313858032227 C 65.51113891601562 44.94321441650391 65.40717315673828 44.57925796508789 65.40717315673828 44.57925796508789 L 76.48181915283203 44.57925796508789 L 76.53379058837891 56.06980895996094 L 80.06935119628906 59.55340576171875 C 79.3934326171875 55.86186599731445 77.88563537597656 48.16680526733398 77.67765808105469 47.38689804077148 C 77.41768646240234 46.39902877807617 76.63779449462891 44.63126373291016 76.63779449462891 44.63126373291016">
	</path>
</svg>