<?xml version="1.0" encoding="utf-8"?>
<!-- Generator: Adobe Illustrator 25.2.1, SVG Export Plug-In . SVG Version: 6.00 Build 0)  -->
<svg version="1.1" id="Layer_1" xmlns="http://www.w3.org/2000/svg" xmlns:xlink="http://www.w3.org/1999/xlink" x="0px" y="0px"
	 viewBox="0 0 648 216" style="enable-background:new 0 0 648 216;" xml:space="preserve">
<style type="text/css">
	.st0{fill:#282828;}
</style>
<g>
	<g>
		<path class="st0" d="M48.1,48.4v119.2h551.9V48.4H48.1z M589.4,157.1H58.6V58.9h530.8V157.1z"/>
	</g>
	<g>
		<polygon class="st0" points="89.1,86.5 89.3,86.5 101.1,146.2 107.5,146.2 119.3,86.5 119.6,86.5 119.6,146.2 131,146.2 131,69.8 
			113.7,69.8 104.4,114.5 104.2,114.5 94.9,69.8 77.7,69.8 77.7,146.2 89.1,146.2 		"/>
	</g>
	<g>
		<g>
			<path class="st0" d="M159.3,129.3h14.4l2.3,16.9h12.7l-14.1-76.4h-16.3l-14.1,76.4H157L159.3,129.3z M166.4,85h0.2l5.2,32.8
				h-10.6L166.4,85z"/>
		</g>
	</g>
	<g>
		<polygon class="st0" points="214.5,98.5 214.8,98.5 231.5,146.2 242.9,146.2 242.9,69.8 231,69.8 231,113.5 230.8,113.5 
			214.9,69.8 202.7,69.8 202.7,146.2 214.5,146.2 		"/>
	</g>
	<g>
		<g>
			<path class="st0" d="M296.9,140.6c3.5-3.7,5.2-9.6,5.2-17.5V92.9c0-7.9-1.7-13.7-5.2-17.5c-3.5-3.7-8.7-5.6-15.5-5.6h-19.5v76.4
				h19.5C288.2,146.2,293.4,144.3,296.9,140.6z M275,135.4V80.6h4.5c3.5,0,6,0.8,7.4,2.3c1.4,1.6,2.1,4.3,2.1,8.4v33.4
				c0,4-0.7,6.8-2.1,8.4c-1.4,1.6-3.8,2.3-7.4,2.3H275z"/>
		</g>
	</g>
	<g>
		<g>
			<path class="st0" d="M330.9,129.3h14.4l2.3,16.9h12.7l-14.1-76.4H330l-14.1,76.4h12.7L330.9,129.3z M338,85h0.2l5.2,32.8h-10.6
				L338,85z"/>
		</g>
	</g>
	<g>
		<polygon class="st0" points="379.5,146.2 392.6,146.2 392.6,81.2 405.3,81.2 405.3,69.8 366.8,69.8 366.8,81.2 379.5,81.2 		"/>
	</g>
	<g>
		<g>
			<path class="st0" d="M424.3,141.5c1.7,1.8,3.7,3.2,6.2,4.2c2.5,1,5.5,1.5,8.9,1.5c3.5,0,6.4-0.5,8.9-1.5c2.5-1,4.6-2.4,6.2-4.2
				c1.7-1.8,2.9-3.8,3.7-6.2c0.8-2.4,1.2-4.9,1.2-7.6V88.3c0-2.7-0.4-5.2-1.2-7.6c-0.8-2.4-2-4.5-3.7-6.2c-1.7-1.8-3.7-3.2-6.2-4.2
				c-2.5-1-5.5-1.5-8.9-1.5c-3.5,0-6.4,0.5-8.9,1.5c-2.5,1-4.6,2.4-6.2,4.2c-1.7,1.8-2.9,3.8-3.7,6.2c-0.8,2.4-1.2,4.9-1.2,7.6v39.4
				c0,2.7,0.4,5.2,1.2,7.6C421.4,137.7,422.6,139.8,424.3,141.5z M432.5,88.6c0-2.9,0.5-5,1.5-6.4c1-1.4,2.8-2.1,5.5-2.1
				c2.7,0,4.5,0.7,5.5,2.1c1,1.4,1.5,3.5,1.5,6.4v38.7c0,2.9-0.5,5-1.5,6.4c-1,1.4-2.8,2.1-5.5,2.1c-2.7,0-4.5-0.7-5.5-2.1
				c-1-1.4-1.5-3.5-1.5-6.4V88.6z"/>
		</g>
	</g>
	<g>
		<g>
			<path class="st0" d="M491.3,114.9c1.2,0,2.4,0,3.6-0.1c1.2,0,2.3-0.1,3.1-0.3l9.3,31.6h13.3l-11.1-34.6c1.1-0.5,2.2-1.2,3.3-2.1
				c1.1-0.9,2.1-2.1,3-3.7c0.9-1.5,1.6-3.4,2.1-5.6c0.5-2.2,0.8-4.8,0.8-7.9c0-8.1-1.9-13.9-5.6-17.3c-3.7-3.5-9.3-5.2-16.6-5.2
				h-18.4v76.4h13.1V114.9z M491.3,80.6h4.7c3.5,0,6,0.8,7.5,2.5c1.5,1.7,2.2,4.7,2.2,9.3c0,2.3-0.2,4.1-0.5,5.7
				c-0.4,1.5-0.9,2.7-1.7,3.6c-0.8,0.9-1.8,1.6-3,1.9c-1.2,0.4-2.7,0.5-4.5,0.5h-4.7V80.6z"/>
		</g>
	</g>
	<g>
		<polygon class="st0" points="544.8,146.2 557.9,146.2 557.9,114.5 573.8,69.8 560.4,69.8 551.7,98.9 551.4,98.9 542.2,69.8 
			528.9,69.8 544.8,114.5 		"/>
	</g>
</g>
</svg>
