<?xml version="1.0" encoding="utf-8"?>
<!-- Generator: Adobe Illustrator 25.2.1, SVG Export Plug-In . SVG Version: 6.00 Build 0)  -->
<svg version="1.1" id="Layer_1" xmlns="http://www.w3.org/2000/svg" xmlns:xlink="http://www.w3.org/1999/xlink" x="0px" y="0px"
	 viewBox="0 0 551.9 119.2" style="enable-background:new 0 0 551.9 119.2;" xml:space="preserve">
<style type="text/css">
	.st0{fill:#FF2815;}
	.st1{fill:url(#SVGID_1_);}
	.st2{fill:url(#SVGID_2_);}
	.st3{fill:url(#SVGID_3_);}
	.st4{fill:url(#SVGID_4_);}
	.st5{fill:url(#SVGID_5_);}
	.st6{fill:url(#SVGID_6_);}
	.st7{fill:url(#SVGID_7_);}
	.st8{fill:url(#SVGID_8_);}
	.st9{fill:url(#SVGID_9_);}
</style>
<g>
	<g>
		<path class="st0" d="M0,0v119.2h551.9V0H0z M541.3,108.7H10.5V10.5h530.8L541.3,108.7L541.3,108.7z"/>
	</g>
	<g>
		
			<linearGradient id="SVGID_1_" gradientUnits="userSpaceOnUse" x1="23.825" y1="27.175" x2="88.675" y2="92.025" gradientTransform="matrix(1 0 0 -1 0 119.2)">
			<stop  offset="0" style="stop-color:#9B0D0F"/>
			<stop  offset="0.3" style="stop-color:#E82629"/>
			<stop  offset="1" style="stop-color:#FF2815"/>
		</linearGradient>
		<polygon class="st1" points="41,38.1 41.2,38.1 53,97.8 59.4,97.8 71.2,38.1 71.5,38.1 71.5,97.8 82.9,97.8 82.9,21.4 65.6,21.4 
			56.3,66.1 56.1,66.1 46.8,21.4 29.6,21.4 29.6,97.8 41,97.8 		"/>
	</g>
	<g>
		<g>
			
				<linearGradient id="SVGID_2_" gradientUnits="userSpaceOnUse" x1="91.7094" y1="25.9094" x2="145.1094" y2="79.3095" gradientTransform="matrix(1 0 0 -1 0 119.2)">
				<stop  offset="0" style="stop-color:#9B0D0F"/>
				<stop  offset="0.3" style="stop-color:#E82629"/>
				<stop  offset="1" style="stop-color:#FF2815"/>
			</linearGradient>
			<path class="st2" d="M111.2,80.9h14.4l2.3,16.9h12.7l-14.1-76.4h-16.3L96.1,97.8h12.8L111.2,80.9z M118.3,36.6h0.2l5.2,32.8
				h-10.6L118.3,36.6z"/>
		</g>
	</g>
	<g>
		
			<linearGradient id="SVGID_3_" gradientUnits="userSpaceOnUse" x1="145.55" y1="30.45" x2="203.85" y2="88.75" gradientTransform="matrix(1 0 0 -1 0 119.2)">
			<stop  offset="0" style="stop-color:#9B0D0F"/>
			<stop  offset="0.3" style="stop-color:#E82629"/>
			<stop  offset="1" style="stop-color:#FF2815"/>
		</linearGradient>
		<polygon class="st3" points="166.4,50.1 166.7,50.1 183.4,97.8 194.8,97.8 194.8,21.4 182.9,21.4 182.9,65.1 182.7,65.1 
			166.8,21.4 154.6,21.4 154.6,97.8 166.4,97.8 		"/>
	</g>
	<g>
		<g>
			
				<linearGradient id="SVGID_4_" gradientUnits="userSpaceOnUse" x1="202.0521" y1="33.1478" x2="254.9564" y2="86.0521" gradientTransform="matrix(1 0 0 -1 0 119.2)">
				<stop  offset="0" style="stop-color:#9B0D0F"/>
				<stop  offset="0.3" style="stop-color:#E82629"/>
				<stop  offset="1" style="stop-color:#FF2815"/>
			</linearGradient>
			<path class="st4" d="M248.8,92.2c3.5-3.7,5.2-9.6,5.2-17.5V44.5c0-7.9-1.7-13.7-5.2-17.5c-3.5-3.7-8.7-5.6-15.5-5.6h-19.5v76.4
				h19.5C240.1,97.8,245.3,95.9,248.8,92.2z M226.9,87V32.2h4.5c3.5,0,6,0.8,7.4,2.3c1.4,1.6,2.1,4.3,2.1,8.4v33.4
				c0,4-0.7,6.8-2.1,8.4S235,87,231.4,87L226.9,87L226.9,87z"/>
		</g>
	</g>
	<g>
		<g>
			
				<linearGradient id="SVGID_5_" gradientUnits="userSpaceOnUse" x1="263.325" y1="25.875" x2="316.675" y2="79.225" gradientTransform="matrix(1 0 0 -1 0 119.2)">
				<stop  offset="0" style="stop-color:#9B0D0F"/>
				<stop  offset="0.3" style="stop-color:#E82629"/>
				<stop  offset="1" style="stop-color:#FF2815"/>
			</linearGradient>
			<path class="st5" d="M282.8,80.9h14.4l2.3,16.9h12.7l-14.1-76.4h-16.2l-14.1,76.4h12.7L282.8,80.9z M289.9,36.6h0.2l5.2,32.8
				h-10.6L289.9,36.6z"/>
		</g>
	</g>
	<g>
		
			<linearGradient id="SVGID_6_" gradientUnits="userSpaceOnUse" x1="312.4" y1="40.4" x2="363.5" y2="91.5" gradientTransform="matrix(1 0 0 -1 0 119.2)">
			<stop  offset="0" style="stop-color:#9B0D0F"/>
			<stop  offset="0.3" style="stop-color:#E82629"/>
			<stop  offset="1" style="stop-color:#FF2815"/>
		</linearGradient>
		<polygon class="st6" points="331.4,97.8 344.5,97.8 344.5,32.8 357.2,32.8 357.2,21.4 318.7,21.4 318.7,32.8 331.4,32.8 		"/>
	</g>
	<g>
		<g>
			
				<linearGradient id="SVGID_7_" gradientUnits="userSpaceOnUse" x1="366.9947" y1="35.2946" x2="415.7168" y2="84.0168" gradientTransform="matrix(1 0 0 -1 0 119.2)">
				<stop  offset="0" style="stop-color:#9B0D0F"/>
				<stop  offset="0.3" style="stop-color:#E82629"/>
				<stop  offset="1" style="stop-color:#FF2815"/>
			</linearGradient>
			<path class="st7" d="M376.2,93.1c1.7,1.8,3.7,3.2,6.2,4.2s5.5,1.5,8.9,1.5c3.5,0,6.4-0.5,8.9-1.5s4.6-2.4,6.2-4.2
				c1.7-1.8,2.9-3.8,3.7-6.2c0.8-2.4,1.2-4.9,1.2-7.6V39.9c0-2.7-0.4-5.2-1.2-7.6c-0.8-2.4-2-4.5-3.7-6.2c-1.7-1.8-3.7-3.2-6.2-4.2
				s-5.5-1.5-8.9-1.5c-3.5,0-6.4,0.5-8.9,1.5s-4.6,2.4-6.2,4.2c-1.7,1.8-2.9,3.8-3.7,6.2c-0.8,2.4-1.2,4.9-1.2,7.6v39.4
				c0,2.7,0.4,5.2,1.2,7.6S374.5,91.4,376.2,93.1z M384.4,40.2c0-2.9,0.5-5,1.5-6.4s2.8-2.1,5.5-2.1s4.5,0.7,5.5,2.1
				s1.5,3.5,1.5,6.4v38.7c0,2.9-0.5,5-1.5,6.4s-2.8,2.1-5.5,2.1s-4.5-0.7-5.5-2.1c-1-1.4-1.5-3.5-1.5-6.4V40.2z"/>
		</g>
	</g>
	<g>
		<g>
			
				<linearGradient id="SVGID_8_" gradientUnits="userSpaceOnUse" x1="421.525" y1="29.975" x2="474.633" y2="83.083" gradientTransform="matrix(1 0 0 -1 0 119.2)">
				<stop  offset="0" style="stop-color:#9B0D0F"/>
				<stop  offset="0.3" style="stop-color:#E82629"/>
				<stop  offset="1" style="stop-color:#FF2815"/>
			</linearGradient>
			<path class="st8" d="M443.2,66.5c1.2,0,2.4,0,3.6-0.1c1.2,0,2.3-0.1,3.1-0.3l9.3,31.6h13.3l-11.1-34.6c1.1-0.5,2.2-1.2,3.3-2.1
				c1.1-0.9,2.1-2.1,3-3.7c0.9-1.5,1.6-3.4,2.1-5.6s0.8-4.8,0.8-7.9c0-8.1-1.9-13.9-5.6-17.3c-3.7-3.5-9.3-5.2-16.6-5.2H430v76.4
				h13.1V66.5H443.2z M443.2,32.2h4.7c3.5,0,6,0.8,7.5,2.5s2.2,4.7,2.2,9.3c0,2.3-0.2,4.1-0.5,5.7c-0.4,1.5-0.9,2.7-1.7,3.6
				c-0.8,0.9-1.8,1.6-3,1.9c-1.2,0.4-2.7,0.5-4.5,0.5h-4.7V32.2z"/>
		</g>
	</g>
	<g>
		
			<linearGradient id="SVGID_9_" gradientUnits="userSpaceOnUse" x1="476.9" y1="41.1999" x2="529.6" y2="93.9" gradientTransform="matrix(1 0 0 -1 0 119.2)">
			<stop  offset="0" style="stop-color:#9B0D0F"/>
			<stop  offset="0.3" style="stop-color:#E82629"/>
			<stop  offset="1" style="stop-color:#FF2815"/>
		</linearGradient>
		<polygon class="st9" points="496.7,97.8 509.8,97.8 509.8,66.1 525.7,21.4 512.3,21.4 503.6,50.5 503.3,50.5 494.1,21.4 
			480.8,21.4 496.7,66.1 		"/>
	</g>
</g>
</svg>
