<?xml version="1.0" encoding="utf-8"?>
<!-- Generator: Adobe Illustrator 25.2.1, SVG Export Plug-In . SVG Version: 6.00 Build 0)  -->
<svg version="1.1" id="_x30_7_-_MOBILE_SPECS" xmlns="http://www.w3.org/2000/svg" xmlns:xlink="http://www.w3.org/1999/xlink"
	 x="0px" y="0px" viewBox="0 0 239.8 42.5" style="enable-background:new 0 0 239.8 42.5;" xml:space="preserve">
<style type="text/css">
	.st0{fill:#3F3B3A;}
	.st1{fill-rule:evenodd;clip-rule:evenodd;fill:#26B2C2;}
	.st2{fill:#26B2C2;}
</style>
<g>
	<g>
		<path class="st0" d="M211.8,42.1V17.8c0-0.2-0.1-0.4-0.4-0.4H208c-0.3,0-0.4,0.1-0.4,0.4V42c0,0.2,0.1,0.4,0.4,0.4h3.4
			C211.7,42.4,211.8,42.3,211.8,42.1z"/>
		<path class="st1" d="M216.2,1.2h-10.6c-0.6,0-1.1,0.5-1.1,1.1v6.9c0,0.6,0.5,1.1,1.1,1.1h2v4.1l6-4.1h2.6c0.6,0,1.1-0.5,1.1-1.1
			V2.3C217.3,1.7,216.8,1.2,216.2,1.2z"/>
	</g>
	<path class="st2" d="M64,20.8c-2.4-2.4-5.6-3.7-9.2-3.7c-3.7,0-6.8,1.2-9.2,3.7c-2.4,2.4-3.7,5.4-3.7,9c0,3.5,1.2,6.5,3.7,9
		c2.4,2.4,5.6,3.7,9.2,3.7c3.7,0,6.8-1.2,9.2-3.7c2.4-2.4,3.7-5.4,3.7-9S66.5,23.2,64,20.8z M61,36.2c-1.6,1.7-3.7,2.5-6.2,2.5
		s-4.6-0.8-6.2-2.5s-2.5-3.8-2.5-6.5c0-2.6,0.8-4.8,2.5-6.5c1.6-1.7,3.7-2.5,6.2-2.5s4.6,0.8,6.2,2.5s2.5,3.8,2.5,6.5
		S62.7,34.6,61,36.2z"/>
	<path class="st2" d="M109.6,41.5h3.4c0.3,0,0.4-0.1,0.4-0.4V26.4c0-3.2-0.8-5.6-2.5-7.2s-3.9-2.5-6.6-2.5c-3.6,0-6.6,1.6-9,4.8
		l-0.6,0.8l-0.4-0.9c-0.8-1.8-2-3.1-3.6-3.8l-0.2-0.1c-0.2-0.1-0.5-0.2-0.8-0.3c-0.3-0.1-0.7-0.2-1-0.2h-0.2
		c-0.3-0.1-0.6-0.1-0.9-0.1s-0.7-0.1-1.1-0.1h-0.1l0,0c-3.4,0-6.4,1.5-8.7,4.4l-0.4,0.5v-4.1c0-0.3-0.1-0.4-0.4-0.4h-3.4
		c-0.3,0-0.4,0.1-0.4,0.4v23.7c0,0.3,0.1,0.4,0.4,0.4H77c0.3,0,0.4-0.1,0.4-0.4V28.4c0-2.5,0.8-4.5,2.3-5.9c1.5-1.3,3.3-2,5.3-2
		c0.3,0,0.7,0,1.1,0.1h0.1c0.1,0,0.1,0,0.2,0c0.3,0,0.5,0.1,0.7,0.2c1,0.3,1.9,0.9,2.5,1.7c1,1.3,1.4,3.1,1.4,5.7v13.1
		c0,0.3,0.1,0.4,0.4,0.4h3.4c0.3,0,0.4-0.1,0.4-0.4V28c0.1-2.4,0.9-4.3,2.4-5.6s3.2-1.9,5.2-1.9c4.3,0,6.5,2.6,6.5,7.7v13.1
		C109.2,41.4,109.3,41.5,109.6,41.5z"/>
	<path class="st0" d="M239.6,38.5c0.2-0.2,0.2-0.4,0-0.7l-1.7-1.9c-0.2-0.2-0.4-0.2-0.6-0.1l-0.1,0.1l-0.4,0.4
		c-1.9,1.5-3.9,2.3-5.9,2.3c-2.5,0-4.7-0.9-6.5-2.6c-1.7-1.7-2.6-3.9-2.6-6.4s0.9-4.6,2.7-6.2c1.8-1.6,3.9-2.4,6.3-2.4
		c2,0,4,0.7,6,2.2l0.2,0.2c0.3,0.1,0.5,0.1,0.7-0.1l1.8-2.2c0.2-0.3,0.2-0.5,0-0.7c-2.1-1.8-4.7-2.9-7.6-3.1c-0.3,0-0.7,0-1.1,0
		c-3.7,0-6.9,1.2-9.4,3.5s-3.8,5.4-3.8,9.1s1.2,6.8,3.7,9.1c2.4,2.3,5.4,3.5,8.8,3.5c1,0,2.1-0.1,3.1-0.4c2.2-0.5,4.2-1.5,6.1-3.1
		L239.6,38.5z"/>
	<path class="st0" d="M184.1,34.9c0-2.3-0.8-3.9-2.3-4.9c-0.8-0.6-1.6-1-2.3-1.3s-1.5-0.6-2.3-0.8c-0.8-0.3-1.7-0.5-2.7-0.8
		c-1.1-0.3-1.9-0.6-2.6-0.9c-1-0.5-1.6-1.3-1.6-2.4c0-1.2,0.5-2,1.5-2.6c0.9-0.5,2-0.8,3.4-0.8c1.8,0,3.4,0.4,5,1l2.4,1.2
		c0.3,0.1,0.5-0.1,0.6-0.2l1.2-2.2c0.1-0.1,0.1-0.2,0.1-0.3c0-0.1-0.1-0.2-0.2-0.2L183,19l-1.2-0.5c-1.2-0.6-2.4-1-3.7-1.2
		c-0.8-0.1-1.6-0.2-2.4-0.2c-2.8,0-5.1,0.7-6.8,2s-2.5,3-2.5,5.2c0,3.1,2.5,5.3,7.6,6.7c0.1,0,0.4,0.1,0.6,0.2
		c3.7,1.1,5.5,2.4,5.5,4c0,1.1-0.4,1.9-1.3,2.6c-0.8,0.6-1.9,1-3.3,1c-2.1,0-4.4-0.6-6.6-1.9c-0.5-0.3-0.9-0.5-1.3-0.8l-0.2-0.1
		c-0.1,0-0.2-0.1-0.3-0.1s-0.3,0.1-0.4,0.2l-0.1,0.1l-1.4,2.2c-0.2,0.4,0,0.6,0.1,0.7l1.6,1c0.8,0.4,1.7,0.8,2.7,1.1
		c0.9,0.3,1.9,0.6,2.8,0.7c1,0.2,1.9,0.3,2.8,0.3c2.6,0,4.8-0.7,6.4-2.1C183.3,39,184.1,37.2,184.1,34.9z"/>
	<path class="st0" d="M130.5,42v-2.7c0-0.3-0.1-0.4-0.4-0.4h-2.3c-1.2-0.1-2.2-0.5-2.9-1.3s-1.1-1.9-1.1-3.3V20.7h6.3
		c0.2,0,0.4-0.1,0.4-0.4v-2.4c0-0.3-0.1-0.4-0.4-0.4h-6.3V9.8c0-0.2-0.1-0.4-0.4-0.4H120c-0.3,0-0.4,0.1-0.4,0.4v24.3
		c0,2.5,0.8,4.5,2.3,6c0.5,0.5,1.1,0.9,1.7,1.3c1.1,0.6,2.4,0.9,3.8,0.9h2.8C130.4,42.4,130.5,42.2,130.5,42z"/>
	<path class="st0" d="M200.9,42v-2.7c0-0.3-0.1-0.4-0.4-0.4h-2.3c-1.2-0.1-2.2-0.5-2.9-1.3s-1.1-1.9-1.1-3.3V20.7h6.3
		c0.2,0,0.4-0.1,0.4-0.4v-2.4c0-0.3-0.1-0.4-0.4-0.4h-6.3V9.8c0-0.2-0.1-0.4-0.4-0.4h-3.4c-0.3,0-0.4,0.1-0.4,0.4v24.3
		c0,2.5,0.8,4.5,2.3,6c0.5,0.5,1.1,0.9,1.7,1.3c1.1,0.6,2.4,0.9,3.8,0.9h2.8C200.8,42.4,200.9,42.2,200.9,42z"/>
	<path class="st0" d="M155.8,41.6h3.4c0.3,0,0.4-0.1,0.4-0.4V17.5c0-0.2-0.1-0.4-0.4-0.4h-3.4c-0.3,0-0.4,0.1-0.4,0.4v2.7l-0.9-0.7
		c-2.2-1.6-4.8-2.4-7.7-2.4h-0.1h-0.1c-0.8,0-1.6,0.1-2.4,0.2c-2.5,0.5-4.8,1.6-6.6,3.4c-2.4,2.4-3.7,5.4-3.7,9c0,3.5,1.2,6.5,3.7,9
		c1.2,1.2,2.7,2.2,4.2,2.8c1.4,0.6,2.8,0.9,4.4,0.9h0.1c0.1,0,0.1,0,0.2,0h0.2c0.1,0,0.1,0,0.2,0c3,0,5.6-0.8,7.8-2.4l0.9-0.7v2
		C155.4,41.5,155.6,41.6,155.8,41.6z M153,36.2c-1.6,1.7-3.7,2.5-6.2,2.5s-4.6-0.8-6.2-2.5c-1.6-1.7-2.5-3.8-2.5-6.5
		c0-2.6,0.8-4.8,2.5-6.5c1.6-1.7,3.7-2.5,6.2-2.5s4.6,0.8,6.2,2.5c1.6,1.6,2.4,3.8,2.5,6.3v0.2C155.4,32.4,154.6,34.6,153,36.2z"/>
	<path class="st2" d="M32.6,41.5H36c0.3,0,0.4-0.1,0.4-0.4V2.9c0-0.4-0.3-0.4-0.4-0.4h-3.8c-0.9,0-1.6,0.5-2.1,1.5L18,32.4L6,4
		C5.5,3,4.8,2.6,3.9,2.6H0c-0.1,0-0.3,0.1-0.3,0.4v38.1c0,0.4,0.2,0.4,0.4,0.4h3.4c0.3,0,0.4-0.1,0.4-0.4V9.5l11.3,25.8
		c0.5,1,1.2,1.5,2.1,1.5H19c0.9,0,1.6-0.5,2.1-1.5L32.4,9.6v31.7C32.2,41.4,32.3,41.5,32.6,41.5z"/>
</g>
</svg>
