<?xml version="1.0" encoding="utf-8"?>
<!-- Generator: Adobe Illustrator 25.2.1, SVG Export Plug-In . SVG Version: 6.00 Build 0)  -->
<svg version="1.1" id="Layer_1" xmlns="http://www.w3.org/2000/svg" xmlns:xlink="http://www.w3.org/1999/xlink" x="0px" y="0px"
	 viewBox="0 0 1000 250" style="enable-background:new 0 0 1000 250;" xml:space="preserve">
<style type="text/css">
	.st0{fill:#121212;}
	.st1{fill:#EF4F23;}
	.st2{fill:#05B6E1;}
</style>
<g id="LOGO">
	<g>
		<path class="st0" d="M845.3,62.6v63c-7.2-7.6-16.3-11.5-27.2-11.5c-6.5,0-12.5,1.2-17.9,3.7s-10.1,5.8-14,10
			c-3.9,4.2-6.9,9.2-9,14.8c-2.1,5.6-3.2,11.6-3.2,17.9c0,6.6,1.1,12.8,3.3,18.5s5.3,10.7,9.3,14.9s8.7,7.5,14,9.9
			c5.4,2.4,11.2,3.6,17.6,3.6c11.3,0,20.3-4.2,26.9-12.5v9.8h31.5V62.6L845.3,62.6L845.3,62.6z M801.7,160.2c0-2.6,0.5-5.1,1.5-7.4
			c1-2.3,2.4-4.3,4.1-6.1c1.7-1.7,3.8-3.1,6.1-4.1s4.8-1.5,7.4-1.5c2.6,0,5.1,0.5,7.4,1.5c2.3,1,4.3,2.4,6.1,4.1
			c1.7,1.8,3.1,3.8,4.1,6.1s1.5,4.8,1.5,7.4c0,2.6-0.5,5.1-1.5,7.4c-1,2.3-2.4,4.3-4.1,6.1c-1.8,1.7-3.8,3.1-6.1,4.1
			s-4.8,1.5-7.4,1.5c-2.6,0-5.1-0.5-7.4-1.5c-2.3-1-4.3-2.4-6.1-4.1c-1.8-1.8-3.1-3.8-4.1-6.1C802.2,165.3,801.7,162.9,801.7,160.2"
			/>
		<g>
			<g>
				<path class="st0" d="M579.3,118.1h-28.4l-0.3-14.7c0-1.9,0,1.7,0.1,0.2c0.1-1.7,0.2-3.2,0.5-4.4c0.4-2.3,1.2-4.1,2.3-5.4
					s2.4-2.1,3.7-2.5s2.6-0.6,3.9-0.6c0.5,0,6.7,0,7.8,0.1c0.6,0,1.2,0,1.8,0.1l12.2-23.6v-0.6c-2.3-1-4.5-1.8-6.8-2.4
					c-2.2-0.6-15.1-0.9-17.8-0.9c-3.8,0-7.6,0.6-11.5,1.9s-7.5,3-10.9,5.3s-6.3,5-8.8,8.1s-4.3,6.5-5.5,10.2
					c-1.4,4.3-2.1,4.9-2.1,12.2l0.3,17h-13.3v1v18.5v6.3h13.3l-0.1,27.7l-0.2,33h31l0.2-35.4l0.1-25.3H565c0.6-2.4,1.3-4.6,2.2-6.8
					c2.8-7.3,6.9-13.5,12.1-18.7c0.1-0.1,0.1-0.1,0.2-0.2v-0.1L579.3,118.1L579.3,118.1z"/>
			</g>
		</g>
		<path class="st0" d="M604.1,165.8c0,13.4,6.3,20,18.8,20c6.7,0,11.8-2.7,15.2-8.2h30c-6,20.1-21.2,30.1-45.4,30.1
			c-7.4,0-14.2-1.1-20.4-3.3s-11.5-5.4-15.8-9.5c-4.4-4.1-7.8-9-10.2-14.7s-3.6-12.1-3.6-19.2c0-7.3,1.1-13.9,3.4-19.8
			c2.3-5.9,5.5-10.9,9.8-15c4.2-4.1,9.3-7.3,15.3-9.5s12.7-3.3,20.3-3.3c7.4,0,14.1,1.1,20,3.3c5.9,2.2,11,5.5,15.1,9.7
			s7.2,9.4,9.4,15.5s3.3,13,3.3,20.6v3.2L604.1,165.8L604.1,165.8z M640.4,147.8c-1-4.3-3.1-7.8-6.3-10.4c-3.2-2.6-7.1-3.9-11.6-3.9
			c-4.8,0-8.7,1.3-11.7,3.8s-4.9,6.1-5.7,10.6h35.3V147.8z"/>
		<path class="st0" d="M705.6,165.8c0,13.4,6.3,20,18.8,20c6.7,0,11.8-2.7,15.2-8.2h30c-6,20.1-21.2,30.1-45.4,30.1
			c-7.4,0-14.2-1.1-20.4-3.3s-11.5-5.4-15.8-9.5c-4.4-4.1-7.8-9-10.2-14.7s-3.6-12.1-3.6-19.2c0-7.3,1.1-13.9,3.4-19.8
			c2.3-5.9,5.5-10.9,9.8-15c4.2-4.1,9.3-7.3,15.3-9.5s12.8-3.3,20.3-3.3c7.4,0,14.1,1.1,20,3.3c5.9,2.2,11,5.5,15.1,9.7
			s7.2,9.4,9.4,15.5s3.2,13,3.2,20.6v3.2L705.6,165.8L705.6,165.8z M741.9,147.8c-1-4.3-3.1-7.8-6.3-10.4c-3.2-2.6-7.1-3.9-11.6-3.9
			c-4.8,0-8.7,1.3-11.7,3.8s-4.9,6.1-5.7,10.6h35.3V147.8z"/>
		<path class="st0" d="M945.2,138.9c-5.7-3-11.3-4.5-16.8-4.5c-2.9,0-5.2,0.6-6.9,1.7c-1.8,1.1-2.7,2.7-2.7,4.6c0,1,0.1,1.9,0.4,2.5
			c0.3,0.6,0.9,1.2,1.9,1.8s2.4,1.1,4.3,1.5c1.9,0.5,4.4,1,7.5,1.7c8.6,1.7,14.9,4.8,19.2,9.2c4.2,4.4,6.3,10,6.3,16.9
			c0,5.1-1,9.8-3.1,13.9c-2.1,4.1-4.9,7.6-8.6,10.4c-3.7,2.8-8,5-13.2,6.5c-5.1,1.5-10.8,2.3-16.9,2.3c-11.9,0-23.6-3.4-35.1-10.1
			l11.3-21.9c8.7,5.9,16.9,8.9,24.7,8.9c2.9,0,5.2-0.6,7-1.9c1.8-1.2,2.7-2.9,2.7-4.8c0-1.1-0.1-2.1-0.4-2.8
			c-0.3-0.7-0.9-1.4-1.8-2.1s-2.3-1.2-4-1.7c-1.8-0.5-4.1-1-6.9-1.6c-9.6-1.9-16.3-4.8-20.1-8.6s-5.7-9.1-5.7-15.8
			c0-4.9,0.9-9.3,2.7-13.3c1.8-3.9,4.5-7.3,7.9-10s7.6-4.9,12.4-6.3c4.9-1.5,10.2-2.2,16.2-2.2c9.7,0,19.1,1.9,28.2,5.6L945.2,138.9
			z"/>
		<path class="st0" d="M45.6,114.4h31v10.8C85,117.1,94.5,113,105,113c13,0,22.9,5.5,29.8,16.4c7-11.1,16.9-16.6,29.8-16.6
			c4.1,0,8,0.6,11.6,1.8c3.6,1.2,6.8,3.1,9.4,5.6c2.6,2.6,4.7,5.9,6.3,10c1.5,4.1,2.3,9.1,2.3,14.9v57h-31v-43.3
			c0-4.5-0.3-8.1-0.9-11c-0.6-2.9-1.5-5.1-2.7-6.7c-1.2-1.6-2.6-2.7-4.2-3.2c-1.6-0.6-3.3-0.9-5.1-0.9c-9.9,0-14.9,7.3-14.9,21.7
			V202h-31v-43.3c0-4.5-0.3-8.1-0.9-11s-1.4-5.2-2.5-6.9s-2.5-2.9-4.2-3.5s-3.7-0.9-6-0.9c-1.9,0-3.8,0.3-5.5,0.9
			c-1.7,0.6-3.2,1.7-4.5,3.3c-1.3,1.7-2.3,3.9-3.1,6.9c-0.7,2.9-1.1,6.7-1.1,11.4v43.3h-31L45.6,114.4L45.6,114.4z"/>
		<path class="st0" d="M235.4,118.8v46c0,10.8,5.2,16.3,15.7,16.3c10.5,0,15.8-5.4,15.8-16.3v-46h31v52c0,11.9-3.9,20.8-11.7,26.7
			c-7.8,5.9-19.5,8.9-35,8.9s-27.2-3-35-8.9s-11.7-14.8-11.7-26.7v-52H235.4z"/>
		<path class="st0" d="M369.4,157.6c-4.2-4.4-10.6-7.4-19.2-9.2c-3.1-0.7-5.6-1.3-7.5-1.7c-1.9-0.5-3.3-1-4.3-1.5
			c-1-0.6-1.6-1.2-1.9-1.8s-0.4-1.5-0.4-2.5c0-1.9,0.9-3.5,2.7-4.6c1.8-1.1,4.1-1.7,6.9-1.7c5.5,0,11.1,1.5,16.8,4.5l10.4-20.2
			c-9.1-3.8-18.5-5.6-28.2-5.6c-5.9,0-11.3,0.7-16.2,2.2c-4.8,1.5-9,3.6-12.4,6.3c-2,1.6-3.7,3.5-5.2,5.5c-1,1.4-1.9,2.9-2.7,4.5
			c-1.8,3.9-2.7,8.4-2.7,13.3c0,6.5,1.8,11.7,5.4,15.5c0.1,0.1,0.2,0.2,0.3,0.4c3.8,3.8,10.5,6.7,20.1,8.6c2.8,0.6,5.2,1.1,6.9,1.6
			c1.8,0.5,3.1,1.1,4,1.7c0.9,0.6,1.5,1.3,1.8,2.1c0.3,0.7,0.4,1.7,0.4,2.8c0,1.9-0.9,3.5-2.7,4.8c-1.8,1.3-4.2,1.9-7,1.9
			c-7.6,0-15.6-2.9-24.1-8.5c-0.8,10.3-4.2,17.9-8.3,23.5c10.4,5.4,20.9,8.1,31.5,8.1c6.2,0,11.8-0.8,16.9-2.3s9.5-3.7,13.2-6.5
			s6.5-6.2,8.6-10.4c2-4.1,3.1-8.7,3.1-13.9C375.8,167.6,373.7,161.9,369.4,157.6z"/>
		<g>
			<path class="st0" d="M384.7,114.4h-0.5v90.3h31.5v-90.3l0,0c-4.8,1.8-10,2.7-15.5,2.7C394.8,117.1,389.6,116.2,384.7,114.4z"/>
		</g>
		<path class="st0" d="M495.7,145.2c-5.4-3.7-10.8-5.5-16.3-5.5c-3,0-5.7,0.5-8.3,1.5c-2.6,1-4.8,2.5-6.8,4.4
			c-1.9,1.9-3.5,4.1-4.5,6.7c-1.1,2.6-1.6,5.5-1.6,8.6s0.5,5.9,1.6,8.5s2.6,4.8,4.4,6.7c1.9,1.9,4.1,3.3,6.8,4.4
			c2.6,1,5.4,1.5,8.4,1.5c5.8,0,11.2-2,16.3-6v26.4c-7.6,3.3-14.9,5-21.7,5c-6.4,0-12.5-1.1-18.2-3.3c-5.8-2.2-10.8-5.3-15.2-9.3
			c-4.4-4.1-7.9-8.9-10.5-14.6c-2.6-5.7-3.9-12-3.9-18.9c0-7,1.2-13.3,3.8-19.1c2.5-5.8,5.9-10.7,10.3-14.9
			c4.3-4.2,9.5-7.4,15.5-9.8c6-2.3,12.4-3.5,19.3-3.5c7.5,0,14.5,1.6,20.9,4.8v26.4H495.7z"/>
	</g>
	<g>
		<path class="st1" d="M381.1,74.3c0-2.6,0.5-5.1,1.5-7.4s2.4-4.3,4.1-6.1c1.7-1.7,3.8-3.1,6.1-4.1c2.3-1,4.8-1.5,7.4-1.5
			s5.1,0.5,7.4,1.5s4.3,2.4,6.1,4.1c1.7,1.8,3.1,3.8,4.1,6.1s1.5,4.8,1.5,7.4s-0.5,5.1-1.5,7.4s-2.4,4.3-4.1,6.1
			c-1.8,1.7-3.8,3.1-6.1,4.1c-2.3,1-4.8,1.5-7.4,1.5s-5.1-0.5-7.4-1.5s-4.3-2.4-6.1-4.1c-1.8-1.8-3.1-3.8-4.1-6.1
			C381.6,79.4,381.1,76.9,381.1,74.3"/>
		<path class="st2" d="M400.2,108.3c-4.7,0-9.1-0.9-13.2-2.7c-4.1-1.8-7.7-4.2-10.8-7.3c-3.1-3.1-5.6-6.7-7.3-10.8
			c-1.8-4.1-2.7-8.6-2.7-13.2s0.9-9.1,2.7-13.2c1.8-4.1,4.3-7.8,7.4-10.8c3.1-3.1,6.7-5.6,10.8-7.3c8.3-3.6,18.3-3.6,26.4,0
			c4,1.7,7.7,4.2,10.8,7.3c3.1,3.1,5.5,6.7,7.3,10.8s2.7,8.5,2.7,13.2s-0.9,9.1-2.7,13.2c-1.8,4.1-4.2,7.7-7.3,10.8
			c-3.1,3.1-6.8,5.6-10.9,7.3C409.3,107.4,404.8,108.3,400.2,108.3z M400.2,46.1c-3.9,0-7.5,0.7-10.9,2.2s-6.4,3.5-9,6.1
			s-4.6,5.6-6.1,9c-1.4,3.4-2.2,7-2.2,10.9s0.7,7.5,2.2,10.9s3.5,6.4,6.1,9s5.6,4.6,9,6.1s7,2.2,10.9,2.2s7.5-0.7,10.9-2.2
			s6.4-3.5,9-6.1c2.5-2.6,4.6-5.6,6.1-9s2.2-7,2.2-10.9s-0.7-7.5-2.2-10.9s-3.5-6.5-6.1-9c-2.6-2.6-5.6-4.6-9-6.1
			C407.7,46.9,404,46.1,400.2,46.1z"/>
	</g>
</g>
</svg>
