<?xml version="1.0" encoding="utf-8"?>
<!-- Generator: Adobe Illustrator 25.2.1, SVG Export Plug-In . SVG Version: 6.00 Build 0)  -->
<svg version="1.1" id="LOGO" xmlns="http://www.w3.org/2000/svg" xmlns:xlink="http://www.w3.org/1999/xlink" x="0px" y="0px"
	 viewBox="0 0 190 74.7" style="enable-background:new 0 0 190 74.7;" xml:space="preserve">
<symbol  id="playstationlifestyle_x5F_logo_x5F_horizontal_x5F_black" viewBox="-274 -30.8 172.5 61.6">
	<path d="M-117.6,30.8h-140.2c-8.9,0-16.1-7.2-16.1-16.1v-29.4c0-8.9,7.2-16.1,16.1-16.1h140.2c8.9,0,16.1,7.2,16.1,16.1v29.4
		C-101.5,23.6-108.7,30.8-117.6,30.8z M-185.3,24.4c2,0,3.6-1.6,3.6-3.6s-1.6-3.6-3.6-3.6c-2,0-3.6,1.6-3.6,3.6
		S-187.3,24.4-185.3,24.4z M-191.5,15.2c2,0,3.6-1.6,3.6-3.6s-1.6-3.6-3.6-3.6s-3.6,1.6-3.6,3.6S-193.5,15.2-191.5,15.2z
		 M-197.8,3.5c3.5,0,6.3-2.8,6.3-6.3c0-3.5-2.8-6.3-6.3-6.3c-3.5,0-6.3,2.8-6.3,6.3C-204.1,0.6-201.3,3.5-197.8,3.5z M-198.7,23.6
		l0.3,0.1c1,0.2,1.9-0.4,2.1-1.4l0.6-2.8c0.2-1-0.4-1.9-1.4-2.1l-0.3-0.1c-1-0.2-1.9,0.4-2.1,1.4l-0.6,2.8
		C-200.3,22.5-199.7,23.4-198.7,23.6z M-270.3-11.4c0,2,0,15.1,0,24.5c0,9.5,8.4,14,15.6,14c4.1,0,57.4,0,58.5,0s0.9-0.3,0.8-0.4
		c-0.1-0.2-0.8-1-1.2-1.3c-0.4-0.2-6.6-1.5-6.8-1.4c-0.2,0.1-1,0.4-2.1,0.2s-29.8-6.1-31.8-6.6c-0.6-0.1-1.3-0.9-2.1-1.1
		c-0.8-0.1-3.7-0.8-4.9-1s-1.6-0.3-2.1-0.1c-0.5,0.2-1.3,0.7-1.3,0.7s-0.8,1.6-7,0.2c-6.9-1.6-6.1-4-6.1-4
		c-7.3-11.1-6.4-34.2-6.4-34.2C-270.3-18.1-270.3-13.4-270.3-11.4z M-211.7-8.7c0-1.6-1.3-2.9-2.9-2.9c-1.6,0-2.9,1.3-2.9,2.9
		c0,1.6,1.3,2.9,2.9,2.9C-213-5.8-211.7-7.1-211.7-8.7z M-250.8,3.3l-1.2-2.6c-0.2-0.4-0.7-0.5-1.1-0.2l-2.1,1.9
		c-0.1,0.1-0.2,0.2-0.2,0.4l-0.6,2.5c-0.1,0.4,0.1,0.8,0.5,0.9l3.3,0.8c0.4,0.1,0.8-0.1,0.9-0.5l0.6-2.6
		C-250.6,3.7-250.7,3.5-250.8,3.3z M-254.3-2.2l-1.9-2.1c-0.1-0.1-0.2-0.2-0.4-0.2l-2.5-0.6c-0.4-0.1-0.8,0.1-0.9,0.5l-0.8,3.3
		c-0.1,0.4,0.1,0.8,0.5,0.9l2.6,0.6c0.2,0,0.4,0,0.5-0.1l2.6-1.2C-254.1-1.4-254-1.9-254.3-2.2z M-248.7-8.6l-3.3-0.8
		c-0.4-0.1-0.8,0.1-0.9,0.5l-0.6,2.6c0,0.2,0,0.4,0.1,0.5l1.2,2.6c0.2,0.4,0.7,0.5,1.1,0.2l2.1-1.9c0.1-0.1,0.2-0.2,0.2-0.4l0.6-2.5
		C-248-8.1-248.3-8.5-248.7-8.6z M-244.2-1.9l-2.6-0.6c-0.2,0-0.4,0-0.5,0.1l-2.6,1.2c-0.4,0.2-0.5,0.7-0.2,1.1l1.9,2.1
		c0.1,0.1,0.2,0.2,0.4,0.2l2.5,0.6c0.4,0.1,0.8-0.1,0.9-0.5l0.8-3.3C-243.6-1.4-243.8-1.8-244.2-1.9z M-241.1,8.3l-0.3-0.1
		c-1-0.2-1.9,0.4-2.1,1.4l-0.6,2.8c-0.2,1,0.4,1.9,1.4,2.1l0.3,0.1c1,0.2,1.9-0.4,2.1-1.4l0.6-2.8C-239.5,9.4-240.2,8.5-241.1,8.3z
		 M-233.1-3.8c3.5,0,6.3-2.8,6.3-6.3c0-3.5-2.8-6.3-6.3-6.3c-3.5,0-6.3,2.8-6.3,6.3C-239.4-6.6-236.6-3.8-233.1-3.8z M-238.2-27.8
		c0,0,0.4,3.7,2.2,3.7s2.8-1.5,7.1-0.4c4.3,1.2,6,3.5,6,3.5l20.6,4.3c0,0,3.6-1.3,6.6-0.9c2.9,0.3,6.2,2.9,7,3.1
		c0.8,0.2,1.2,0.6,2.7-1.4s5.9-10.1,7.5-12H-238.2z M-181.7,2.6c-2,0-3.6,1.6-3.6,3.6s1.6,3.6,3.6,3.6s3.6-1.6,3.6-3.6
		S-179.8,2.6-181.7,2.6z M-175.9,11.7c-2,0-3.6,1.6-3.6,3.6s1.6,3.6,3.6,3.6c2,0,3.6-1.6,3.6-3.6S-174,11.7-175.9,11.7z M-161.8,0.6
		c0,0-7.9,18.5-17.3,26.6c0,0,1.4,0,3.5,0c2.1,0,13.8-3.2,13.8-14.6V0.6z M-116.2-27.4h-14.3c-1.1,0-2.1,0.6-2.7,1.5
		c-0.6-0.9-1.6-1.5-2.7-1.5c0,0-4.1,0-10.8,0c-7.6,0-10.8,5.9-10.8,12.2c0,2.5,0,10.2,0,10.2c0,1.8,1.4,3.2,3.2,3.2s3.2-1.4,3.2-3.2
		c0,0,0-7.4,0-10.4s2.3-5.6,6.1-5.6c3.8,0,9,0,9,0c1.1,0,2.1-0.6,2.7-1.5c0.6,0.9,1.6,1.5,2.7,1.5h14.3c0.9,0,1.6,0.7,1.6,1.6
		c0,0.9-0.7,1.6-1.6,1.6h0l0,0l0,0h-11.1v0c-4.4,0-8,3.6-8,8c0,4.4,3.6,8,8,8h14.6c1.8,0,3.2-1.4,3.2-3.2c0-1.8-1.4-3.2-3.2-3.2
		c0,0-0.1,0-0.1,0h-14.5c-0.9,0-1.6-0.7-1.6-1.6c0-0.9,0.7-1.6,1.6-1.6h11.1c4.4,0,8-3.6,8-8C-108.2-23.8-111.8-27.4-116.2-27.4z
		 M-116.2,0.3h-14.3c-1.8,0-3.2,1.4-3.2,3.2c0,1.8,1.4,3.2,3.2,3.2h14.3c0.9,0,1.6,0.7,1.6,1.6c0,0.9-0.7,1.6-1.6,1.6h0l0,0l0,0
		h-11.1v0c-2.3,0-4.4,1-5.9,2.6c-1.5-1.6-3.6-2.6-5.9-2.6v0h-12V3.5c0-1.8-1.4-3.2-3.2-3.2s-3.2,1.4-3.2,3.2v12.9h18.4
		c0.9,0,1.6,0.7,1.6,1.6c0,0.9-0.7,1.6-1.6,1.6h-15.4c0,0-0.1,0-0.1,0c-1.8,0-3.2,1.4-3.2,3.2c0,1.8,1.4,3.2,3.2,3.2h15.5
		c2.3,0,4.4-1,5.9-2.6c1.5,1.6,3.6,2.6,5.9,2.6h14.6c1.8,0,3.2-1.4,3.2-3.2c0-1.8-1.4-3.2-3.2-3.2c0,0-0.1,0-0.1,0h-14.5
		c-0.9,0-1.6-0.7-1.6-1.6c0-0.9,0.7-1.6,1.6-1.6h11.1c4.4,0,8-3.6,8-8C-108.2,3.9-111.8,0.3-116.2,0.3z"/>
</symbol>
<use xlink:href="#playstationlifestyle_x5F_logo_x5F_horizontal_x5F_black"  width="172.5" height="61.6" id="XMLID_1_" x="-274" y="-30.8" transform="matrix(1 0 0 -1 282 37.3333)" style="overflow:visible;"/>
</svg>
