<?xml version="1.0" encoding="utf-8"?>
<!-- Generator: Adobe Illustrator 25.2.1, SVG Export Plug-In . SVG Version: 6.00 Build 0)  -->
<svg version="1.1" id="LOGO" xmlns="http://www.w3.org/2000/svg" xmlns:xlink="http://www.w3.org/1999/xlink" x="0px" y="0px"
	 viewBox="0 0 190 74.7" style="enable-background:new 0 0 190 74.7;" xml:space="preserve">
<style type="text/css">
	.st0{fill:#282828;}
</style>
<g id="XMLID_1_">
	<g>
		<path class="st0" d="M164.4,6.5H24.2C15.3,6.5,8,13.8,8,22.7V52c0,8.9,7.2,16.1,16.1,16.1h140.2c8.9,0,16.1-7.2,16.1-16.1V22.7
			C180.5,13.8,173.3,6.5,164.4,6.5z M96.7,12.9c2,0,3.6,1.6,3.6,3.6s-1.6,3.6-3.6,3.6s-3.6-1.6-3.6-3.6S94.7,12.9,96.7,12.9z
			 M90.5,22.1c2,0,3.6,1.6,3.6,3.6s-1.6,3.6-3.6,3.6s-3.6-1.6-3.6-3.6S88.5,22.1,90.5,22.1z M84.2,33.9c3.5,0,6.3,2.8,6.3,6.3
			c0,3.5-2.8,6.3-6.3,6.3c-3.5,0-6.3-2.8-6.3-6.3C77.9,36.7,80.7,33.9,84.2,33.9z M83.3,13.7l0.3-0.1c1-0.2,1.9,0.4,2.1,1.4l0.6,2.8
			c0.2,1-0.4,1.9-1.4,2.1l-0.3,0.1c-1,0.2-1.9-0.4-2.1-1.4l-0.6-2.8C81.7,14.9,82.3,13.9,83.3,13.7z M11.7,48.7c0-2,0-15.1,0-24.5
			c0-9.5,8.4-14,15.6-14c4.1,0,57.4,0,58.5,0c1.1,0,0.9,0.3,0.8,0.4c-0.1,0.2-0.8,1-1.2,1.3c-0.4,0.2-6.6,1.5-6.8,1.4
			c-0.2-0.1-1-0.4-2.1-0.2c-1.2,0.2-29.8,6.1-31.8,6.6c-0.6,0.1-1.3,0.9-2.1,1.1c-0.8,0.1-3.7,0.8-4.9,1c-1.2,0.3-1.6,0.3-2.1,0.1
			c-0.5-0.2-1.3-0.7-1.3-0.7s-0.8-1.6-7-0.2c-6.9,1.6-6.1,4-6.1,4C14,36,14.9,59.1,14.9,59.1C11.7,55.5,11.7,50.7,11.7,48.7z
			 M70.3,46c0,1.6-1.3,2.9-2.9,2.9c-1.6,0-2.9-1.3-2.9-2.9c0-1.6,1.3-2.9,2.9-2.9C69,43.2,70.3,44.5,70.3,46z M31.2,34l-1.2,2.6
			c-0.2,0.4-0.7,0.5-1.1,0.2l-2.1-1.9c-0.1-0.1-0.2-0.2-0.2-0.4L26,32c-0.1-0.4,0.1-0.8,0.5-0.9l3.3-0.8c0.4-0.1,0.8,0.1,0.9,0.5
			l0.6,2.6C31.4,33.7,31.3,33.8,31.2,34z M27.7,39.5l-1.9,2.1c-0.1,0.1-0.2,0.2-0.4,0.2l-2.5,0.6c-0.4,0.1-0.8-0.1-0.9-0.5l-0.8-3.3
			c-0.1-0.4,0.1-0.8,0.5-0.9l2.6-0.6c0.2,0,0.4,0,0.5,0.1l2.6,1.2C27.9,38.7,28,39.2,27.7,39.5z M33.3,45.9l-3.3,0.8
			c-0.4,0.1-0.8-0.1-0.9-0.5l-0.6-2.6c0-0.2,0-0.4,0.1-0.5l1.2-2.6c0.2-0.4,0.7-0.5,1.1-0.2l2.1,1.9c0.1,0.1,0.2,0.2,0.2,0.4
			l0.6,2.5C34,45.4,33.7,45.8,33.3,45.9z M37.8,39.2l-2.6,0.6c-0.2,0-0.4,0-0.5-0.1L32,38.6c-0.4-0.2-0.5-0.7-0.2-1.1l1.9-2.1
			c0.1-0.1,0.2-0.2,0.4-0.2l2.5-0.6c0.4-0.1,0.8,0.1,0.9,0.5l0.8,3.3C38.4,38.7,38.2,39.1,37.8,39.2z M40.9,29l-0.3,0.1
			c-1,0.2-1.9-0.4-2.1-1.4l-0.6-2.8c-0.2-1,0.4-1.9,1.4-2.1l0.3-0.1c1-0.2,1.9,0.4,2.1,1.4l0.6,2.8C42.5,27.9,41.8,28.8,40.9,29z
			 M48.9,41.1c3.5,0,6.3,2.8,6.3,6.3c0,3.5-2.8,6.3-6.3,6.3c-3.5,0-6.3-2.8-6.3-6.3C42.6,43.9,45.4,41.1,48.9,41.1z M43.8,65.1
			c0,0,0.4-3.7,2.2-3.7c1.8,0,2.8,1.5,7.1,0.4c4.3-1.2,6-3.5,6-3.5L79.6,54c0,0,3.6,1.3,6.6,0.9c2.9-0.3,6.2-2.9,7-3.1
			s1.2-0.6,2.7,1.4s5.9,10.1,7.5,12H43.8z M100.3,34.8c-2,0-3.6-1.6-3.6-3.6s1.6-3.6,3.6-3.6s3.6,1.6,3.6,3.6S102.2,34.8,100.3,34.8
			z M106.1,25.7c-2,0-3.6-1.6-3.6-3.6s1.6-3.6,3.6-3.6c2,0,3.6,1.6,3.6,3.6S108,25.7,106.1,25.7z M120.2,36.7
			c0,0-7.9-18.5-17.3-26.6c0,0,1.4,0,3.5,0c2.1,0,13.8,3.2,13.8,14.6V36.7z M165.8,64.8h-14.3c-1.1,0-2.1-0.6-2.7-1.5
			c-0.6,0.9-1.6,1.5-2.7,1.5c0,0-4.1,0-10.8,0c-7.6,0-10.8-5.9-10.8-12.2c0-2.5,0-10.2,0-10.2c0-1.8,1.4-3.2,3.2-3.2
			s3.2,1.4,3.2,3.2c0,0,0,7.4,0,10.4s2.3,5.6,6.1,5.6c3.8,0,9,0,9,0c1.1,0,2.1,0.6,2.7,1.5c0.6-0.9,1.6-1.5,2.7-1.5h14.3
			c0.9,0,1.6-0.7,1.6-1.6c0-0.9-0.7-1.6-1.6-1.6h0l0,0l0,0h-11.1v0c-4.4,0-8-3.6-8-8c0-4.4,3.6-8,8-8h14.6c1.8,0,3.2,1.4,3.2,3.2
			c0,1.8-1.4,3.2-3.2,3.2c0,0-0.1,0-0.1,0h-14.5c-0.9,0-1.6,0.7-1.6,1.6c0,0.9,0.7,1.6,1.6,1.6h11.1c4.4,0,8,3.6,8,8
			C173.8,61.2,170.2,64.8,165.8,64.8z M165.8,37h-14.3c-1.8,0-3.2-1.4-3.2-3.2c0-1.8,1.4-3.2,3.2-3.2h14.3c0.9,0,1.6-0.7,1.6-1.6
			c0-0.9-0.7-1.6-1.6-1.6h0l0,0l0,0h-11.1v0c-2.3,0-4.4-1-5.9-2.6c-1.5,1.6-3.6,2.6-5.9,2.6v0h-12v6.5c0,1.8-1.4,3.2-3.2,3.2
			s-3.2-1.4-3.2-3.2V21h18.4c0.9,0,1.6-0.7,1.6-1.6c0-0.9-0.7-1.6-1.6-1.6h-15.4c0,0-0.1,0-0.1,0c-1.8,0-3.2-1.4-3.2-3.2
			c0-1.8,1.4-3.2,3.2-3.2h15.5c2.3,0,4.4,1,5.9,2.6c1.5-1.6,3.6-2.6,5.9-2.6h14.6c1.8,0,3.2,1.4,3.2,3.2c0,1.8-1.4,3.2-3.2,3.2
			c0,0-0.1,0-0.1,0h-14.5c-0.9,0-1.6,0.7-1.6,1.6c0,0.9,0.7,1.6,1.6,1.6h11.1c4.4,0,8,3.6,8,8C173.8,33.4,170.2,37,165.8,37z"/>
	</g>
</g>
</svg>
