<?xml version="1.0" encoding="utf-8"?>
<!-- Generator: Adobe Illustrator 25.2.1, SVG Export Plug-In . SVG Version: 6.00 Build 0)  -->
<svg version="1.1" id="LOGO" xmlns="http://www.w3.org/2000/svg" xmlns:xlink="http://www.w3.org/1999/xlink" x="0px" y="0px"
	 viewBox="0 0 172.5 61.6" style="enable-background:new 0 0 172.5 61.6;" xml:space="preserve">
<symbol  id="playstationlifestyle_x5F_logo_x5F_horizontal_x5F_black" viewBox="-86.2 -30.8 172.4 61.6">
	<path d="M70.1,30.8H-70.1c-8.9,0-16.1-7.2-16.1-16.1v-29.4c0-8.9,7.2-16.1,16.1-16.1H70.1c8.9,0,16.1,7.2,16.1,16.1v29.4
		C86.2,23.6,79,30.8,70.1,30.8z M2.4,24.4c2,0,3.6-1.6,3.6-3.6s-1.6-3.6-3.6-3.6s-3.6,1.6-3.6,3.6S0.4,24.4,2.4,24.4z M-3.8,15.2
		c2,0,3.6-1.6,3.6-3.6S-1.8,8-3.8,8s-3.6,1.6-3.6,3.6S-5.8,15.2-3.8,15.2z M-10.1,3.5c3.5,0,6.3-2.8,6.3-6.3s-2.8-6.3-6.3-6.3
		s-6.3,2.8-6.3,6.3C-16.4,0.6-13.6,3.5-10.1,3.5z M-11,23.6l0.3,0.1c1,0.2,1.9-0.4,2.1-1.4l0.6-2.8c0.2-1-0.4-1.9-1.4-2.1l-0.3-0.1
		c-1-0.2-1.9,0.4-2.1,1.4l-0.6,2.8C-12.6,22.5-12,23.4-11,23.6z M-82.6-11.4c0,2,0,15.1,0,24.5c0,9.5,8.4,14,15.6,14
		c4.1,0,57.4,0,58.5,0s0.9-0.3,0.8-0.4c-0.1-0.2-0.8-1-1.2-1.3c-0.4-0.2-6.6-1.5-6.8-1.4c-0.2,0.1-1,0.4-2.1,0.2
		c-1.1-0.2-29.8-6.1-31.8-6.6c-0.6-0.1-1.3-0.9-2.1-1.1c-0.8-0.1-3.7-0.8-4.9-1s-1.6-0.3-2.1-0.1s-1.3,0.7-1.3,0.7s-0.8,1.6-7,0.2
		c-6.9-1.6-6.1-4-6.1-4c-7.3-11.1-6.4-34.2-6.4-34.2C-82.6-18.1-82.6-13.4-82.6-11.4z M-24-8.7c0-1.6-1.3-2.9-2.9-2.9
		c-1.6,0-2.9,1.3-2.9,2.9s1.3,2.9,2.9,2.9C-25.3-5.8-24-7.1-24-8.7z M-63.1,3.3l-1.2-2.6c-0.2-0.4-0.7-0.5-1.1-0.2l-2.1,1.9
		c-0.1,0.1-0.2,0.2-0.2,0.4l-0.6,2.5c-0.1,0.4,0.1,0.8,0.5,0.9l3.3,0.8c0.4,0.1,0.8-0.1,0.9-0.5l0.6-2.6C-62.9,3.7-63,3.5-63.1,3.3z
		 M-66.6-2.2l-1.9-2.1c-0.1-0.1-0.2-0.2-0.4-0.2l-2.5-0.6c-0.4-0.1-0.8,0.1-0.9,0.5l-0.8,3.3c-0.1,0.4,0.1,0.8,0.5,0.9l2.6,0.6
		c0.2,0,0.4,0,0.5-0.1l2.6-1.2C-66.4-1.4-66.3-1.9-66.6-2.2z M-61-8.6l-3.3-0.8c-0.4-0.1-0.8,0.1-0.9,0.5l-0.6,2.6
		c0,0.2,0,0.4,0.1,0.5l1.2,2.6c0.2,0.4,0.7,0.5,1.1,0.2l2.1-1.9c0.1-0.1,0.2-0.2,0.2-0.4l0.6-2.5C-60.3-8.1-60.6-8.5-61-8.6z
		 M-56.5-1.9l-2.6-0.6c-0.2,0-0.4,0-0.5,0.1l-2.6,1.2c-0.4,0.2-0.5,0.7-0.2,1.1l1.9,2.1c0.1,0.1,0.2,0.2,0.4,0.2l2.5,0.6
		c0.4,0.1,0.8-0.1,0.9-0.5l0.8-3.3C-55.9-1.4-56.1-1.8-56.5-1.9z M-53.4,8.3l-0.3-0.1c-1-0.2-1.9,0.4-2.1,1.4l-0.6,2.8
		c-0.2,1,0.4,1.9,1.4,2.1l0.3,0.1c1,0.2,1.9-0.4,2.1-1.4l0.6-2.8C-51.8,9.4-52.5,8.5-53.4,8.3z M-45.4-3.8c3.5,0,6.3-2.8,6.3-6.3
		s-2.8-6.3-6.3-6.3s-6.3,2.8-6.3,6.3C-51.7-6.6-48.9-3.8-45.4-3.8z M-50.5-27.8c0,0,0.4,3.7,2.2,3.7s2.8-1.5,7.1-0.4
		c4.3,1.2,6,3.5,6,3.5l20.6,4.3c0,0,3.6-1.3,6.6-0.9c2.9,0.3,6.2,2.9,7,3.1c0.8,0.2,1.2,0.6,2.7-1.4s5.9-10.1,7.5-12L-50.5-27.8
		L-50.5-27.8z M6,2.6c-2,0-3.6,1.6-3.6,3.6S4,9.8,6,9.8s3.6-1.6,3.6-3.6S7.9,2.6,6,2.6z M11.8,11.7c-2,0-3.6,1.6-3.6,3.6
		s1.6,3.6,3.6,3.6s3.6-1.6,3.6-3.6S13.7,11.7,11.8,11.7z M25.9,0.6c0,0-7.9,18.5-17.3,26.6c0,0,1.4,0,3.5,0S25.9,24,25.9,12.6V0.6z
		 M71.5-27.4H57.2c-1.1,0-2.1,0.6-2.7,1.5c-0.6-0.9-1.6-1.5-2.7-1.5c0,0-4.1,0-10.8,0c-7.6,0-10.8,5.9-10.8,12.2
		c0,2.5,0,10.2,0,10.2c0,1.8,1.4,3.2,3.2,3.2s3.2-1.4,3.2-3.2c0,0,0-7.4,0-10.4s2.3-5.6,6.1-5.6s9,0,9,0c1.1,0,2.1-0.6,2.7-1.5
		C55-21.6,56-21,57.1-21h14.3c0.9,0,1.6,0.7,1.6,1.6c0,0.9-0.7,1.6-1.6,1.6l0,0l0,0l0,0H60.3l0,0c-4.4,0-8,3.6-8,8s3.6,8,8,8h14.6
		c1.8,0,3.2-1.4,3.2-3.2s-1.4-3.2-3.2-3.2h-0.1H60.3c-0.9,0-1.6-0.7-1.6-1.6c0-0.9,0.7-1.6,1.6-1.6h11.1c4.4,0,8-3.6,8-8
		C79.5-23.8,75.9-27.4,71.5-27.4z M71.5,0.3H57.2c-1.8,0-3.2,1.4-3.2,3.2s1.4,3.2,3.2,3.2h14.3c0.9,0,1.6,0.7,1.6,1.6
		c0,0.9-0.7,1.6-1.6,1.6l0,0l0,0l0,0H60.4l0,0c-2.3,0-4.4,1-5.9,2.6c-1.5-1.6-3.6-2.6-5.9-2.6l0,0h-12V3.5c0-1.8-1.4-3.2-3.2-3.2
		s-3.2,1.4-3.2,3.2v12.9h18.4c0.9,0,1.6,0.7,1.6,1.6c0,0.9-0.7,1.6-1.6,1.6H33.2h-0.1c-1.8,0-3.2,1.4-3.2,3.2c0,1.8,1.4,3.2,3.2,3.2
		h15.5c2.3,0,4.4-1,5.9-2.6C56,25,58.1,26,60.4,26H75c1.8,0,3.2-1.4,3.2-3.2s-1.4-3.2-3.2-3.2h-0.1H60.4c-0.9,0-1.6-0.7-1.6-1.6
		c0-0.9,0.7-1.6,1.6-1.6h11.1c4.4,0,8-3.6,8-8C79.5,3.9,75.9,0.3,71.5,0.3z"/>
</symbol>
<g>
	<defs>
		<rect id="SVGID_1_" width="172.5" height="61.6"/>
	</defs>
	<clipPath id="SVGID_2_">
		<use xlink:href="#SVGID_1_"  style="overflow:visible;"/>
	</clipPath>
	<g style="clip-path:url(#SVGID_2_);">
		
			<use xlink:href="#playstationlifestyle_x5F_logo_x5F_horizontal_x5F_black"  width="172.4" height="61.6" id="XMLID_1_" x="-86.2" y="-30.8" transform="matrix(1 0 0 -1 86.3 30.8)" style="overflow:visible;"/>
	</g>
</g>
</svg>
