<?xml version="1.0" encoding="utf-8"?>
<!-- Generator: Adobe Illustrator 25.2.1, SVG Export Plug-In . SVG Version: 6.00 Build 0)  -->
<svg version="1.1" id="LOGO" xmlns="http://www.w3.org/2000/svg" xmlns:xlink="http://www.w3.org/1999/xlink" x="0px" y="0px"
	 viewBox="0 0 1100 200" style="enable-background:new 0 0 1100 200;" xml:space="preserve">
<style type="text/css">
	.st0{fill:#282827;}
	.st1{fill:#F68E21;}
	.st2{fill:#70BE46;}
	.st3{fill:#A262A7;}
	.st4{fill:#6A90CA;}
	.st5{fill:#EEE82C;}
</style>
<g>
	<g id="XMLID_3_">
		<g>
			<path class="st0" d="M280.4,58.5c-1.7-11.4-6-11.4-11.2-14.1s-75-25.7-172.8-15.1c0,0-17.3-0.5-19.4,15.3
				c-0.6,4.4,1.9,16.1,5.9,30.7c-3.5,0.1-12.1,0.2-19.7,0.5c-9.8,0.3-10.9,3.5-12,8.1c-1.1,4.6,11.9,35.5,18.3,46.5
				c6.4,11,11.1,11.5,16.6,12.2c4.5,0.6,14.8-0.5,18.3-0.9c6.3,17.2,11.8,30.3,14.1,32.6c7.1,6.8,84.4,7.2,115.9-0.7
				c0,0,9.5-5.8,11-9.9C246.6,159.4,282.1,69.9,280.4,58.5z M86.3,121.2c-3.4-1.8-11.8-27.4-10.5-29.5c1.1-1.8,9.7,0,11.9,0.5
				c3,9.8,6.3,20.1,9.6,30C95,122.3,89,122.6,86.3,121.2z M180.9,170.2c-9.7-0.4-17.5-2.8-17.4-5.2c0.1-2.5,8.1-4.1,17.8-3.7
				c9.7,0.4,17.5,2.8,17.4,5.2C198.6,169,190.6,170.6,180.9,170.2z M233,146.9c-1.8,1.5-5.6,2.7-10.7,3.7v0l-1.4,0.2l-1.9,0.3v0
				c-4,0.5-9.6,1-17,1c-3,0-6.3-0.1-9.9-0.3v0l-1.7-0.1l-1.5-0.1v0c-4-0.3-7.9-0.6-11.9-1c-5.6-0.6-10.5-1.2-15-1.7v0l-1.8-0.2
				l-1.4-0.2v0c-13.2-1.6-21.5-2.9-26.9-4.8v0.2l-2.4-1.1l-0.9-0.4v-0.1c-0.8-0.4-1.5-0.8-2.1-1.3c-6.2-4.8-25-62.8-26.5-71.5
				c-0.1-0.6-0.3-1.3-0.4-2c-1-4.7-2.3-11,1.8-16c4.2-5.1,13.1-7.6,27.2-7.5v0l0.3,0c0.1,0,0.1,0,0.2,0l2.8,0.1v0
				c7.5,0.2,16.5,1,26.9,2.2v0l1.8,0.2l1.4,0.2v0c8.4,1.1,17.5,2.5,26.9,4.1v0l1.9,0.3l1.4,0.2v0c9.4,1.7,18.7,3.6,26.9,5.4v0l2,0.5
				l1.3,0.3v0c9.4,2.2,16,4,18.6,5.2l0,0c10.5,4.8,11,7.8,11.2,17.4C252.3,90.2,241.1,140.4,233,146.9z"/>
			<g>
				<path class="st1" d="M105.3,54.6L105.3,54.6c-2.8,3.4-1.8,8.2-0.9,12.4c0.2,0.8,0.3,1.5,0.4,2.1c0.7,3.8,5.5,19.6,11.2,36
					c6.3,18.1,10.2,26.8,12.2,30.3V48.7C116.2,48.7,108.5,50.7,105.3,54.6z"/>
				<path class="st2" d="M158.1,50.9c-9.6-1.2-17.9-1.9-24.9-2.1v90.4c4.8,1.9,12.8,3.1,24.9,4.6V50.9z"/>
				<path class="st3" d="M187.9,146.9V55.4c-8.7-1.5-17.1-2.8-24.9-3.9v92.9c4.3,0.5,9,1,14.4,1.6
					C180.9,146.4,184.3,146.7,187.9,146.9z"/>
				<path class="st4" d="M217.7,146.5V61.3c-7.6-1.7-16.2-3.5-24.9-5v91C204.5,147.8,212.7,147.2,217.7,146.5z"/>
				<path class="st5" d="M238.5,66.9c-2.2-1-8-2.6-15.9-4.5v83.3c4.1-0.9,6.4-1.8,7.2-2.5c2.6-2.2,7-13.7,11.1-29.4
					c3.7-14.1,6.4-28.4,6.3-33.4C247,71.9,247,70.8,238.5,66.9z"/>
			</g>
			<g>
				<path class="st0" d="M495.2,89.4c-7.5,7.2-11.2,16.6-11.2,27.9c0,11.3,3.7,20.6,11.1,27.9c7.4,7.2,16.6,10.9,27.5,10.9
					c8.5,0,16.2-2.4,22.8-7.1l0.6-0.4v5.4h22.5v-14h-7V94.5h7v-14h-22.5v5.5l-0.6-0.4c-6.6-4.7-14.3-7.1-22.8-7.1
					C511.8,78.6,502.6,82.2,495.2,89.4z M544.8,117.3c0,6.8-2.2,12.5-6.4,16.9c-4.2,4.4-9.6,6.7-15.8,6.7c-6.2,0-11.5-2.2-15.8-6.6
					c-4.3-4.4-6.5-10.1-6.5-17c0-6.7,2.1-12.3,6.3-16.8c4.2-4.5,9.5-6.8,15.9-6.8c6.1,0,11.4,2.2,15.7,6.6
					C542.6,104.7,544.8,110.4,544.8,117.3z"/>
				<path class="st0" d="M417.8,151c9.2,4.9,19.4,6.1,30.2,3.6c6.9-1.6,13.3-4.7,18.9-9.2c5.1-4,8.9-9.2,11.5-15.3l0.6-1.4h-18.9
					l-0.3,0.4c-3.5,5.1-8.6,8.5-15.2,10c-5.8,1.4-11.1,0.7-15.6-1.9c-3.9-2.2-6.9-5.6-9-9.9l-0.2-0.4l0.4-0.1l56.1-13.2l-0.5-2
					c-3.5-13.4-10-22.7-19.3-27.8c-6.5-3.5-13-5.2-19.6-5.2c-2.9,0-5.9,0.3-8.8,1c-9.7,2.3-17.6,7.9-23.4,16.7
					c-5.9,8.8-7.5,18.8-5,29.7C402.4,137.7,408.5,146,417.8,151z M417.4,111.3c0.1-3.7,1.3-7.1,3.4-10c2.6-3.6,6.4-6,11.2-7
					c5.3-1.1,10.2-0.5,14.6,1.9c3.4,1.9,6.2,4.2,8.1,6.9l0.3,0.4l-0.5,0.1l-37.1,8.1L417.4,111.3z"/>
				<path class="st0" d="M339.3,106.2h11.2l0.1,0.2l23.5,48.2h24.4v-15.4h-11.7l-17.3-35.7l0.4-0.1c13.6-3.9,20.4-12.9,20.4-26.5
					c0-6.8-1.8-12.6-5.3-17.2s-8.1-7.6-13.5-9.1c-5.2-1.4-12.4-2.1-21.2-2.1h-33.5v15.4h4.5v75.2h-4.5v15.4h28.8v-15.4h-6.3V106.2z
					 M339.3,63.9h12c5.3,0,9.3,0.3,11.9,0.9c2.4,0.6,4.4,1.9,6,4c1.6,2.1,2.5,4.7,2.5,7.8c0,3.7-0.8,6.6-2.4,8.8
					c-1.6,2.2-3.7,3.5-6.2,4.3c-2.7,0.7-7,1.1-12.7,1.1h-11V63.9z"/>
				<polygon class="st0" points="604.7,48.5 578.1,48.5 578.1,63.6 586.7,63.6 586.7,139.5 578.1,139.5 578.1,154.6 613,154.6 
					613,139.5 604.7,139.5 				"/>
				<polygon class="st0" points="647.8,80 621.5,80 621.5,95.1 629.9,95.1 629.9,139.5 621.5,139.5 621.5,154.6 656.2,154.6 
					656.2,139.5 647.8,139.5 				"/>
				<path class="st0" d="M638.8,72.1c3.2,0,6-1.2,8.3-3.4c2.3-2.3,3.5-5.1,3.5-8.4c0-3.3-1.2-6.1-3.5-8.3c-2.3-2.2-5.1-3.4-8.3-3.4
					c-3.4,0-6.2,1.2-8.5,3.5c-2.2,2.3-3.3,5.1-3.3,8.2c0,3.2,1.2,6,3.4,8.3C632.8,70.9,635.6,72.1,638.8,72.1z"/>
				<polygon class="st0" points="748.1,129.5 729.3,80 707.4,80 707.4,95.1 717,95.1 740.2,152.1 740.1,152.2 728.5,179.8 
					746,179.8 779.2,95.1 787.5,95.1 787.5,80 767.1,80 748.4,130.4 				"/>
				<path class="st0" d="M685.2,60.2h-16.6V80h-12.2v15h12.2v34.5c0,7.2,0.4,12.2,1.1,15.2c0.8,3.2,2.6,5.8,5.5,7.9
					c2.9,2.1,6.6,3.1,11.2,3.1c1.2,0,9.7-0.1,11.2-0.3l0.2,0v-15.5l-0.2,0c-0.4,0-7.6,0.1-8,0.1c-2,0-3.2-0.4-3.6-1.3
					c-0.3-0.6-0.8-2.8-0.8-9.9V95.1h13.3V80h-13.3V60.2z"/>
				<path class="st0" d="M966.5,117.5c0,11.3,3.7,20.6,11.1,27.9c7.4,7.2,16.6,10.9,27.5,10.9c8.5,0,16.2-2.4,22.8-7.1l0.6-0.4v5.4
					h22.5v-14h-7V94.7h7v-14h-22.5v5.5l-0.6-0.4c-6.6-4.7-14.3-7.1-22.8-7.1c-10.7,0-19.9,3.7-27.4,10.9
					C970.3,96.9,966.5,106.2,966.5,117.5z M989.2,100.6c4.2-4.5,9.5-6.8,15.9-6.8c6.1,0,11.4,2.2,15.7,6.6c4.3,4.4,6.5,10.1,6.5,17
					c0,6.8-2.2,12.5-6.4,16.9c-4.2,4.4-9.6,6.7-15.8,6.7c-6.2,0-11.5-2.2-15.8-6.6c-4.3-4.4-6.5-10.1-6.5-17
					C982.9,110.8,985,105.1,989.2,100.6z"/>
				<path class="st0" d="M927.2,139.4c-5.8,1.4-11.1,0.7-15.6-1.9c-3.9-2.2-6.9-5.6-9-9.9l-0.2-0.4l0.4-0.1l56.1-13.2l-0.5-2
					c-3.5-13.4-10-22.7-19.3-27.8c-6.5-3.5-13-5.2-19.6-5.2c-2.9,0-5.9,0.3-8.8,1c-9.7,2.3-17.6,7.9-23.4,16.7
					c-5.9,8.8-7.5,18.8-5,29.7c2.7,11.5,8.8,19.8,18.1,24.8c9.2,4.9,19.4,6.1,30.2,3.6c6.9-1.6,13.3-4.7,18.9-9.2
					c5.1-4,8.9-9.2,11.5-15.3l0.6-1.4h-18.9l-0.3,0.4C938.8,134.5,933.7,137.8,927.2,139.4z M899.9,111.9l0-0.5
					c0.1-3.7,1.3-7.1,3.4-10c2.6-3.6,6.4-6,11.2-7c5.3-1.1,10.2-0.5,14.6,1.9c3.4,1.9,6.2,4.2,8.1,6.9l0.3,0.4L899.9,111.9z"/>
				<polygon class="st0" points="873.3,71.5 888.7,71.5 888.7,49.2 806.9,49.2 806.9,71.5 822.4,71.5 822.4,64.6 838.7,64.6 
					838.7,139.8 828.1,139.8 828.1,155.2 867.8,155.2 867.8,139.8 857,139.8 857,64.6 873.3,64.6 				"/>
			</g>
		</g>
	</g>
</g>
</svg>
