<?xml version="1.0" encoding="utf-8"?>
<!-- Generator: Adobe Illustrator 25.2.1, SVG Export Plug-In . SVG Version: 6.00 Build 0)  -->
<svg version="1.1" id="LOGO" xmlns="http://www.w3.org/2000/svg" xmlns:xlink="http://www.w3.org/1999/xlink" x="0px" y="0px"
	 viewBox="0 0 999.9 152.9" style="enable-background:new 0 0 999.9 152.9;" xml:space="preserve">
<style type="text/css">
	.st0{fill:#282827;}
	.st1{fill:#F68E21;}
	.st2{fill:#70BE46;}
	.st3{fill:#A262A7;}
	.st4{fill:#6A90CA;}
	.st5{fill:#EEE82C;}
</style>
<g>
	<g id="XMLID_3_">
		<g>
			<path class="st0" d="M229.3,32c-1.7-11.4-6-11.4-11.2-14.1S143.1-7.8,45.3,2.8c0,0-17.3-0.5-19.4,15.3
				c-0.6,4.4,1.9,16.1,5.9,30.7c-3.5,0.1-12.1,0.2-19.7,0.5c-9.8,0.3-10.9,3.5-12,8.1C-1,62,12,92.9,18.4,103.9s11.1,11.5,16.6,12.2
				c4.5,0.6,14.8-0.5,18.3-0.9c6.3,17.2,11.8,30.3,14.1,32.6c7.1,6.8,84.4,7.2,115.9-0.7c0,0,9.5-5.8,11-9.9
				C195.5,132.9,231,43.4,229.3,32z M35.2,94.7c-3.4-1.8-11.8-27.4-10.5-29.5c1.1-1.8,9.7,0,11.9,0.5c3,9.8,6.3,20.1,9.6,30
				C43.9,95.8,37.9,96.1,35.2,94.7z M129.8,143.7c-9.7-0.4-17.5-2.8-17.4-5.2c0.1-2.5,8.1-4.1,17.8-3.7c9.7,0.4,17.5,2.8,17.4,5.2
				C147.5,142.5,139.5,144.1,129.8,143.7z M181.9,120.4c-1.8,1.5-5.6,2.7-10.7,3.7l0,0l-1.4,0.2l-1.9,0.3l0,0c-4,0.5-9.6,1-17,1
				c-3,0-6.3-0.1-9.9-0.3l0,0l-1.7-0.1l-1.5-0.1l0,0c-4-0.3-7.9-0.6-11.9-1c-5.6-0.6-10.5-1.2-15-1.7l0,0l-1.8-0.2l-1.4-0.2l0,0
				c-13.2-1.6-21.5-2.9-26.9-4.8v0.2l-2.4-1.1l-0.9-0.4v-0.1c-0.8-0.4-1.5-0.8-2.1-1.3c-6.2-4.8-25-62.8-26.5-71.5
				c-0.1-0.6-0.3-1.3-0.4-2c-1-4.7-2.3-11,1.8-16c4.2-5.1,13.1-7.6,27.2-7.5l0,0h0.3c0.1,0,0.1,0,0.2,0l2.8,0.1l0,0
				c7.5,0.2,16.5,1,26.9,2.2l0,0l1.8,0.2l1.4,0.2l0,0c8.4,1.1,17.5,2.5,26.9,4.1l0,0l1.9,0.3l1.4,0.2l0,0c9.4,1.7,18.7,3.6,26.9,5.4
				l0,0l2,0.5l1.3,0.3l0,0c9.4,2.2,16,4,18.6,5.2l0,0c10.5,4.8,11,7.8,11.2,17.4C201.2,63.7,190,113.9,181.9,120.4z"/>
			<g>
				<path class="st1" d="M54.2,28.1L54.2,28.1c-2.8,3.4-1.8,8.2-0.9,12.4c0.2,0.8,0.3,1.5,0.4,2.1c0.7,3.8,5.5,19.6,11.2,36
					c6.3,18.1,10.2,26.8,12.2,30.3V22.2C65.1,22.2,57.4,24.2,54.2,28.1z"/>
				<path class="st2" d="M107,24.4c-9.6-1.2-17.9-1.9-24.9-2.1v90.4c4.8,1.9,12.8,3.1,24.9,4.6V24.4z"/>
				<path class="st3" d="M136.8,120.4V28.9c-8.7-1.5-17.1-2.8-24.9-3.9v92.9c4.3,0.5,9,1,14.4,1.6
					C129.8,119.9,133.2,120.2,136.8,120.4z"/>
				<path class="st4" d="M166.6,120V34.8c-7.6-1.7-16.2-3.5-24.9-5v91C153.4,121.3,161.6,120.7,166.6,120z"/>
				<path class="st5" d="M187.4,40.4c-2.2-1-8-2.6-15.9-4.5v83.3c4.1-0.9,6.4-1.8,7.2-2.5c2.6-2.2,7-13.7,11.1-29.4
					c3.7-14.1,6.4-28.4,6.3-33.4C195.9,45.4,195.9,44.3,187.4,40.4z"/>
			</g>
			<g>
				<path class="st0" d="M444.1,62.9c-7.5,7.2-11.2,16.6-11.2,27.9s3.7,20.6,11.1,27.9c7.4,7.2,16.6,10.9,27.5,10.9
					c8.5,0,16.2-2.4,22.8-7.1l0.6-0.4v5.4h22.5v-14h-7V68h7V54h-22.5v5.5l-0.6-0.4c-6.6-4.7-14.3-7.1-22.8-7.1
					C460.7,52.1,451.5,55.7,444.1,62.9z M493.7,90.8c0,6.8-2.2,12.5-6.4,16.9s-9.6,6.7-15.8,6.7s-11.5-2.2-15.8-6.6
					c-4.3-4.4-6.5-10.1-6.5-17c0-6.7,2.1-12.3,6.3-16.8c4.2-4.5,9.5-6.8,15.9-6.8c6.1,0,11.4,2.2,15.7,6.6
					C491.5,78.2,493.7,83.9,493.7,90.8z"/>
				<path class="st0" d="M366.7,124.5c9.2,4.9,19.4,6.1,30.2,3.6c6.9-1.6,13.3-4.7,18.9-9.2c5.1-4,8.9-9.2,11.5-15.3l0.6-1.4H409
					l-0.3,0.4c-3.5,5.1-8.6,8.5-15.2,10c-5.8,1.4-11.1,0.7-15.6-1.9c-3.9-2.2-6.9-5.6-9-9.9l-0.2-0.4l0.4-0.1l56.1-13.2l-0.5-2
					c-3.5-13.4-10-22.7-19.3-27.8c-6.5-3.5-13-5.2-19.6-5.2c-2.9,0-5.9,0.3-8.8,1c-9.7,2.3-17.6,7.9-23.4,16.7
					c-5.9,8.8-7.5,18.8-5,29.7C351.3,111.2,357.4,119.5,366.7,124.5z M366.3,84.8c0.1-3.7,1.3-7.1,3.4-10c2.6-3.6,6.4-6,11.2-7
					c5.3-1.1,10.2-0.5,14.6,1.9c3.4,1.9,6.2,4.2,8.1,6.9l0.3,0.4l-0.5,0.1l-37.1,8.1V84.8z"/>
				<path class="st0" d="M288.2,79.7h11.2l0.1,0.2l23.5,48.2h24.4v-15.4h-11.7L318.4,77l0.4-0.1c13.6-3.9,20.4-12.9,20.4-26.5
					c0-6.8-1.8-12.6-5.3-17.2s-8.1-7.6-13.5-9.1c-5.2-1.4-12.4-2.1-21.2-2.1h-33.5v15.4h4.5v75.2h-4.5V128h28.8v-15.4h-6.3V79.7z
					 M288.2,37.4h12c5.3,0,9.3,0.3,11.9,0.9c2.4,0.6,4.4,1.9,6,4s2.5,4.7,2.5,7.8c0,3.7-0.8,6.6-2.4,8.8c-1.6,2.2-3.7,3.5-6.2,4.3
					c-2.7,0.7-7,1.1-12.7,1.1h-11L288.2,37.4L288.2,37.4z"/>
				<polygon class="st0" points="553.6,22 527,22 527,37.1 535.6,37.1 535.6,113 527,113 527,128.1 561.9,128.1 561.9,113 
					553.6,113 				"/>
				<polygon class="st0" points="596.7,53.5 570.4,53.5 570.4,68.6 578.8,68.6 578.8,113 570.4,113 570.4,128.1 605.1,128.1 
					605.1,113 596.7,113 				"/>
				<path class="st0" d="M587.7,45.6c3.2,0,6-1.2,8.3-3.4c2.3-2.3,3.5-5.1,3.5-8.4s-1.2-6.1-3.5-8.3s-5.1-3.4-8.3-3.4
					c-3.4,0-6.2,1.2-8.5,3.5c-2.2,2.3-3.3,5.1-3.3,8.2c0,3.2,1.2,6,3.4,8.3C581.7,44.4,584.5,45.6,587.7,45.6z"/>
				<polygon class="st0" points="697,103 678.2,53.5 656.3,53.5 656.3,68.6 665.9,68.6 689.1,125.6 689,125.7 677.4,153.3 
					694.9,153.3 728.1,68.6 736.4,68.6 736.4,53.5 716,53.5 697.3,103.9 				"/>
				<path class="st0" d="M634.1,33.7h-16.6v19.8h-12.2v15h12.2V103c0,7.2,0.4,12.2,1.1,15.2c0.8,3.2,2.6,5.8,5.5,7.9
					c2.9,2.1,6.6,3.1,11.2,3.1c1.2,0,9.7-0.1,11.2-0.3h0.2v-15.5h-0.2c-0.4,0-7.6,0.1-8,0.1c-2,0-3.2-0.4-3.6-1.3
					c-0.3-0.6-0.8-2.8-0.8-9.9V68.6h13.3V53.5h-13.3L634.1,33.7L634.1,33.7z"/>
				<path class="st0" d="M915.4,91c0,11.3,3.7,20.6,11.1,27.9c7.4,7.2,16.6,10.9,27.5,10.9c8.5,0,16.2-2.4,22.8-7.1l0.6-0.4v5.4
					h22.5v-14h-7V68.2h7v-14h-22.5v5.5l-0.6-0.4c-6.6-4.7-14.3-7.1-22.8-7.1c-10.7,0-19.9,3.7-27.4,10.9
					C919.2,70.4,915.4,79.7,915.4,91z M938.1,74.1c4.2-4.5,9.5-6.8,15.9-6.8c6.1,0,11.4,2.2,15.7,6.6c4.3,4.4,6.5,10.1,6.5,17
					c0,6.8-2.2,12.5-6.4,16.9c-4.2,4.4-9.6,6.7-15.8,6.7s-11.5-2.2-15.8-6.6c-4.3-4.4-6.5-10.1-6.5-17
					C931.8,84.3,933.9,78.6,938.1,74.1z"/>
				<path class="st0" d="M876.1,112.9c-5.8,1.4-11.1,0.7-15.6-1.9c-3.9-2.2-6.9-5.6-9-9.9l-0.2-0.4l0.4-0.1l56.1-13.2l-0.5-2
					c-3.5-13.4-10-22.7-19.3-27.8c-6.5-3.5-13-5.2-19.6-5.2c-2.9,0-5.9,0.3-8.8,1c-9.7,2.3-17.6,7.9-23.4,16.7
					c-5.9,8.8-7.5,18.8-5,29.7c2.7,11.5,8.8,19.8,18.1,24.8c9.2,4.9,19.4,6.1,30.2,3.6c6.9-1.6,13.3-4.7,18.9-9.2
					c5.1-4,8.9-9.2,11.5-15.3l0.6-1.4h-18.9l-0.3,0.4C887.7,108,882.6,111.3,876.1,112.9z M848.8,85.4v-0.5c0.1-3.7,1.3-7.1,3.4-10
					c2.6-3.6,6.4-6,11.2-7c5.3-1.1,10.2-0.5,14.6,1.9c3.4,1.9,6.2,4.2,8.1,6.9l0.3,0.4L848.8,85.4z"/>
				<polygon class="st0" points="822.2,45 837.6,45 837.6,22.7 755.8,22.7 755.8,45 771.3,45 771.3,38.1 787.6,38.1 787.6,113.3 
					777,113.3 777,128.7 816.7,128.7 816.7,113.3 805.9,113.3 805.9,38.1 822.2,38.1 				"/>
			</g>
		</g>
	</g>
</g>
</svg>
