<?xml version="1.0" encoding="utf-8"?>
<!-- Generator: Adobe Illustrator 25.2.1, SVG Export Plug-In . SVG Version: 6.00 Build 0)  -->
<svg version="1.1" id="logo" xmlns="http://www.w3.org/2000/svg" xmlns:xlink="http://www.w3.org/1999/xlink" x="0px" y="0px"
	 viewBox="0 0 504 144" style="enable-background:new 0 0 504 144;" xml:space="preserve">
<style type="text/css">
	.st0{fill:#EC5628;}
	.st1{fill:#181818;}
	.st2{fill:#FFFFFF;}
	.st3{fill:none;}
</style>
<g>
	<path class="st0" d="M483.1,48.2l-188.8,0c-10.4-10.1-21.3-16.4-28.9-16.4c-2.1,0-3.7,0.5-4.9,1c-3.8-2.4-19.3-12.4-19.3-12.4
		s5.1,19.1,6.2,23.4c-1,0.6-2.2,2.9-2.4,4.3H35.3c-3.6,0-6.7,0.9-9.4,2.8c-4.1,2.8-4.9,6.3-4.9,8.8v41.6h229.9l2.9,5.5
		c1.3,2.4,3.8,3.9,6.5,3.9c1.2,0,2.4-0.3,3.5-0.9l7.8-4.2l-1,8.7c0,0,10.8-9.4,13.1-11.4c2.8,1.7,5.5,2.9,8,3.5
		c1.8,3.7,8.9,18,8.9,18s5.1-17.7,6.3-22.2c0.3-0.3,0.7-0.6,1-0.8h175V48.2z"/>
	<g>
		<g>
			<path class="st1" d="M306.3,90.5c-5.1,0.8-13.9-5.2-22.3-13.5c1-2.2,0.2-4.1-0.1-5.1c-0.7-1.9-2.8-3.9-3.7-4.5
				c-1-0.7-2.1-1-3.1-0.7c-0.9,0.2-1.4,0.7-1.6,0.9c-9-11.2-16-24.5-11.8-28.1c5.2-4.4,20.2,8,31.2,19.9c4.6,5,8.6,10.1,11.3,14.8
				V70c-1.8-2.7-4.1-5.8-7-9.3c-15.7-19.2-32.9-27.9-38.2-23.1c-0.2,0.2-0.5,0.4-0.8,0.7c-2.9-1.9-12-7.8-12-7.8s3.4,13,3.9,14.7
				c-1,0.9-1.8,1.7-2.2,2.1c-0.9,1.1-1.3,3.1-0.9,5.7c-3.5,2-7.1,4.1-7.1,4.1s4.6,0.9,8.9,1.7c1.1,2.3,3.2,5.7,6,9.7
				c-3.2,2.6-6.5,5.3-6.5,5.3s5.9,0.2,10.6,0.3c0.8,1.1,1.7,2.2,2.6,3.4c-0.1,0-0.1,0.1-0.2,0.2c-1.7,1.8-2,3.5-1.8,4.8l-10,5.4
				c-1.4,0.8-1.9,2.5-1.2,3.9l6.9,12.9c0.5,1,1.5,1.5,2.5,1.5c0.5,0,0.9-0.1,1.3-0.3l12.9-6.9c1.4-0.8,1.9-2.5,1.2-3.9l-3.9-7.3
				c0.2-0.1,0.4-0.3,0.6-0.4c1.7,1.8,3.5,3.6,5.3,5.2c-0.5,4.7-1.2,10.8-1.2,10.8s3.6-3.2,7-6.1c4.8,3.5,8.6,4.9,11.5,5.1
				c2.1,4.2,4.7,9.5,4.7,9.5s2.2-7.8,3.5-12.3c0.8-0.6,1.7-1.4,2.7-2.3c0.3-0.2,0.6-0.5,0.8-0.8V90.5z"/>
			<path class="st1" d="M267.3,40c-4.8-0.2-3.3,5.6-1.5,10.5c4.4,1.7,10.8,7.5,20.2,17.2c9.4,9.7,12.5,19.1,12.5,19.1
				c2.5,1.5,5.6,2.2,7.8,1.8V77.4c-3.1-5.9-8.5-12.9-13.1-18C285.4,50.9,271.7,40.2,267.3,40z"/>
		</g>
		<path class="st2" d="M266.2,73.2c1-0.1,2.5-1.8,1.3-5.2c-1.2-3.4-3.5-3.8-4.3-3.2c-0.8,0.7-9.2,8-9.2,8S265.2,73.3,266.2,73.2z"/>
		<path class="st3" d="M266.2,73.2c1-0.1,2.5-1.8,1.3-5.2c-1.2-3.4-3.5-3.8-4.3-3.2c-0.8,0.7-9.2,8-9.2,8S265.2,73.3,266.2,73.2z"/>
		<path class="st2" d="M302.1,96.5c0.2-1-1.2-2.9-4.7-2.5c-3.6,0.4-4.5,2.6-4.1,3.5c0.5,0.9,5.7,10.8,5.7,10.8
			S301.9,97.5,302.1,96.5z"/>
		<path class="st3" d="M302.1,96.5c0.2-1-1.2-2.9-4.7-2.5c-3.6,0.4-4.5,2.6-4.1,3.5c0.5,0.9,5.7,10.8,5.7,10.8
			S301.9,97.5,302.1,96.5z"/>
		<path class="st2" d="M286.8,92.3c0.7-0.7,0.6-3-2.6-4.7c-3.2-1.7-5.2-0.4-5.3,0.6c-0.1,1-1.2,12.1-1.2,12.1S286.1,93,286.8,92.3z"
			/>
		<path class="st2" d="M257.7,59.1c1,0.1,2.8-1.3,2.2-4.9c-0.6-3.6-2.8-4.4-3.7-3.9c-0.9,0.5-10.4,6.4-10.4,6.4S256.7,59,257.7,59.1
			z"/>
		<path class="st3" d="M257.7,59.1c1,0.1,2.8-1.3,2.2-4.9c-0.6-3.6-2.8-4.4-3.7-3.9c-0.9,0.5-10.4,6.4-10.4,6.4S256.7,59,257.7,59.1
			z"/>
		<path class="st2" d="M266,85.1c0.3,0.3,1,1.3,2.5,1c1.4-0.3,7.6-5.4,8.5-6c0.8-0.7,4.1-3.2,4.4-5.1c0.3-1.9-1.3-3.5-1.8-4.1
			c-0.5-0.5-1.8-1.7-2.3-1c0,0-1.2-1.4-1.2-1.4s0.4-0.5,1.3-0.7c0.7-0.2,1.5,0,2.2,0.6c0.8,0.5,2.7,2.3,3.3,4
			c0.5,1.3,1.1,3.3-0.5,5.3c-1.5,2-10.9,9-11.8,9.5c-0.9,0.5-3.7,1.5-5.8-0.4c-0.7-0.7-0.6-1.2-0.3-1.6
			C264.9,84.6,265.5,84.6,266,85.1z"/>
		<path class="st2" d="M260.1,39.6c0.8,0.6,1.1,2.8-1.8,4.9c-2.9,2-4.9,1.1-5.2,0.1c-0.3-1-2.9-11.4-2.9-11.4S259.3,39,260.1,39.6z"
			/>
		<path class="st3" d="M260.1,39.6c0.8,0.6,1.1,2.8-1.8,4.9c-2.9,2-4.9,1.1-5.2,0.1c-0.3-1-2.9-11.4-2.9-11.4S259.3,39,260.1,39.6z"
			/>
		<path class="st2" d="M264.7,81c0.3-0.6,0.7-0.9,0.7-0.9s-1-1.2-1.3-1.5c-1.3,1.4-1.6,2.6-1.6,3.6L264.7,81z"/>
		<g>
			<path class="st2" d="M273.8,95.9l-4-7.4c-0.6,0.2-1.3,0.3-2,0.3c-1.2,0-2.5-0.4-3.7-1.5c-0.9-0.9-1.1-1.9-0.4-2.9
				c0.3-0.4,0.7-0.7,1.3-0.8c0.6-0.1,1.2,0.2,1.7,0.6c0,0,0,0,0,0c0.1,0,0.1,0.1,0.2,0.2c0.3,0.3,0.6,0.6,1,0.6l-1.1-2.1
				c-0.2-0.5-1-0.6-1.5-0.4l-3.1,1.7c0,0,0,0,0,0l-9.7,5.2c-0.6,0.3-0.8,1-0.5,1.6l0.4,0.8l1.8,3.4l4.7,8.7c0.2,0.4,0.7,0.6,1.1,0.6
				c0.1,0,0.3-0.1,0.4-0.1l6.9-3.7l4.7-2.5l1.3-0.7C273.9,97.2,274.1,96.5,273.8,95.9z"/>
			<g>
				<path class="st1" d="M255.4,95L255.4,95l0.7-2.1l1.4,0.5l-0.3,0.8l3.2,1.1l0.7-2l-4.5-1.6l0-0.1c0.4-1.2,1.2-3.4,1.4-4.2l0-0.1
					l0.1,0l5.8,2l0,0l0,0l-0.7,2l-1.4-0.5l0.3-0.9l-3.2-1.1l-0.7,2l4.6,1.6l-1.6,4.5L255.4,95z"/>
				<path class="st1" d="M269.6,91.4l-4.4-1.5l-2.6,7.6l4.6,1.6l3.3-1.8l0.9-2.5L269.6,91.4z M269.5,96.5l-2.3,1.3l-2.8-1l1.8-5.3
					l2.5,0.9L270,95L269.5,96.5z"/>
			</g>
		</g>
	</g>
	<path class="st2" d="M192.9,62.4v-9h-43.8c-2.5,0-4.6,0.6-6.4,1.9c-1.8,1.2-2.7,2.7-2.7,6.3v28.3c0,1.7,0.9,3.2,2.7,4.4
		c1.8,1.2,3.9,1.9,6.4,1.9h0h43.8v-9h-39.1v-8.4h39.1v-9h-39.1v-7.3H192.9z"/>
	<path class="st2" d="M28.1,55.2c-1.8,1.2-2.7,2.7-2.7,4.5v11.8c0,1.7,0.9,3.2,2.7,4.5c1.8,1.2,3.9,1.9,6.4,1.9h29.9v9.3H25.4v9
		h43.8c2.5,0,4.6-0.6,6.4-1.9c1.8-1.2,2.7-2.7,2.7-4.5V75.1c0-1.7-0.9-3.2-2.7-4.5c-1.8-1.2-3.9-1.9-6.4-1.9H39.3v-6.4h39.1v-9H34.5
		C32.1,53.4,29.9,54,28.1,55.2z"/>
	<polygon class="st2" points="121.8,67.8 96.6,67.8 96.6,53.4 82.7,53.4 82.7,96.1 96.6,96.1 96.6,76.8 121.8,76.8 121.8,96.1 
		135.7,96.1 135.7,53.4 121.8,53.4 	"/>
	<path class="st2" d="M361.1,55.3c-1.8-1.2-3.9-1.9-6.4-1.9h-43.8v42.7h43.8c2.5,0,4.6-0.6,6.4-1.9c1.8-1.2,2.7-2.7,2.7-4.5V59.7
		C363.8,58,362.9,56.5,361.1,55.3z M349.9,87.1h-25.2V62.4h25.2V87.1z"/>
	<path class="st2" d="M418.3,55.3c-1.8-1.2-3.9-1.9-6.4-1.9h-34.7c-2.5,0-4.6,0.6-6.4,1.9c-1.8,1.2-2.7,2.7-2.7,4.5v30.1
		c0,1.7,0.9,3.2,2.7,4.5c1.8,1.2,3.9,1.9,6.4,1.9h34.7c2.5,0,4.6-0.6,6.4-1.9c1.8-1.2,2.7-2.7,2.7-4.5V59.7
		C421,58,420.1,56.5,418.3,55.3z M407.1,87.1H382V62.4h25.2V87.1z"/>
	<path class="st2" d="M478.3,62.4v-9h-43.8c-2.5,0-4.6,0.6-6.4,1.9c-1.8,1.2-2.7,2.7-2.7,4.5v30.1c0,1.7,0.9,3.2,2.7,4.5
		c1.8,1.2,3.9,1.9,6.4,1.9h43.8V69.7h-28v9h14.1v8.4h-25.2V62.4H478.3z"/>
	<path class="st2" d="M247.7,96.1l-1.1-2.1c-1.9-3.6-0.6-8.1,3-10l0,0l0,0c0,0,8.6-4.6,9.4-5.2c-3.7-0.1-20.8-0.6-20.8-0.6
		s10.8-8.9,12.7-10.4c-1.1-1.7-2.1-3.4-2.9-4.8c-3.7-0.9-18.7-3.6-18.7-3.6l10.4-6h-42.5v42.7H211V78.7h25.2v17.4H247.7z M211,69.4
		v-6.9h25.2v6.9H211z"/>
</g>
</svg>
