<?xml version="1.0" encoding="utf-8"?>
<!-- Generator: Adobe Illustrator 25.2.1, SVG Export Plug-In . SVG Version: 6.00 Build 0)  -->
<svg version="1.1" id="logo" xmlns="http://www.w3.org/2000/svg" xmlns:xlink="http://www.w3.org/1999/xlink" x="0px" y="0px"
	 viewBox="0 0 504 144" style="enable-background:new 0 0 504 144;" xml:space="preserve">
<style type="text/css">
	.st0{fill:#282828;}
	.st1{opacity:0.75;fill:#282828;}
</style>
<g>
	<g>
		<rect x="382.5" y="61.9" class="st0" width="25.2" height="24.7"/>
		<path class="st1" d="M258.8,44c2.9-2,2.6-4.3,1.8-4.9c-0.8-0.6-9.9-6.4-9.9-6.4s2.7,10.5,2.9,11.4C253.9,45.1,255.9,46,258.8,44z"
			/>
		<path class="st1" d="M260.4,53.7c-0.6-3.6-2.8-4.4-3.7-3.9c-0.9,0.5-10.4,6.4-10.4,6.4s11,2.3,12,2.4
			C259.2,58.7,261,57.3,260.4,53.7z"/>
		<rect x="211.5" y="61.9" class="st0" width="25.2" height="6.9"/>
		<path class="st1" d="M266.5,84.6c-0.5-0.5-1.1-0.5-1.4,0c-0.3,0.4-0.4,0.9,0.3,1.6c2,2,4.8,1,5.8,0.4c0.9-0.5,10.3-7.5,11.8-9.5
			c1.5-2,1-4,0.5-5.3c-0.6-1.6-2.5-3.4-3.3-4c-0.8-0.5-1.6-0.8-2.2-0.6c-0.9,0.2-1.3,0.7-1.3,0.7s1.2,1.4,1.2,1.4
			c0.5-0.7,1.8,0.5,2.3,1c0.5,0.5,2,2.1,1.8,4.1c-0.3,1.9-3.5,4.4-4.4,5.1c-0.8,0.7-7,5.7-8.5,6C267.5,85.8,266.8,84.9,266.5,84.6z"
			/>
		<path class="st1" d="M299.5,107.8c0,0,2.9-10.8,3.1-11.8c0.2-1-1.2-2.9-4.7-2.5c-3.6,0.4-4.5,2.6-4.1,3.5
			C294.2,97.9,299.5,107.8,299.5,107.8z"/>
		<path class="st1" d="M279.4,87.7c-0.1,1-1.2,12.1-1.2,12.1s8.4-7.3,9.1-8.1c0.7-0.7,0.6-3-2.6-4.7
			C281.5,85.4,279.5,86.7,279.4,87.7z"/>
		<path class="st1" d="M266.7,72.7c1-0.1,2.5-1.8,1.3-5.2c-1.2-3.4-3.5-3.8-4.3-3.2c-0.8,0.7-9.2,8-9.2,8S265.7,72.8,266.7,72.7z"/>
		<rect x="325.2" y="61.9" class="st0" width="25.2" height="24.7"/>
		<path class="st0" d="M255.9,94.5L255.9,94.5l0.7-2.1l1.4,0.5l-0.3,0.8l3.2,1.1l0.7-2l-4.5-1.6l0-0.1c0.4-1.2,1.2-3.4,1.4-4.2
			l0-0.1l0.1,0l5.8,2l0,0l0,0l-0.7,2l-1.4-0.5l0.3-0.9l-3.2-1.1l-0.7,2l4.6,1.6l-1.6,4.5L255.9,94.5z"/>
		<path class="st0" d="M270.1,90.9l-4.4-1.5l-2.6,7.6l4.6,1.6l3.3-1.8l0.9-2.5L270.1,90.9z M270,96l-2.3,1.3l-2.8-1l1.8-5.3l2.5,0.9
			l1.3,2.7L270,96z"/>
		<g>
			<path class="st0" d="M294.8,47.8c-10.4-10.1-21.3-16.4-28.9-16.4c-2.1,0-3.7,0.5-4.9,1C257.3,30,241.8,20,241.8,20
				s5.1,19.1,6.2,23.4c-1,0.6-2.2,2.9-2.4,4.3H35.8c-3.6,0-6.7,0.9-9.4,2.8c-4.1,2.8-4.9,6.3-4.9,8.8v41.6h229.9l2.9,5.5
				c1.3,2.4,3.8,3.9,6.5,3.9c1.2,0,2.4-0.3,3.5-0.9l7.8-4.2l-1,8.7c0,0,10.8-9.4,13.1-11.4c2.8,1.7,5.5,2.9,8,3.5
				c1.8,3.7,8.9,18,8.9,18s5.1-17.7,6.3-22.2c0.3-0.3,0.7-0.6,1-0.8h175V47.7L294.8,47.8z M78.9,61.9H39.8v6.4h29.9
				c2.5,0,4.6,0.6,6.4,1.9c1.8,1.2,2.7,2.7,2.7,4.5v14.7c0,1.7-0.9,3.2-2.7,4.5c-1.8,1.2-3.9,1.9-6.4,1.9H25.9v-9H65v-9.3H35
				c-2.5,0-4.6-0.6-6.4-1.9c-1.8-1.2-2.7-2.7-2.7-4.5V59.2c0-1.7,0.9-3.2,2.7-4.5c1.8-1.2,3.9-1.9,6.4-1.9h43.8V61.9z M136.2,95.6
				h-13.9V76.3H97.1v19.3H83.2V52.9h13.9v14.4h25.2V52.9h13.9V95.6z M193.4,61.9h-39.1v7.3h39.1v9h-39.1v8.4h39.1v9h-43.8h0
				c-2.5,0-4.6-0.6-6.4-1.9c-1.8-1.2-2.7-2.7-2.7-4.4V61.1c0-3.6,0.9-5.1,2.7-6.3c1.8-1.2,3.9-1.9,6.4-1.9h43.8V61.9z M250,83.5
				L250,83.5c-3.6,2-4.9,6.5-3,10l1.1,2.1h-11.5V78.2h-25.2v17.4h-13.9V52.9h42.5l-10.4,6c0,0,15,2.7,18.7,3.6
				c0.8,1.4,1.8,3,2.9,4.8c-1.9,1.5-12.7,10.4-12.7,10.4s17.1,0.5,20.8,0.6C258.6,78.8,250,83.5,250,83.5L250,83.5z M306.8,88.1
				c-2.1,0.4-5.2-0.3-7.8-1.8c0,0-3-9.4-12.5-19.1c-9.4-9.7-15.9-15.5-20.2-17.2c-1.8-4.8-3.3-10.7,1.5-10.5
				c4.4,0.2,18.2,10.9,25.9,19.4c4.6,5.1,10,12.1,13.1,18V88.1z M306.8,73.7c-2.8-4.7-6.7-9.8-11.3-14.8c-11-11.9-26-24.3-31.2-19.9
				c-4.2,3.6,2.7,16.9,11.8,28.1c0.2-0.2,0.8-0.6,1.6-0.9c0.9-0.3,2,0,3.1,0.7c0.9,0.6,3,2.5,3.7,4.5c0.3,0.9,1.1,2.9,0.1,5.1
				c8.4,8.2,17.2,14.3,22.3,13.5v6.2c-0.3,0.3-0.6,0.5-0.8,0.8c-1,0.9-2,1.7-2.7,2.3c-1.2,4.5-3.5,12.3-3.5,12.3s-2.6-5.3-4.7-9.5
				c-2.9-0.3-6.6-1.6-11.5-5.1c-3.3,2.9-7,6.1-7,6.1s0.7-6,1.2-10.8c-1.8-1.6-3.5-3.4-5.3-5.2c-0.3,0.2-0.5,0.3-0.6,0.4l3.9,7.3
				c0.7,1.4,0.2,3.1-1.2,3.9l-12.9,6.9c-0.4,0.2-0.9,0.3-1.3,0.3c-1,0-2-0.5-2.5-1.5L251,91.4c-0.7-1.4-0.2-3.1,1.2-3.9l13.6-7.2
				c0.2-0.1,0.4-0.1,0.7-0.1c1,0,1.8,0.5,2.3,1.4l1.1,2l0,0.1l0.9-0.6l0,0l-1.1-2c-0.7-1.2-1.9-1.9-3.3-1.9c-0.3,0-0.5,0-0.7,0.1
				c-1.2-1.6-3.1-3.9-4-5.1c-0.1-0.1-0.2-0.2-0.2-0.3c0,0,0,0,0,0c-0.8,0-1.7,0-2.6-0.1v0c-4-0.1-8-0.2-8-0.2s3.3-2.7,6.5-5.3
				c-2.8-4-4.9-7.5-6-9.7c-4.3-0.8-8.9-1.7-8.9-1.7s3.5-2,7.1-4.1c-0.4-2.7,0-4.7,0.9-5.7c0.4-0.4,1.2-1.2,2.2-2.1
				c-0.5-1.8-3.9-14.7-3.9-14.7s9.1,5.8,12,7.8c0.4-0.3,0.6-0.6,0.8-0.7c5.2-4.8,22.4,3.9,38.2,23.1c2.9,3.5,5.2,6.6,7,9.3V73.7z
				 M364.3,89.3c0,1.7-0.9,3.2-2.7,4.5c-1.8,1.2-3.9,1.9-6.4,1.9h-43.8V52.9h43.8c2.5,0,4.6,0.6,6.4,1.9c1.8,1.2,2.7,2.7,2.7,4.5
				V89.3z M421.5,89.3c0,1.7-0.9,3.2-2.7,4.5c-1.8,1.2-3.9,1.9-6.4,1.9h-34.7c-2.5,0-4.6-0.6-6.4-1.9c-1.8-1.2-2.7-2.7-2.7-4.5V59.2
				c0-1.7,0.9-3.2,2.7-4.5c1.8-1.2,3.9-1.9,6.4-1.9h34.7c2.5,0,4.6,0.6,6.4,1.9c1.8,1.2,2.7,2.7,2.7,4.5V89.3z M478.8,61.9h-39.1
				v24.7h25.2v-8.4h-14.1v-9h28v26.4H435c-2.5,0-4.6-0.6-6.4-1.9c-1.8-1.2-2.7-2.7-2.7-4.5V59.2c0-1.7,0.9-3.2,2.7-4.5
				c1.8-1.2,3.9-1.9,6.4-1.9h43.8V61.9z"/>
		</g>
	</g>
</g>
</svg>
