<?xml version="1.0" encoding="utf-8"?>
<!-- Generator: Adobe Illustrator 25.2.1, SVG Export Plug-In . SVG Version: 6.00 Build 0)  -->
<svg version="1.1" xmlns="http://www.w3.org/2000/svg" xmlns:xlink="http://www.w3.org/1999/xlink" x="0px" y="0px"
	 viewBox="0 0 698.4 211" style="enable-background:new 0 0 698.4 211;" xml:space="preserve">
<style type="text/css">
	.st0{fill:#0B2534;}
	.st1{fill:#861719;}
	.st2{fill:#C12126;}
	.st3{fill:#FFFFFF;}
</style>
<symbol  id="logo" viewBox="-310.6 -58.5 621.2 117">
	<g>
		<g>
			<g>
				<g>
					<g>
						<path class="st0" d="M-236.2-51.1l-66.5,105.3h156.5L-236.2-51.1z M-292.2,47.9l57.3-88.2l74.7,88.2H-292.2z"/>
						<path class="st0" d="M-236.7-58.5l-73.9,117h174L-236.7-58.5z M-284.1,43.5l49.7-76.5l64.8,76.5H-284.1z"/>
					</g>
				</g>
				<polygon class="st1" points="-238.9,-45.7 -296.4,51 -153.5,51 				"/>
				<polygon class="st2" points="-160.5,43.7 -292.9,43.7 -295.7,49.9 -155.9,49.9 				"/>
				<g>
					<path class="st3" d="M-236.2-51.1l-66.5,105.3h156.5L-236.2-51.1z M-292.2,47.9l57.3-88.2l74.7,88.2H-292.2z"/>
				</g>
				<path class="st0" d="M182.9,32.7l1.8,6.3h-22.3l-2.1-6.4h-5.9l2.1,6.4h-22.2l-3-10.5c0,0-0.1,0.1-0.1,0.1c-1.9,2.5-5,4-8.5,4
					h-22c-3.9,0-7.8-1.9-10.7-4.8c-0.2,0.3-0.3,0.6-0.5,0.8c-1.9,2.5-5,4-8.4,4H55.3h0H13.5l1.8,6.4H-6.9l-1.8-6.4h-5.6l1.5,6.4H-35
					l-2.9-10c-1.9,2.3-4.8,3.5-8.1,3.5h-26.3h0h-46.5l-1-3.6c-1.9,2.3-4.8,3.6-8.1,3.6h-28.7l-44.9,0l1.9,6.3h-35.8
					c-6.3,0-12.6-4.9-14.4-11.1l-3.8-11.2c-2.8-8.7,5.1-12.1,7.7-13.2l0.1,0l-9.5,3.2l-12.3-29.2h42.4c3.8,0,7.6,1.8,10.4,4.6
					c0.2-0.3,0.4-0.6,0.6-0.9c1.9-2.5,5-3.7,8.5-3.7h51.1l3.4,11.5l16.7-11.5H229l4.2,14.5l15.1-14.5h42.6l9.5,20.1h-6.2l6.4,15h0.5
					l9.6,20.2H182.9z"/>
				<g>
					<path class="st3" d="M15.3-6.9h22.9l-5.4-11.6h-34l13.4,46.8l36.2,0.1l-5.5-11.5H22.1l-1.7-6.2h19.3L34.8-0.8H17L15.3-6.9z"/>
					<path class="st3" d="M128.6,20.2l-8.7-30.6c-1.3-4.5-6-8.1-10.5-8.1h-22c-4.4,0-7,3.6-5.6,8.1l8.7,30.6c1.3,4.4,5.9,8,10.3,8
						h22C127.3,28.2,129.9,24.6,128.6,20.2z M114.5,16.7h-11.8L95.8-7.1h11.8L114.5,16.7z"/>
					<path class="st3" d="M198.3-3.4L194-18.5h-13.1l4.4,15.1l-5.9,31.6h14.1l2.7-16.8l12.2,16.8h14L198.3-3.4z"/>
					<path class="st3" d="M270.5-6.9h22.9l-5.4-11.6h-34l13.4,46.8l36.2,0.1l-5.5-11.5h-20.9l-1.7-6.2H295l-4.9-11.5h-17.8
						L270.5-6.9z"/>
					<path class="st3" d="M-162.3,28.2l-13.5-46.8h-30c-4.4,0-7.1,3.6-5.8,8l11.1,38.8h13.2l-10.1-35.3h11.8l10.1,35.3H-162.3z"/>
					<path class="st3" d="M-112.2-7h22.9l-5.4-11.6h-34l13.4,46.8l36.2,0.1l-5.5-11.5h-20.8l-1.7-6.2h19.3l-4.9-11.5h-17.8L-112.2-7
						z"/>
					<polygon class="st3" points="-3.6,34.6 -9.7,13.8 -24.7,13.8 -18.6,34.6 -31.7,34.6 -47,-18.5 -33.9,-18.5 -27.9,2.4 
						-19.2,2.4 -9.9,12.7 -12.9,2.4 -12.9,2.4 -18.9,-18.5 -5.8,-18.5 9.5,34.6 					"/>
					<polygon class="st3" points="165.8,34.6 159.7,13.8 144.7,13.8 150.8,34.6 137.7,34.6 122.4,-18.5 135.5,-18.5 141.5,2.4 
						150.3,2.4 159.5,12.7 150.5,-18.5 163.6,-18.5 178.9,34.6 					"/>
					<path class="st3" d="M-127.7,28.2h-29.9l-3.3-11.5h0L-171-18.6h13.1l4.2,14.7h16.8c4.4,0,9,3.6,10.3,8l4.6,16
						C-120.7,24.5-123.3,28.2-127.7,28.2z M-138.7,7.4h-11.8l2.7,9.3h11.8L-138.7,7.4z"/>
					<path class="st3" d="M255.9,28.3h-30l-3.3-11.5h0l-10.1-35.3h13.1l4.2,14.7h16.8c4.4,0,9,3.6,10.3,8l4.6,16
						C262.8,24.6,260.3,28.3,255.9,28.3z M244.9,7.5H233l2.7,9.3h11.8L244.9,7.5z"/>
					<path class="st3" d="M-45.9,28.2h-29.8l-13.4-46.8h13L-71.9-4h2l4.6-14.6h14.3L-55.7-4h0.6c4.4,0,9.1,3.6,10.4,8.1l4.6,16
						C-38.9,24.5-41.5,28.2-45.9,28.2z M-56.9,7.4h-11.9l2.7,9.3h11.9L-56.9,7.4z"/>
					<path class="st3" d="M81.1,28.3H51.3L48,16.8h0l-0.5-1.9l-9.5-33.4h13l4.2,14.6h2l4.6-14.6H76L71.4-3.9h0.6
						c4.4,0,9.1,3.6,10.4,8.1l4.6,16C88.2,24.6,85.6,28.3,81.1,28.3z M70.2,7.5H58.3l2.7,9.3h11.9L70.2,7.5z"/>
					<path class="st3" d="M-217.1,9.5l-18.1,9.2l1.9,4.3l14.2,0l-1.2-4.6l9.1-4l5.9,20h-29.9c-4.4,0-9-3.6-10.3-8l-3.8-11.2
						c-1.6-5,2.7-6.7,5.4-7.9l18.4-9.2l-1.5-5h-17.2l1.9,4.5l-10.5,3.6l-8-19.3l0.1,0.1l-0.1-0.2h35.5c4.4,0,9,3.6,10.2,8l3.2,10.9
						C-210.7,4.4-213.2,7.5-217.1,9.5z"/>
				</g>
			</g>
		</g>
	</g>
</symbol>
<g id="BG">
</g>
<g id="LOGO">
	
		<use xlink:href="#logo"  width="621.2" height="117" x="-310.6" y="-58.5" transform="matrix(1 0 0 -1 348.4079 103.4147)" style="overflow:visible;"/>
</g>
</svg>
