<?xml version="1.0" encoding="utf-8"?>
<!-- Generator: Adobe Illustrator 25.2.1, SVG Export Plug-In . SVG Version: 6.00 Build 0)  -->
<svg version="1.1" xmlns="http://www.w3.org/2000/svg" xmlns:xlink="http://www.w3.org/1999/xlink" x="0px" y="0px"
	 viewBox="0 0 698.4 211" style="enable-background:new 0 0 698.4 211;" xml:space="preserve">
<style type="text/css">
	.st0{fill:#282828;}
</style>
<g id="BG">
</g>
<g id="LOGO">
	<g id="logo">
		<g>
			<g>
				<g>
					<g>
						<polygon class="st0" points="83.2,108.7 50.5,58.3 185.5,58.3 172.1,74.1 176.6,74.1 180.8,74.1 199.8,51.9 39.8,51.9 
							80.1,115.7 						"/>
						<path class="st0" d="M128.8,125.2c-0.2,0.3-0.4,0.5-0.7,0.7l-19,22.5l-11.9-18.3l-7.9,0.1l18.5,29.2L133,130
							C131,129,129.6,127.3,128.8,125.2z"/>
					</g>
					<g>
						<path class="st0" d="M364.8,114.3h23.4l-5.5,11.8h-34.8l13.7-47.8l37-0.1L393,90h-21.3l-1.8,6.3h19.8l-5,11.7h-18.2
							L364.8,114.3z"/>
						<path class="st0" d="M480.6,86.6l-8.9,31.3c-1.4,4.6-6.2,8.3-10.7,8.3h-22.5c-4.5,0-7.1-3.6-5.8-8.3l8.9-31.3
							c1.3-4.5,6-8.2,10.5-8.2h22.5C479.2,78.4,481.9,82,480.6,86.6z M466.2,90.1h-12.1l-7,24.4h12.1L466.2,90.1z"/>
						<path class="st0" d="M551.8,110.7l-4.5,15.4H534l4.5-15.5l-6.1-32.3h14.4l2.8,17.2l12.5-17.2h14.3L551.8,110.7z"/>
						<path class="st0" d="M625.6,114.3H649l-5.5,11.8h-34.8l13.7-47.8l37-0.1L653.9,90h-21.3l-1.8,6.3h19.8l-5,11.7h-18.2
							L625.6,114.3z"/>
						<path class="st0" d="M183.3,78.4l-13.8,47.8h-30.6c-4.5,0-7.2-3.6-5.9-8.2l11.3-39.6h13.5l-10.3,36.1h12.1l10.3-36.1H183.3z"
							/>
						<path class="st0" d="M234.4,114.4h23.4l-5.5,11.8h-34.8l13.7-47.8l37-0.1l-5.6,11.7h-21.3l-1.8,6.3h19.8l-5,11.7h-18.2
							L234.4,114.4z"/>
						<polygon class="st0" points="345.4,71.8 339.3,93.1 324,93.1 330.1,71.8 316.7,71.8 301.1,126.1 314.5,126.1 320.6,104.8 
							329.5,104.8 339,94.2 335.9,104.8 335.9,104.8 329.8,126.1 343.2,126.1 358.9,71.8 						"/>
						<polygon class="st0" points="518.5,71.8 512.4,93.1 497.1,93.1 503.2,71.8 489.9,71.8 474.2,126.1 487.6,126.1 493.8,104.8 
							502.7,104.8 512.2,94.2 502.9,126.1 516.4,126.1 532,71.8 						"/>
						<path class="st0" d="M218.6,78.4H188l-3.4,11.8h0l-10.3,36.1h13.4l4.3-15h17.2c4.5,0,9.2-3.6,10.5-8.2l4.7-16.4
							C225.7,82.1,223.2,78.4,218.6,78.4z M207.4,99.6h-12.1l2.8-9.5h12.1L207.4,99.6z"/>
						<path class="st0" d="M610.6,78.3H580L576.7,90h0l-10.3,36.1h13.4l4.3-15h17.2c4.5,0,9.2-3.7,10.5-8.2l4.7-16.4
							C617.8,82,615.2,78.3,610.6,78.3z M599.4,99.5h-12.1l2.8-9.5h12.1L599.4,99.5z"/>
						<path class="st0" d="M302.2,78.4h-30.5l-13.6,47.8h13.3l4.3-14.9h2l4.7,14.9h14.6l-4.7-14.9h0.6c4.5,0,9.3-3.7,10.6-8.3
							l4.7-16.4C309.4,82.1,306.7,78.4,302.2,78.4z M291,99.6h-12.2l2.8-9.5h12.2L291,99.6z"/>
						<path class="st0" d="M432.1,78.3h-30.5L398.2,90h0l-0.6,1.9l-9.7,34.1h13.3l4.3-14.9h2l4.7,14.9h14.6l-4.7-14.9h0.6
							c4.5,0,9.3-3.7,10.6-8.3l4.7-16.4C439.3,82,436.6,78.3,432.1,78.3z M420.9,99.5h-12.2l2.8-9.5h12.2L420.9,99.5z"/>
						<path class="st0" d="M127.3,97.5l-18.5-9.4l1.9-4.4l14.5,0l-1.2,4.7l9.3,4.1l6-20.4h-30.6c-4.5,0-9.2,3.7-10.5,8.2l-3.9,11.5
							c-1.7,5.1,2.7,6.9,5.5,8.1l18.8,9.4l-1.6,5.1H99.6l1.9-4.6l-10.7-3.6l-8.1,19.7l0.1-0.1l-0.1,0.2H119c4.5,0,9.2-3.7,10.5-8.2
							l3.3-11.1C133.8,102.7,131.2,99.6,127.3,97.5z"/>
					</g>
				</g>
			</g>
		</g>
	</g>
</g>
</svg>
