<?xml version="1.0" encoding="utf-8"?>
<!-- Generator: Adobe Illustrator 25.2.1, SVG Export Plug-In . SVG Version: 6.00 Build 0)  -->
<svg version="1.1" id="Layer_1" xmlns="http://www.w3.org/2000/svg" xmlns:xlink="http://www.w3.org/1999/xlink" x="0px" y="0px"
	 viewBox="0 0 560.6 94.5" style="enable-background:new 0 0 560.6 94.5;" xml:space="preserve">
<style type="text/css">
	.st0{fill:#221F20;}
</style>
<g id="BG">
</g>
<g id="LOGO">
	<g>
		<g>
			<g id="TFS_3_">
				<g id="SPOT_3_">
					<path class="st0" d="M432.6,47.3c-2.4-3.8-5.8-6.3-10.9-6.3c-5.8,0-10.1,4.6-10.1,10.3c0,5.6,5.3,8,9.7,10.1l10.3,5.3
						c4.1,2.6,6.1,5.8,6.1,10.7c0,8.9-8.1,15.6-16.8,15.6c-7.5,0-13.3-4.6-15.8-11.6l3-1.4c2.3,5.7,6.5,9.7,13,9.7
						c7.1,0,13.3-5.6,13.3-12.7c0-6.1-6.2-8.6-10.8-10.9l-9.7-5.1c-3.6-2.2-5.6-5.3-5.6-9.6c0-8,5.7-13.6,13.8-13.6
						c5.4,0,10.6,2.9,13.1,7.6L432.6,47.3z"/>
					<path class="st0" d="M447.1,92.2h-3.4V38.4h9.5c4.2,0,8.3,0.3,11.6,3.1c3.3,2.8,4.9,6.8,4.9,11.1c0,3.8-1.5,8.1-4.5,10.6
						c-3.3,2.8-7.8,3.4-12,3.4h-6.1L447.1,92.2L447.1,92.2z M453.3,63.5c3.5,0,6.6-0.4,9.4-2.9c2.3-2.1,3.5-4.9,3.5-8.1
						c0-3.4-1.4-6.7-4.1-8.7c-2.7-2.1-6.1-2.1-9.4-2.1h-5.6v21.8H453.3z"/>
					<path class="st0" d="M529.3,65.3c0,15.1-12.8,27.6-27.9,27.6s-27.9-12.5-27.9-27.6s12.7-27.6,27.9-27.6
						C516.5,37.7,529.3,50.2,529.3,65.3z M477,65.3c0,13.3,11.1,24.4,24.5,24.4c13.3,0,24.5-11.2,24.5-24.4
						c0-13.3-11.1-24.4-24.5-24.4C488,40.9,477,52.1,477,65.3z"/>
					<path class="st0" d="M546.7,92.2h-3.4V41.6h-13.9v-3.2h31.2v3.2h-13.9L546.7,92.2L546.7,92.2z"/>
				</g>
				<g id="FASHION_3_">
					<path class="st0" d="M115.7,44.6v15.1h18.7v6.1h-18.7v26.4H109V38.4h26v6.1h-19.3V44.6z"/>
					<path class="st0" d="M144.3,78.7l-6.1,13.5H131l25.7-56.1l25.7,56.1h-7.2l-6.1-13.5H144.3z M156.7,50.9l-9.6,21.7h19.1
						L156.7,50.9z"/>
					<path class="st0" d="M208.7,48.6c-2-3.4-4.6-5.1-8.6-5.1c-4.3,0-9,2.9-9,7.6c0,4.2,4.1,6.4,7.5,7.7l3.9,1.5
						c7.6,3,13.3,7.2,13.3,16.2c0,9.8-7.6,16.8-17.2,16.8c-8.7,0-15.5-6.4-16.6-15l6.8-1.4c-0.1,5.9,4.6,10.2,10.4,10.2
						s9.9-4.8,9.9-10.5c0-5.8-4.6-8.3-9.3-10.2l-3.7-1.6c-6.1-2.6-11.7-6.1-11.7-13.6c0-8.7,7.7-13.9,15.8-13.9
						c6,0,10.9,2.9,13.8,8.1L208.7,48.6z"/>
					<path class="st0" d="M254.4,60.1V38.4h6.7v53.8h-6.7V66.4h-25.6v25.8h-6.7V38.4h6.7v21.7C228.8,60.1,254.4,60.1,254.4,60.1z"/>
					<path class="st0" d="M275.2,92.2h-6.7V38.4h6.7V92.2z"/>
					<path class="st0" d="M338.2,65.3c0,16-12.6,28-28.2,28c-15.5,0-28.2-12-28.2-28c0-15.4,12.8-28,28.2-28
						C325.4,37.3,338.2,49.9,338.2,65.3z M331.5,65.3c0-11.8-8.8-21.7-21.5-21.7c-12.6,0-21.5,9.9-21.5,21.7
						c0,12.3,9.8,21.7,21.5,21.7C321.6,87.1,331.5,77.6,331.5,65.3z"/>
					<path class="st0" d="M344.7,35.9l40.4,42.3V38.5h6.7v56l-40.4-42.3v40h-6.7V35.9z"/>
				</g>
				<g id="THE_3_">
					<path class="st0" d="M112.5,31.7h-1.7v-16h-1.9v-1.6h1.9V7.8h1.7v6.3h3.1v1.6h-3.1V31.7z"/>
					<path class="st0" d="M119.6,0.3v16.6h0.1c1-1.9,2.9-3.1,5.2-3.1c4.5,0,5.8,2.8,5.8,7.4v10.6H129V21.1c0-3.2-0.4-5.8-4.2-5.8
						c-4.4,0-5.1,4.1-5.1,7.7v8.7H118V0.3H119.6z"/>
					<path class="st0" d="M134.4,23.1c-0.1,4.5,3,7.4,7,7.4c2.7,0,5-1.6,6.2-4l1.4,0.8c-1.6,3-4.4,4.8-7.9,4.8
						c-5.2,0-8.5-4.2-8.5-9.2c0-4.9,3.4-9.1,8.5-9.1c5.3,0,8.5,4.3,8.5,9.3L134.4,23.1L134.4,23.1z M148,21.5
						c-0.4-3.2-3.1-6.1-6.7-6.1c-3.6,0-6.6,2.8-6.9,6.1H148z"/>
				</g>
				<g id="CIRCLE_3_">
					<path class="st0" d="M46.8,0C20.9,0,0,21,0,46.8c0,0.2,0,0.5,0,0.7h9.5V32.6h13.3v14.9h6.5v10.1h-6.4V87
						c4.6,2.7,9.6,4.7,15,5.7V57.6h-5V47.5h5v-2.3c0-12.5,10.5-13.7,17-13.7h1.9v10h-1.5c-1.1,0-4.1,0.4-4.1,4.2v1.8h5.6v10.1h-5.6
						v35.8c4.7-0.4,9.2-1.6,13.5-3.3c-3.2-2.3-5.7-5.8-6.2-11.3h13.3c0.5,3.8,4,4.1,4.9,4.1c1.7-1.4,3.2-2.9,4.7-4.5
						c-0.7-2.6-4.1-3.2-11.7-6.1c-5.8-1.8-10.6-5.6-10.6-11.7c0-8.8,8-14.7,17.3-14.7c5.2,0,13.7,1.8,16.4,10.4c0.6-3.1,1-6.3,1-9.5
						C93.6,20.9,72.7,0,46.8,0z M76.1,56.6c-2.8,0-3.8,1.8-3.8,3c0,2.4,3.3,3.8,6.8,4.8c3.3,0.9,6.7,1.9,9.5,3.4
						c1.3-2.5,2.3-5.1,3.1-7.8H80.3C80.2,59.1,80.1,56.6,76.1,56.6z M9.5,75V57.6H1.3C2.8,64,5.6,70,9.5,75z"/>
				</g>
			</g>
		</g>
	</g>
</g>
</svg>
