<?xml version="1.0" encoding="utf-8"?>
<!-- Generator: Adobe Illustrator 25.2.1, SVG Export Plug-In . SVG Version: 6.00 Build 0)  -->
<svg version="1.1" id="Layer_1" xmlns="http://www.w3.org/2000/svg" xmlns:xlink="http://www.w3.org/1999/xlink" x="0px" y="0px"
	 viewBox="0 0 563 192" style="enable-background:new 0 0 563 192;" xml:space="preserve">
<g>
	<path d="M174.4,118.6v-16.1v-6.8c0-8.4-5.5-13-20.3-13c-15.2,0-20.2,5.6-21.2,14.8h5.8c0.4-7,5.2-9.6,15.2-9.6
		c10.4,0,14.7,2.3,14.7,8.6c0,2.9-0.8,4.2-5.6,5c-2.3,0.4-5.5,0.6-10,0.9c-9.7,0.5-22.1,1.9-22.1,13.7c0,9.9,9.7,13.1,17.3,13.1
		c14.5,0,18.8-5.9,20.8-8.8h0.2c0.1,3.5,0.4,7.7,6.8,7.7c2,0,4-0.4,5.3-0.7v-4.2c-1.1,0.1-2.2,0.2-3.3,0.2
		C175.4,123.5,174.4,122.2,174.4,118.6z M168.6,110.9c0,9-10,13.6-18.5,13.6c-6.8,0-12.8-2-12.8-8.8c0-5.2,4.3-7.4,11.6-8.1
		c12.6-1.2,16.9-1.5,19.7-3.3V110.9z"/>
	<path d="M362.3,117.7v-7.2v-14c0-5.8-0.7-15-24.4-15c-13.4,0-22.2,3.6-23.9,15.3h11.5c0.4-5,4.6-7.4,12.4-7.4
		c6.8,0,12.8,1.3,12.8,6.4c0,3.5-1.8,4-18.7,5.6c-6.2,0.5-15.8,1.4-19.2,8.4c-0.7,1.6-1.2,3.4-1.2,5.6c0,8.8,6.7,14,18.5,14
		c13.2,0,19-4,21.3-6.1c0.3,1.7,1.2,5.7,8.9,5.7c4,0,6.1-0.6,8.4-1V120c-0.9,0.2-2.7,0.3-3.8,0.3
		C364.1,120.2,362.3,120.1,362.3,117.7z M333.5,122.1c-4,0-9.5-1.1-9.5-7c0-2.2,0.8-3.8,3.2-4.9c1.7-0.8,4.2-1.4,7.9-1.8
		c8.4-0.9,12.1-1.4,15.5-2.8v4.3c0,0.2,0,0.3,0,0.5C350.1,119.9,339.7,122.1,333.5,122.1z"/>
	<path d="M444.1,112v-3.4v-17h12.3v-8.4h-12.3V69.4h-11.8v13.8h-9.4v8.4h9.4v17.5v6.3c0,8.4,1.1,13.5,15.5,13.5
		c3.6,0,5.9-0.3,9.1-0.7v-8.4c-2.8,0.1-5.6,0.2-8.5,0.2C444.3,120,444.1,117.2,444.1,112z"/>
	<path d="M38.1,70.3h-6.3v13.8h-9.7v4.7h9.7v6v22.9c0,7.1,2.1,10.9,12,10.9c2.1,0,4.5-0.2,6.9-0.5v-5.2c-1.2,0.3-3.2,0.5-6.2,0.5
		c-5.1,0-6.3-1.8-6.3-5.6V93.1v-4.3h12.6v-4.7H38.1V70.3z"/>
	<path d="M76.1,82.7c-10,0-16.9,3.8-21,9.4c-2.8,4-4.2,8.8-4.2,13.8c0,12.2,8.1,23.2,25.2,23.2c17.1,0,25.2-11,25.2-23.2
		c0-3.8-0.8-7.4-2.4-10.7C95.4,88,87.9,82.7,76.1,82.7z M76.1,124c-12,0-18.9-7.5-18.9-18c0-5.6,2-10.4,5.7-13.6
		c3.2-2.8,7.6-4.4,13.2-4.4c6.9,0,12.1,2.5,15.3,6.6c2.4,3,3.6,7,3.6,11.4C95,116.5,88.1,124,76.1,124z"/>
	<path d="M115.8,70.3h-6.3v13.8h-9.6v4.7h9.6v7.5v21.4c0,7.1,2.1,10.9,12,10.9c2,0,4.5-0.2,6.9-0.5v-5.2c-1.2,0.3-3.2,0.5-6.2,0.5
		c-5.1,0-6.3-1.8-6.3-5.6V96.9v-8.2h12.6v-4.7h-12.6V70.3z"/>
	<polygon points="184.4,103.3 184.4,127.9 190.7,127.9 190.7,103.8 190.7,67.2 184.4,67.2 	"/>
	<path d="M227.3,82.1c-7.1,0-13.8,2.2-17.3,7.6h-0.2V66.7H198v37.6v23.5h11.8v-6.1h0.2c0.9,2.7,8,7.8,17.3,7.8
		c16.2,0,23.9-11,24.7-21.8c0.1-0.7,0.1-1.4,0.1-2C252.1,94.4,244.6,82.1,227.3,82.1z M224.5,120.6c-11,0-15.2-7.3-15.2-14.9
		c0-0.2,0-0.4,0-0.5c0.2-7.2,4.4-14.2,15.2-14.2c11.1,0,15.3,7.3,15.3,14.7c0,0.5,0,0.9-0.1,1.4C239.3,114.2,235,120.6,224.5,120.6z
		"/>
	<path d="M281.2,81.6c-16.1,0-27.3,9.5-27.3,24.4c0,0.6,0,1.3,0.1,1.9c0.8,11.2,8.6,21.7,27.9,21.7c17.3,0,23.4-9.9,26-14.8h-12.8
		c-2.3,3.7-5.7,6.4-13.5,6.4c-11.7,0-15.1-7.7-15.4-12.6h2H309v-1.7C309,93.8,301.3,81.6,281.2,81.6z M266.3,101.1
		c2-9.1,9.7-11.6,15.1-11.6c5.8,0,13.8,2.7,15.3,11.6H266.3z"/>
	<path d="M408.1,107.7c0,0.8-0.1,1.5-0.2,2.2c-1.2,7.9-8.8,10.7-13.6,10.7c-9.2,0-11.4-4.3-11.7-10.3c0-0.6,0-1.1,0-1.7V83.2h-11.8
		v27.2v2.6c0,13.1,9.5,16.5,19.2,16.5c8,0,14-3.1,17.9-7.9h0.2v6.2h11.8v-18.3V83.2h-11.8V107.7z"/>
	<path d="M489,106.3l-3.9,8.8l-3.8-8.4l-10.7-23.6h-12.8l11.7,24.2l9.5,19.6l-2.7,5.4c-1.4,2.8-3.7,3.4-6.8,3.4
		c-2.6,0-5-0.1-5.9-0.2v8.9c2.3,0.1,5.4,0.2,7.3,0.2c9.8,0,12.7-1.4,16.3-9.1l14.2-30.2l10.5-22.3h-12.6L489,106.3z"/>
</g>
</svg>
