<?xml version="1.0" encoding="utf-8"?>
<!-- Generator: Adobe Illustrator 25.2.1, SVG Export Plug-In . SVG Version: 6.00 Build 0)  -->
<svg version="1.1" id="Layer_1" xmlns="http://www.w3.org/2000/svg" xmlns:xlink="http://www.w3.org/1999/xlink" x="0px" y="0px"
	 viewBox="0 0 489.8 82.3" style="enable-background:new 0 0 489.8 82.3;" xml:space="preserve">
<g>
	<path d="M152.3,51.9V35.8V29c0-8.4-5.5-13-20.3-13c-15.2,0-20.2,5.6-21.2,14.8h5.8c0.4-7,5.2-9.6,15.2-9.6
		c10.4,0,14.7,2.3,14.7,8.6c0,2.9-0.8,4.2-5.6,5c-2.3,0.4-5.5,0.6-10,0.9c-9.7,0.5-22.1,1.9-22.1,13.7c0,9.9,9.7,13.1,17.3,13.1
		c14.5,0,18.8-5.9,20.8-8.8h0.2c0.1,3.5,0.4,7.7,6.8,7.7c2,0,4-0.4,5.3-0.7v-4.2c-1.1,0.1-2.2,0.2-3.3,0.2
		C153.3,56.8,152.3,55.5,152.3,51.9z M146.5,44.2c0,9-10,13.6-18.5,13.6c-6.8,0-12.8-2-12.8-8.8c0-5.2,4.3-7.4,11.6-8.1
		c12.6-1.2,16.9-1.5,19.7-3.3V44.2z"/>
	<path d="M340.2,51v-7.2v-14c0-5.8-0.7-15-24.4-15c-13.4,0-22.2,3.6-23.9,15.3h11.5c0.4-5,4.6-7.4,12.4-7.4c6.8,0,12.8,1.3,12.8,6.4
		c0,3.5-1.8,4-18.7,5.6c-6.2,0.5-15.8,1.4-19.2,8.4c-0.7,1.6-1.2,3.4-1.2,5.6c0,8.8,6.7,14,18.5,14c13.2,0,19-4,21.3-6.1
		c0.3,1.7,1.2,5.7,8.9,5.7c4,0,6.1-0.6,8.4-1v-8c-0.9,0.2-2.7,0.3-3.8,0.3C342,53.5,340.2,53.4,340.2,51z M311.4,55.4
		c-4,0-9.5-1.1-9.5-7c0-2.2,0.8-3.8,3.2-4.9c1.7-0.8,4.2-1.4,7.9-1.8c8.4-0.9,12.1-1.4,15.5-2.8v4.3c0,0.2,0,0.3,0,0.5
		C328,53.2,317.6,55.4,311.4,55.4z"/>
	<path d="M422,45.3v-3.4v-17h12.3v-8.4H422V2.7h-11.8v13.8h-9.4v8.4h9.4v17.5v6.3c0,8.4,1.1,13.5,15.5,13.5c3.6,0,5.9-0.3,9.1-0.7
		v-8.4c-2.8,0.1-5.6,0.2-8.5,0.2C422.2,53.3,422,50.5,422,45.3z"/>
	<path d="M16,3.6H9.7v13.8H0v4.7h9.7v6V51c0,7.1,2.1,10.9,12,10.9c2.1,0,4.5-0.2,6.9-0.5v-5.2c-1.2,0.3-3.2,0.5-6.2,0.5
		c-5.1,0-6.3-1.8-6.3-5.6V26.4v-4.3h12.6v-4.7H16V3.6z"/>
	<path d="M54,16c-10,0-16.9,3.8-21,9.4c-2.8,4-4.2,8.8-4.2,13.8c0,12.2,8.1,23.2,25.2,23.2s25.2-11,25.2-23.2
		c0-3.8-0.8-7.4-2.4-10.7C73.3,21.3,65.8,16,54,16z M54,57.3c-12,0-18.9-7.5-18.9-18c0-5.6,2-10.4,5.7-13.6
		c3.2-2.8,7.6-4.4,13.2-4.4c6.9,0,12.1,2.5,15.3,6.6c2.4,3,3.6,7,3.6,11.4C72.9,49.8,66,57.3,54,57.3z"/>
	<path d="M93.7,3.6h-6.3v13.8h-9.6v4.7h9.6v7.5V51c0,7.1,2.1,10.9,12,10.9c2,0,4.5-0.2,6.9-0.5v-5.2c-1.2,0.3-3.2,0.5-6.2,0.5
		c-5.1,0-6.3-1.8-6.3-5.6V30.2V22h12.6v-4.7H93.8L93.7,3.6L93.7,3.6z"/>
	<polygon points="162.3,36.6 162.3,61.2 168.6,61.2 168.6,37.1 168.6,0.5 162.3,0.5 	"/>
	<path d="M205.2,15.4c-7.1,0-13.8,2.2-17.3,7.6h-0.2V0h-11.8v37.6v23.5h11.8V55h0.2c0.9,2.7,8,7.8,17.3,7.8
		c16.2,0,23.9-11,24.7-21.8c0.1-0.7,0.1-1.4,0.1-2C230,27.7,222.5,15.4,205.2,15.4z M202.4,53.9c-11,0-15.2-7.3-15.2-14.9
		c0-0.2,0-0.4,0-0.5c0.2-7.2,4.4-14.2,15.2-14.2c11.1,0,15.3,7.3,15.3,14.7c0,0.5,0,0.9-0.1,1.4C217.2,47.5,212.9,53.9,202.4,53.9z"
		/>
	<path d="M259.1,14.9c-16.1,0-27.3,9.5-27.3,24.4c0,0.6,0,1.3,0.1,1.9c0.8,11.2,8.6,21.7,27.9,21.7c17.3,0,23.4-9.9,26-14.8H273
		c-2.3,3.7-5.7,6.4-13.5,6.4c-11.7,0-15.1-7.7-15.4-12.6h2h40.8v-1.7C286.9,27.1,279.2,14.9,259.1,14.9z M244.2,34.4
		c2-9.1,9.7-11.6,15.1-11.6c5.8,0,13.8,2.7,15.3,11.6H244.2z"/>
	<path d="M386,41c0,0.8-0.1,1.5-0.2,2.2c-1.2,7.9-8.8,10.7-13.6,10.7c-9.2,0-11.4-4.3-11.7-10.3c0-0.6,0-1.1,0-1.7V16.5h-11.8v27.2
		v2.6c0,13.1,9.5,16.5,19.2,16.5c8,0,14-3.1,17.9-7.9h0.2v6.2h11.8V42.8V16.5H386V41z"/>
	<path d="M466.9,39.6l-3.9,8.8l-3.8-8.4l-10.7-23.6h-12.8l11.7,24.2l9.5,19.6l-2.7,5.4c-1.4,2.8-3.7,3.4-6.8,3.4
		c-2.6,0-5-0.1-5.9-0.2v8.9c2.3,0.1,5.4,0.2,7.3,0.2c9.8,0,12.7-1.4,16.3-9.1l14.2-30.2l10.5-22.3h-12.6L466.9,39.6z"/>
</g>
</svg>
