<?xml version="1.0" encoding="utf-8"?>
<!-- Generator: Adobe Illustrator 25.2.1, SVG Export Plug-In . SVG Version: 6.00 Build 0)  -->
<svg version="1.1" id="LOGO" xmlns="http://www.w3.org/2000/svg" xmlns:xlink="http://www.w3.org/1999/xlink" x="0px" y="0px"
	 viewBox="0 0 740.1 98.1" style="enable-background:new 0 0 740.1 98.1;" xml:space="preserve">
<style type="text/css">
	.st0{fill:#BC2025;}
</style>
<path d="M280.9,0.9c-0.1-0.1-0.4-0.2-0.8-0.2h-15.5c-0.7,0-1.2,0.2-1.3,1.3l-6.6,59.2h-2.1L249.7,2c-0.1-1-0.6-1.2-1.3-1.2h-11.6
	c-0.7,0-1.2,0.2-1.3,1.3l-5,59.1h-2.1L221.9,2c-0.2-1-0.6-1.3-1.3-1.3h-15.5c-0.4,0-0.7,0.1-0.8,0.2s-0.2,0.4-0.1,0.9l16.9,96.3
	c0.1,1,0.5,1.3,1.5,1.3h12.6c0.9,0,1.3-0.4,1.5-1.3l5.1-36.4h1.4l0.2,0.7l5,35.7c0.1,0.9,0.5,1.3,1.5,1.3h12.6
	c0.9,0,1.3-0.4,1.5-1.3l17-96.4C281,1.4,281,1.1,280.9,0.9z"/>
<path d="M314.4,98.9c0.4,0.3,0.8,0.4,1.2,0.4h13c0.4,0,0.6-0.1,0.6-0.1c0.1-0.1,0.1-0.4,0-0.9l-12.9-41.4l0.6-0.3
	c2.8-1.5,5.1-3.5,6.8-6.2c1.7-2.7,2.6-5.7,2.6-9.1V17.9c0-2.4-0.5-4.6-1.4-6.7c-0.9-2.1-2.2-3.9-3.7-5.5c-1.5-1.5-3.4-2.8-5.5-3.7
	c-2.1-0.9-4.3-1.4-6.7-1.4h-21.5c-0.9,0-1.2,0.3-1.2,1.2v96.4c0,0.9,0.3,1.2,1.2,1.2h12.8c0.8,0,1-0.3,1.1-0.8l0.1-0.6V57.4
	l12.1,40.5C313.7,98.3,314,98.6,314.4,98.9z M311.2,40.6c0,1.2-0.4,2.2-1.2,3c-0.8,0.8-1.8,1.2-3,1.2h-5.4V14.4h5.4
	c1.2,0,2.2,0.4,3,1.2s1.2,1.8,1.2,3V40.6z"/>
<path d="M336,99.3h31.1c0.9,0,1.2-0.3,1.2-1.2V85.3c0-0.9-0.3-1.2-1.2-1.2H350V53.2h15c0.9,0,1.2-0.3,1.2-1.2V39.3
	c0-0.9-0.3-1.2-1.2-1.2h-15V15.8h17.2c0.9,0,1.2-0.3,1.2-1.2V1.9c0-0.9-0.3-1.2-1.2-1.2H336c-0.9,0-1.2,0.3-1.2,1.2v96.3
	C334.9,99,335.2,99.3,336,99.3z"/>
<path d="M413.2,89.8c0.9-2.1,1.4-4.3,1.4-6.7V58.5c-0.2-1.6-0.5-3.1-0.9-4.4c-0.4-1.2-1.3-2.5-2.7-3.7l-18.7-14
	c-0.9-0.9-1.5-1.8-1.9-2.7c-0.3-0.8-0.5-1.8-0.6-2.9V17.7c0-1.2,0.4-2.2,1.2-3c0.8-0.8,1.8-1.2,3-1.2h1.1c1.2,0,2.2,0.4,3,1.2
	s1.2,1.8,1.2,3V27c0,0.7,0.2,0.7,0.3,0.7c0.1,0,0.2,0,0.5-0.1l13.1-3.4c0.9-0.3,1.2-0.8,1.2-1.8V17c0-2.4-0.5-4.6-1.4-6.7
	c-0.9-2.1-2.2-3.9-3.7-5.5c-1.5-1.5-3.4-2.8-5.5-3.7c-2.1-0.9-4.3-1.4-6.7-1.4h-5.4c-2.4,0-4.6,0.5-6.7,1.4s-3.9,2.2-5.5,3.7
	c-1.5,1.5-2.8,3.4-3.7,5.5c-0.9,2.1-1.4,4.3-1.4,6.7v17.2c0,2.1,0.3,3.7,0.9,5c0.6,1.2,1.5,2.5,2.9,3.8l18.4,14.1c1,0.9,1.7,1.9,2,3
	c0.3,1,0.5,2.2,0.6,3.5v19c0,1.2-0.4,2.2-1.2,3c-0.8,0.8-1.8,1.2-3,1.2h-1c-1.2,0-2.2-0.4-3-1.2c-0.8-0.8-1.2-1.8-1.2-3V64.8
	c0-0.7-0.2-0.7-0.3-0.7c-0.1,0-0.2,0-0.5,0.1l-13.1,3.4c-0.9,0.3-1.2,0.8-1.2,1.8v13.8c0,2.4,0.5,4.6,1.4,6.7
	c0.9,2.1,2.2,3.9,3.7,5.5c1.5,1.5,3.4,2.8,5.5,3.7c2.1,0.9,4.3,1.4,6.7,1.4h5.4c2.4,0,4.6-0.5,6.7-1.4s3.9-2.2,5.5-3.7
	C411,93.7,412.3,91.9,413.2,89.8z"/>
<path d="M458.9,14.6V1.9c0-0.9-0.3-1.2-1.2-1.2h-37c-0.9,0-1.2,0.3-1.2,1.2v12.8c0,0.9,0.3,1.2,1.2,1.2h10.9v82.3
	c0,0.3,0.1,0.6,0.4,0.8s0.5,0.4,0.8,0.4h12.8c0.9,0,1.2-0.3,1.2-1.2V15.8h11C458.6,15.8,458.9,15.5,458.9,14.6z"/>
<path d="M499.4,98.2V85.4c0-0.9-0.3-1.2-1.2-1.2h-18.6V1.9c0-0.9-0.3-1.2-1.2-1.2h-12.8c-0.9,0-1.2,0.3-1.2,1.2v96.3
	c0,0.9,0.3,1.2,1.2,1.2h32.5C499.1,99.3,499.4,99,499.4,98.2z"/>
<path d="M505.6,99.3h31.1c0.9,0,1.2-0.3,1.2-1.2V85.3c0-0.9-0.3-1.2-1.2-1.2h-17.2V53.2h15c0.9,0,1.2-0.3,1.2-1.2V39.3
	c0-0.9-0.3-1.2-1.2-1.2h-15V15.8h17.2c0.9,0,1.2-0.3,1.2-1.2V1.9c0-0.9-0.3-1.2-1.2-1.2h-31.1c-0.9,0-1.2,0.3-1.2,1.2v96.3
	C504.4,99,504.7,99.3,505.6,99.3z"/>
<path d="M562.3,99.3h38c0.9,0,1.2-0.3,1.2-1.2v-12c0-0.9-0.3-1.2-1.2-1.2h-19.7l20.2-83.3c0.1-0.3,0.1-0.4-0.1-0.7
	c-0.2-0.2-0.4-0.3-0.7-0.3h-37.7c-0.9,0-1.2,0.3-1.2,1.2v12c0,0.9,0.3,1.2,1.2,1.2h19.4l-20.2,83.3c-0.2,0.5,0,0.6,0,0.7
	C561.7,99.2,561.9,99.3,562.3,99.3z"/>
<path d="M645.4,89.8c0.9-2.1,1.4-4.3,1.4-6.7V16.9c0-2.4-0.5-4.6-1.4-6.7c-0.9-2.1-2.2-3.9-3.7-5.5c-1.5-1.5-3.4-2.8-5.5-3.7
	c-2.1-0.9-4.3-1.4-6.7-1.4h-5.4c-2.4,0-4.6,0.5-6.7,1.4c-2.1,0.9-3.9,2.2-5.5,3.7c-1.5,1.5-2.8,3.4-3.7,5.5s-1.4,4.3-1.4,6.7v66.2
	c0,2.4,0.5,4.6,1.4,6.7c0.9,2.1,2.2,3.9,3.7,5.5c1.5,1.5,3.4,2.8,5.5,3.7s4.3,1.4,6.7,1.4h5.4c2.4,0,4.6-0.5,6.7-1.4
	c2.1-0.9,3.9-2.2,5.5-3.7C643.2,93.7,644.4,91.9,645.4,89.8z M631.6,82.4c0,1.2-0.4,2.2-1.2,3s-1.8,1.2-3,1.2h-1.1
	c-1.2,0-2.2-0.4-3-1.2s-1.2-1.8-1.2-3V17.6c0-1.2,0.4-2.2,1.2-3s1.8-1.2,3-1.2h1.1c1.2,0,2.2,0.4,3,1.2s1.2,1.8,1.2,3V82.4z"/>
<path d="M686.3,98.9c0.4,0.3,0.8,0.4,1.2,0.4h9.2c0.9,0,1.2-0.3,1.2-1.2V1.9c0-0.9-0.3-1.2-1.2-1.2h-12.8c-0.9,0-1.2,0.3-1.2,1.2V53
	L666.2,2c-0.1-0.3-0.4-0.6-0.8-0.9c-0.4-0.3-0.8-0.4-1.2-0.4h-9.5c-0.9,0-1.2,0.3-1.2,1.2v96.3c0,0.9,0.3,1.2,1.2,1.2h12.8
	c0.9,0,1.2-0.3,1.2-1.2V45.6l16.8,52.5C685.6,98.3,685.9,98.6,686.3,98.9z"/>
<path d="M707.8,99.3h31.1c0.9,0,1.2-0.3,1.2-1.2V85.3c0-0.9-0.3-1.2-1.2-1.2h-17.2V53.2h15c0.9,0,1.2-0.3,1.2-1.2V39.3
	c0-0.9-0.3-1.2-1.2-1.2h-15V15.8h17.2c0.9,0,1.2-0.3,1.2-1.2V1.9c0-0.9-0.3-1.2-1.2-1.2h-31.1c-0.9,0-1.2,0.3-1.2,1.2v96.3
	C706.6,99,706.9,99.3,707.8,99.3z"/>
<polygon class="st0" points="119.5,81.4 148.5,23.3 124.7,23.3 86.2,99.6 188.6,99.6 177.3,81.4 "/>
<polygon class="st0" points="77.6,39.2 88.4,18.1 157.9,18.1 128.3,76.2 149.1,76.2 188.1,0.1 57.9,0.1 "/>
<polygon class="st0" points="50.6,99.7 59.9,74.5 21.9,0 0,0 "/>
<polygon class="st0" points="79.2,99.6 117.1,23.3 93.9,23.3 78.5,54 51.2,0.1 28.6,0.1 "/>
</svg>
