<?xml version="1.0" encoding="utf-8"?>
<!-- Generator: Adobe Illustrator 25.2.1, SVG Export Plug-In . SVG Version: 6.00 Build 0)  -->
<svg version="1.1" id="LOGO" xmlns="http://www.w3.org/2000/svg" xmlns:xlink="http://www.w3.org/1999/xlink" x="0px" y="0px"
	 viewBox="0 0 792 159.6" style="enable-background:new 0 0 792 159.6;" xml:space="preserve">
<style type="text/css">
	.st0{fill:#BC2025;}
</style>
<path d="M306.9,30.7c-0.1-0.1-0.4-0.2-0.8-0.2h-15.5c-0.7,0-1.2,0.2-1.3,1.3L282.7,91h-2.1l-4.9-59.2c-0.1-1-0.6-1.2-1.3-1.2h-11.6
	c-0.7,0-1.2,0.2-1.3,1.3L256.5,91h-2.1l-6.5-59.2c-0.2-1-0.6-1.3-1.3-1.3h-15.5c-0.4,0-0.7,0.1-0.8,0.2c-0.1,0.1-0.2,0.4-0.1,0.9
	l16.9,96.3c0.1,1,0.5,1.3,1.5,1.3h12.6c0.9,0,1.3-0.4,1.5-1.3l5.1-36.4h1.4l0.2,0.7l5,35.7c0.1,0.9,0.5,1.3,1.5,1.3h12.6
	c0.9,0,1.3-0.4,1.5-1.3L307,31.5C307,31.2,307,30.9,306.9,30.7z"/>
<path d="M340.4,128.7c0.4,0.3,0.8,0.4,1.2,0.4h13c0.4,0,0.6-0.1,0.6-0.1c0.1-0.1,0.1-0.4,0-0.9l-12.9-41.4l0.6-0.3
	c2.8-1.5,5.1-3.5,6.8-6.2c1.7-2.7,2.6-5.7,2.6-9.1V47.7c0-2.4-0.5-4.6-1.4-6.7c-0.9-2.1-2.2-3.9-3.7-5.5c-1.5-1.5-3.4-2.8-5.5-3.7
	c-2.1-0.9-4.3-1.4-6.7-1.4h-21.5c-0.9,0-1.2,0.3-1.2,1.2V128c0,0.9,0.3,1.2,1.2,1.2h12.8c0.8,0,1-0.3,1.1-0.8l0.1-0.6V87.2
	l12.1,40.5C339.7,128.1,340,128.4,340.4,128.7z M337.2,70.4c0,1.2-0.4,2.2-1.2,3c-0.8,0.8-1.8,1.2-3,1.2h-5.4V44.2h5.4
	c1.2,0,2.2,0.4,3,1.2c0.8,0.8,1.2,1.8,1.2,3V70.4z"/>
<path d="M362,129.1h31.1c0.9,0,1.2-0.3,1.2-1.2v-12.8c0-0.9-0.3-1.2-1.2-1.2H376V83h15c0.9,0,1.2-0.3,1.2-1.2V69.1
	c0-0.9-0.3-1.2-1.2-1.2h-15V45.6h17.2c0.9,0,1.2-0.3,1.2-1.2V31.7c0-0.9-0.3-1.2-1.2-1.2H362c-0.9,0-1.2,0.3-1.2,1.2V128
	C360.9,128.8,361.2,129.1,362,129.1z"/>
<path d="M439.2,119.6c0.9-2.1,1.4-4.3,1.4-6.7V88.3c-0.2-1.6-0.5-3.1-0.9-4.4c-0.4-1.2-1.3-2.5-2.7-3.7l-18.7-14
	c-0.9-0.9-1.5-1.8-1.9-2.7c-0.3-0.8-0.5-1.8-0.6-2.9l0-13.1c0-1.2,0.4-2.2,1.2-3c0.8-0.8,1.8-1.2,3-1.2h1.1c1.2,0,2.2,0.4,3,1.2
	c0.8,0.8,1.2,1.8,1.2,3v9.3c0,0.7,0.2,0.7,0.3,0.7c0.1,0,0.2,0,0.5-0.1l13.1-3.4c0.9-0.3,1.2-0.8,1.2-1.8v-5.4
	c0-2.4-0.5-4.6-1.4-6.7c-0.9-2.1-2.2-3.9-3.7-5.5c-1.5-1.5-3.4-2.8-5.5-3.7c-2.1-0.9-4.3-1.4-6.7-1.4h-5.4c-2.4,0-4.6,0.5-6.7,1.4
	c-2.1,0.9-3.9,2.2-5.5,3.7c-1.5,1.5-2.8,3.4-3.7,5.5c-0.9,2.1-1.4,4.3-1.4,6.7v17.2c0,2.1,0.3,3.7,0.9,5c0.6,1.2,1.5,2.5,2.9,3.8
	l18.4,14.1c1,0.9,1.7,1.9,2,3c0.3,1,0.5,2.2,0.6,3.5l0,19c0,1.2-0.4,2.2-1.2,3c-0.8,0.8-1.8,1.2-3,1.2H420c-1.2,0-2.2-0.4-3-1.2
	c-0.8-0.8-1.2-1.8-1.2-3V94.6c0-0.7-0.2-0.7-0.3-0.7c-0.1,0-0.2,0-0.5,0.1l-13.1,3.4c-0.9,0.3-1.2,0.8-1.2,1.8v13.8
	c0,2.4,0.5,4.6,1.4,6.7c0.9,2.1,2.2,3.9,3.7,5.5c1.5,1.5,3.4,2.8,5.5,3.7c2.1,0.9,4.3,1.4,6.7,1.4h5.4c2.4,0,4.6-0.5,6.7-1.4
	c2.1-0.9,3.9-2.2,5.5-3.7C437,123.5,438.3,121.7,439.2,119.6z"/>
<path d="M484.9,44.4V31.7c0-0.9-0.3-1.2-1.2-1.2h-37c-0.9,0-1.2,0.3-1.2,1.2v12.8c0,0.9,0.3,1.2,1.2,1.2h10.9V128
	c0,0.3,0.1,0.6,0.4,0.8c0.3,0.2,0.5,0.4,0.8,0.4h12.8c0.9,0,1.2-0.3,1.2-1.2V45.6h11C484.6,45.6,484.9,45.3,484.9,44.4z"/>
<path d="M525.4,128v-12.8c0-0.9-0.3-1.2-1.2-1.2h-18.6V31.7c0-0.9-0.3-1.2-1.2-1.2h-12.8c-0.9,0-1.2,0.3-1.2,1.2V128
	c0,0.9,0.3,1.2,1.2,1.2h32.5C525.1,129.1,525.4,128.8,525.4,128z"/>
<path d="M531.6,129.1h31.1c0.9,0,1.2-0.3,1.2-1.2v-12.8c0-0.9-0.3-1.2-1.2-1.2h-17.2V83h15c0.9,0,1.2-0.3,1.2-1.2V69.1
	c0-0.9-0.3-1.2-1.2-1.2h-15V45.6h17.2c0.9,0,1.2-0.3,1.2-1.2V31.7c0-0.9-0.3-1.2-1.2-1.2h-31.1c-0.9,0-1.2,0.3-1.2,1.2V128
	C530.4,128.8,530.7,129.1,531.6,129.1z"/>
<path d="M588.3,129.1h38c0.9,0,1.2-0.3,1.2-1.2v-12c0-0.9-0.3-1.2-1.2-1.2h-19.7l20.2-83.3c0.1-0.3,0.1-0.4-0.1-0.7
	c-0.2-0.2-0.4-0.3-0.7-0.3h-37.7c-0.9,0-1.2,0.3-1.2,1.2v12c0,0.9,0.3,1.2,1.2,1.2h19.4l-20.2,83.3c-0.2,0.5,0,0.6,0,0.7
	C587.7,129,587.9,129.1,588.3,129.1z"/>
<path d="M671.4,119.6c0.9-2.1,1.4-4.3,1.4-6.7V46.7c0-2.4-0.5-4.6-1.4-6.7c-0.9-2.1-2.2-3.9-3.7-5.5c-1.5-1.5-3.4-2.8-5.5-3.7
	c-2.1-0.9-4.3-1.4-6.7-1.4h-5.4c-2.4,0-4.6,0.5-6.7,1.4c-2.1,0.9-3.9,2.2-5.5,3.7c-1.5,1.5-2.8,3.4-3.7,5.5
	c-0.9,2.1-1.4,4.3-1.4,6.7v66.2c0,2.4,0.5,4.6,1.4,6.7c0.9,2.1,2.2,3.9,3.7,5.5c1.5,1.5,3.4,2.8,5.5,3.7c2.1,0.9,4.3,1.4,6.7,1.4
	h5.4c2.4,0,4.6-0.5,6.7-1.4c2.1-0.9,3.9-2.2,5.5-3.7C669.2,123.5,670.4,121.7,671.4,119.6z M657.6,112.2c0,1.2-0.4,2.2-1.2,3
	c-0.8,0.8-1.8,1.2-3,1.2h-1.1c-1.2,0-2.2-0.4-3-1.2c-0.8-0.8-1.2-1.8-1.2-3V47.4c0-1.2,0.4-2.2,1.2-3c0.8-0.8,1.8-1.2,3-1.2h1.1
	c1.2,0,2.2,0.4,3,1.2c0.8,0.8,1.2,1.8,1.2,3V112.2z"/>
<path d="M712.3,128.7c0.4,0.3,0.8,0.4,1.2,0.4h9.2c0.9,0,1.2-0.3,1.2-1.2V31.7c0-0.9-0.3-1.2-1.2-1.2h-12.8c-0.9,0-1.2,0.3-1.2,1.2
	v51.1l-16.5-51c-0.1-0.3-0.4-0.6-0.8-0.9c-0.4-0.3-0.8-0.4-1.2-0.4h-9.5c-0.9,0-1.2,0.3-1.2,1.2V128c0,0.9,0.3,1.2,1.2,1.2h12.8
	c0.9,0,1.2-0.3,1.2-1.2V75.4l16.8,52.5C711.6,128.1,711.9,128.4,712.3,128.7z"/>
<path d="M733.8,129.1h31.1c0.9,0,1.2-0.3,1.2-1.2v-12.8c0-0.9-0.3-1.2-1.2-1.2h-17.2V83h15c0.9,0,1.2-0.3,1.2-1.2V69.1
	c0-0.9-0.3-1.2-1.2-1.2h-15V45.6h17.2c0.9,0,1.2-0.3,1.2-1.2V31.7c0-0.9-0.3-1.2-1.2-1.2h-31.1c-0.9,0-1.2,0.3-1.2,1.2V128
	C732.6,128.8,732.9,129.1,733.8,129.1z"/>
<polygon class="st0" points="145.5,111.2 174.5,53.1 150.7,53.1 112.2,129.4 214.6,129.4 203.3,111.2 "/>
<polygon class="st0" points="103.6,69 114.4,47.9 183.9,47.9 154.3,106 175.1,106 214.1,29.9 83.9,29.9 "/>
<polygon class="st0" points="76.6,129.5 85.9,104.3 47.9,29.8 26,29.8 "/>
<polygon class="st0" points="105.2,129.4 143.1,53.1 119.9,53.1 104.5,83.8 77.2,29.9 54.6,29.9 "/>
</svg>
