<?xml version="1.0" encoding="utf-8"?>
<!-- Generator: Adobe Illustrator 25.2.1, SVG Export Plug-In . SVG Version: 6.00 Build 0)  -->
<svg version="1.1" id="OBJECTS" xmlns="http://www.w3.org/2000/svg" xmlns:xlink="http://www.w3.org/1999/xlink" x="0px" y="0px"
	 viewBox="0 0 71.6 71.6" style="enable-background:new 0 0 71.6 71.6;" xml:space="preserve">
<style type="text/css">
	.st0{fill:#FFFFFF;}
</style>
<g>
	<g>
		<g>
			<path class="st0" d="M26.3,22.5c0,2.1-1.3,3.8-3.8,3.8c-2.3,0-3.8-1.7-3.8-3.6c0-2.1,1.5-4,3.8-4S26.3,20.5,26.3,22.5z"/>
		</g>
		<g>
			<rect x="18.7" y="28.2" class="st0" width="7.6" height="24.7"/>
		</g>
		<g>
			<path class="st0" d="M44.5,28.6c-4,0-6.3,2.3-7.2,3.8h-0.2l-0.4-3.2h-6.8c0,2.1,0.2,4.5,0.2,7.4v16.3h7.6V39.4
				c0-0.8,0-1.3,0.2-1.9c0.6-1.3,1.5-3,3.6-3c2.7,0,3.8,2.3,3.8,5.3v13.1h7.6v-14C52.9,31.8,49.3,28.6,44.5,28.6z"/>
		</g>
	</g>
	<g>
		<path class="st0" d="M57,71.6H14.6C6.5,71.6,0,65.1,0,57V14.6C0,6.5,6.6,0,14.6,0H57c8.1,0,14.6,6.6,14.6,14.6V57
			C71.6,65.1,65.1,71.6,57,71.6z M14.6,4C8.8,4,4,8.8,4,14.6V57c0,5.9,4.8,10.6,10.6,10.6H57c5.8,0,10.6-4.8,10.6-10.6V14.6
			C67.6,8.8,62.9,4,57,4C57,4,14.6,4,14.6,4z"/>
	</g>
</g>
</svg>
