<?xml version="1.0" encoding="utf-8"?>
<!-- Generator: Adobe Illustrator 25.2.1, SVG Export Plug-In . SVG Version: 6.00 Build 0)  -->
<svg version="1.1" id="_x30_5_TRANS_-_MOBILE" xmlns="http://www.w3.org/2000/svg" xmlns:xlink="http://www.w3.org/1999/xlink"
	 x="0px" y="0px" viewBox="0 0 150 50" style="enable-background:new 0 0 150 50;" xml:space="preserve">
<style type="text/css">
	.st0{clip-path:url(#SVGID_2_);}
	.st1{clip-path:url(#SVGID_4_);}
	.st2{fill:#FFFFFF;}
	.st3{clip-path:url(#SVGID_8_);}
	.st4{clip-path:url(#SVGID_10_);}
	.st5{clip-path:url(#SVGID_14_);}
	.st6{clip-path:url(#SVGID_16_);}
</style>
<g>
	<g>
		<g>
			<defs>
				<rect id="SVGID_1_" x="1.2" y="16.2" width="17.1" height="3.9"/>
			</defs>
			<use xlink:href="#SVGID_1_"  style="overflow:visible;fill:#FFFFFF;"/>
			<clipPath id="SVGID_2_">
				<use xlink:href="#SVGID_1_"  style="overflow:visible;"/>
			</clipPath>
			<g class="st0">
				<g>
					<g>
						<defs>
							<rect id="SVGID_3_" x="1.2" y="16.2" width="17.1" height="3.9"/>
						</defs>
						<use xlink:href="#SVGID_3_"  style="overflow:visible;fill:#FFFFFF;"/>
						<clipPath id="SVGID_4_">
							<use xlink:href="#SVGID_3_"  style="overflow:visible;"/>
						</clipPath>
						<g class="st1">
							<g>
								<defs>
									<rect id="SVGID_5_" x="1.2" y="16.2" width="17.1" height="3.9"/>
								</defs>
								<use xlink:href="#SVGID_5_"  style="overflow:visible;fill:#FFFFFF;"/>
								<clipPath id="SVGID_6_">
									<use xlink:href="#SVGID_5_"  style="overflow:visible;"/>
								</clipPath>
							</g>
						</g>
					</g>
				</g>
			</g>
		</g>
	</g>
	<polygon class="st2" points="148.2,8.5 148.2,4.6 129,4.6 129,31.4 148.2,31.4 148.2,27.5 133.3,27.5 133.3,20 144.9,20 
		144.9,16.2 133.3,16.2 133.3,8.5 	"/>
	<polygon class="st2" points="40.9,24.9 33.5,4.6 29,4.6 39.1,31.4 42.7,31.4 52.8,4.6 48.3,4.6 	"/>
	<path class="st2" d="M71.2,5.5c-1.6-0.8-3.4-1.2-5.6-1.2s-4,0.4-5.6,1.2c-1.6,0.8-2.8,2-3.6,3.5c-0.8,1.5-1.2,3.3-1.2,5.4v7.2
		c0,2.1,0.4,3.9,1.2,5.4c0.8,1.5,2,2.7,3.6,3.5c1.5,0.8,3.4,1.2,5.6,1.2s4-0.4,5.6-1.2c1.6-0.8,2.8-2,3.6-3.5
		c0.8-1.5,1.2-3.3,1.2-5.4v-7.2c0-2.1-0.4-3.9-1.2-5.4C74,7.5,72.8,6.3,71.2,5.5 M71.8,21.7c0,1.3-0.2,2.4-0.7,3.4
		c-0.5,0.9-1.2,1.6-2.1,2c-0.9,0.5-2.1,0.7-3.4,0.7s-2.5-0.2-3.4-0.7c-0.9-0.5-1.6-1.1-2-2c-0.5-0.9-0.7-2-0.7-3.4v-7.4
		c0-1.3,0.2-2.4,0.7-3.4c0.5-0.9,1.2-1.6,2-2c0.9-0.5,2.1-0.7,3.4-0.7s2.5,0.2,3.4,0.7c0.9,0.5,1.6,1.1,2.1,2c0.5,0.9,0.7,2,0.7,3.4
		V21.7z"/>
	<polygon class="st2" points="86.3,4.6 82,4.6 82,31.4 101.2,31.4 101.2,27.5 86.3,27.5 	"/>
	<polygon class="st2" points="112.9,24.9 105.5,4.6 101,4.6 111.1,31.4 114.7,31.4 124.8,4.6 120.3,4.6 	"/>
	<g>
		<g>
			<defs>
				<rect id="SVGID_7_" x="1.2" y="4.6" width="21.8" height="3.9"/>
			</defs>
			<use xlink:href="#SVGID_7_"  style="overflow:visible;fill:#FFFFFF;"/>
			<clipPath id="SVGID_8_">
				<use xlink:href="#SVGID_7_"  style="overflow:visible;"/>
			</clipPath>
			<g class="st3">
				<g>
					<g>
						<defs>
							<rect id="SVGID_9_" x="1.2" y="4.6" width="21.8" height="3.9"/>
						</defs>
						<use xlink:href="#SVGID_9_"  style="overflow:visible;fill:#FFFFFF;"/>
						<clipPath id="SVGID_10_">
							<use xlink:href="#SVGID_9_"  style="overflow:visible;"/>
						</clipPath>
						<g class="st4">
							<g>
								<defs>
									<rect id="SVGID_11_" x="1.2" y="4.6" width="21.8" height="3.9"/>
								</defs>
								<use xlink:href="#SVGID_11_"  style="overflow:visible;fill:#FFFFFF;"/>
								<clipPath id="SVGID_12_">
									<use xlink:href="#SVGID_11_"  style="overflow:visible;"/>
								</clipPath>
							</g>
						</g>
					</g>
				</g>
			</g>
		</g>
	</g>
	<g>
		<g>
			<defs>
				<rect id="SVGID_13_" x="1.2" y="27.5" width="21.8" height="3.9"/>
			</defs>
			<use xlink:href="#SVGID_13_"  style="overflow:visible;fill:#FFFFFF;"/>
			<clipPath id="SVGID_14_">
				<use xlink:href="#SVGID_13_"  style="overflow:visible;"/>
			</clipPath>
			<g class="st5">
				<g>
					<g>
						<defs>
							<rect id="SVGID_15_" x="1.2" y="27.5" width="21.8" height="3.9"/>
						</defs>
						<use xlink:href="#SVGID_15_"  style="overflow:visible;fill:#FFFFFF;"/>
						<clipPath id="SVGID_16_">
							<use xlink:href="#SVGID_15_"  style="overflow:visible;"/>
						</clipPath>
						<g class="st6">
							<g>
								<defs>
									<rect id="SVGID_17_" x="1.2" y="27.5" width="21.8" height="3.9"/>
								</defs>
								<use xlink:href="#SVGID_17_"  style="overflow:visible;fill:#FFFFFF;"/>
								<clipPath id="SVGID_18_">
									<use xlink:href="#SVGID_17_"  style="overflow:visible;"/>
								</clipPath>
							</g>
						</g>
					</g>
				</g>
			</g>
		</g>
	</g>
	<polygon class="st2" points="57.4,47.4 64.4,47.4 64.4,45.9 58.9,45.9 58.9,43.4 63,43.4 63,41.9 58.9,41.9 58.9,39.4 64.4,39.4 
		64.4,37.9 57.4,37.9 	"/>
	<path class="st2" d="M82,39.3c-0.7-0.8-1.7-1.3-2.7-1.4h-3.8v9.5h1h2.9c1-0.1,2-0.6,2.7-1.4c0.8-0.9,1.1-2.1,1.1-3.2
		C83.1,41.5,82.8,40.3,82,39.3 M79.3,45.9h-2.2H77v-6.5h2.2c1.4,0.1,2.4,1.7,2.3,3.2C81.6,44.2,80.6,45.8,79.3,45.9"/>
	<polygon class="st2" points="92.6,47.4 94,47.4 94,37.9 92.6,37.9 	"/>
	<path class="st2" d="M108.6,37.9l-4.2,9.5h1.6l0.8-1.9l0.1-0.3h3.8l0.1,0.3l0.6,1.5l0.2,0.4h1.6l-4.2-9.5H108.6z M107.5,44l1.3-3
		l1.3,3H107.5z"/>
	<polygon class="st2" points="41.8,44.2 38.7,37.9 37.4,37.9 37.4,47.4 39,47.4 39,42.2 41.5,47.4 42.1,47.4 44.7,42.2 44.7,47.4 
		46.2,47.4 46.2,37.9 45,37.9 	"/>
</g>
</svg>
